<svg width="18" height="19" viewBox="0 0 18 19" fill="none" xmlns="http://www.w3.org/2000/svg">
<path d="M12.75 16.438H5.25C2.5125 16.438 0.9375 14.863 0.9375 12.1255V6.87549C0.9375 4.13799 2.5125 2.56299 5.25 2.56299H12.75C15.4875 2.56299 17.0625 4.13799 17.0625 6.87549V12.1255C17.0625 14.863 15.4875 16.438 12.75 16.438ZM5.25 3.68799C3.105 3.68799 2.0625 4.73049 2.0625 6.87549V12.1255C2.0625 14.2705 3.105 15.313 5.25 15.313H12.75C14.895 15.313 15.9375 14.2705 15.9375 12.1255V6.87549C15.9375 4.73049 14.895 3.68799 12.75 3.68799H5.25Z" fill="#475467"/>
<path d="M9.00008 10.153C8.37008 10.153 7.73258 9.95797 7.24508 9.56047L4.89758 7.68547C4.65758 7.49047 4.61258 7.13796 4.80758 6.89796C5.00258 6.65796 5.35508 6.61297 5.59508 6.80797L7.94257 8.68297C8.51257 9.14047 9.48007 9.14047 10.0501 8.68297L12.3976 6.80797C12.6376 6.61297 12.9976 6.65046 13.1851 6.89796C13.3801 7.13796 13.3426 7.49797 13.0951 7.68547L10.7476 9.56047C10.2676 9.95797 9.63008 10.153 9.00008 10.153Z" fill="#475467"/>
</svg>
