<svg width="18" height="19" viewBox="0 0 18 19" fill="none" xmlns="http://www.w3.org/2000/svg">
<path d="M13.5 8.56299C13.1925 8.56299 12.9375 8.30799 12.9375 8.00049V6.50049C12.9375 4.13799 12.27 2.56299 9 2.56299C5.73 2.56299 5.0625 4.13799 5.0625 6.50049V8.00049C5.0625 8.30799 4.8075 8.56299 4.5 8.56299C4.1925 8.56299 3.9375 8.30799 3.9375 8.00049V6.50049C3.9375 4.32549 4.4625 1.43799 9 1.43799C13.5375 1.43799 14.0625 4.32549 14.0625 6.50049V8.00049C14.0625 8.30799 13.8075 8.56299 13.5 8.56299Z" fill="#475467"/>
<path d="M12.75 17.563H5.25C1.9425 17.563 0.9375 16.558 0.9375 13.2505V11.7505C0.9375 8.44299 1.9425 7.43799 5.25 7.43799H12.75C16.0575 7.43799 17.0625 8.44299 17.0625 11.7505V13.2505C17.0625 16.558 16.0575 17.563 12.75 17.563ZM5.25 8.56299C2.565 8.56299 2.0625 9.07299 2.0625 11.7505V13.2505C2.0625 15.928 2.565 16.438 5.25 16.438H12.75C15.435 16.438 15.9375 15.928 15.9375 13.2505V11.7505C15.9375 9.07299 15.435 8.56299 12.75 8.56299H5.25Z" fill="#475467"/>
<path d="M6 13.2506C5.9025 13.2506 5.805 13.2281 5.715 13.1906C5.6175 13.1531 5.54251 13.1006 5.46751 13.0331C5.33251 12.8906 5.25 12.7031 5.25 12.5006C5.25 12.4031 5.27249 12.3056 5.30999 12.2156C5.34749 12.1181 5.40001 12.0431 5.46751 11.9681C5.54251 11.9006 5.6175 11.8481 5.715 11.8106C5.985 11.6906 6.32249 11.7581 6.53249 11.9681C6.59999 12.0431 6.65251 12.1256 6.69001 12.2156C6.72751 12.3056 6.75 12.4031 6.75 12.5006C6.75 12.6956 6.66749 12.8906 6.53249 13.0331C6.38999 13.1681 6.195 13.2506 6 13.2506Z" fill="#475467"/>
<path d="M9 13.2507C8.805 13.2507 8.61001 13.1682 8.46751 13.0332C8.33251 12.8907 8.25 12.7032 8.25 12.5007C8.25 12.4032 8.26499 12.3057 8.30999 12.2157C8.34749 12.1257 8.40001 12.0432 8.46751 11.9682C8.64001 11.7957 8.9025 11.7132 9.1425 11.7657C9.195 11.7732 9.24 11.7882 9.285 11.8107C9.33 11.8257 9.375 11.8482 9.42 11.8782C9.4575 11.9007 9.49499 11.9382 9.53249 11.9682C9.59999 12.0432 9.65251 12.1257 9.69001 12.2157C9.72751 12.3057 9.75 12.4032 9.75 12.5007C9.75 12.7032 9.66749 12.8907 9.53249 13.0332C9.49499 13.0632 9.4575 13.0932 9.42 13.1232C9.375 13.1532 9.33 13.1757 9.285 13.1907C9.24 13.2132 9.195 13.2282 9.1425 13.2357C9.0975 13.2432 9.045 13.2507 9 13.2507Z" fill="#475467"/>
<path d="M12 13.2507C11.7975 13.2507 11.61 13.1682 11.4675 13.0332C11.4 12.9582 11.3475 12.8757 11.31 12.7857C11.2725 12.6957 11.25 12.5982 11.25 12.5007C11.25 12.3057 11.3325 12.1107 11.4675 11.9682C11.505 11.9382 11.5425 11.9082 11.58 11.8782C11.625 11.8482 11.67 11.8257 11.715 11.8107C11.76 11.7882 11.805 11.7732 11.85 11.7657C12.0975 11.7132 12.3525 11.7957 12.5325 11.9682C12.6675 12.1107 12.75 12.2982 12.75 12.5007C12.75 12.5982 12.7275 12.6957 12.69 12.7857C12.6525 12.8832 12.6 12.9582 12.5325 13.0332C12.39 13.1682 12.195 13.2507 12 13.2507Z" fill="#475467"/>
</svg>
