<svg width="12" height="12" viewBox="0 0 12 12" fill="none" xmlns="http://www.w3.org/2000/svg">
<path d="M11.1429 6.85519H6.85714V11.1409C6.85714 11.3682 6.76684 11.5863 6.60609 11.747C6.44535 11.9077 6.22733 11.998 6 11.998C5.77267 11.998 5.55465 11.9077 5.39391 11.747C5.23316 11.5863 5.14286 11.3682 5.14286 11.1409V6.85519H0.857143C0.629814 6.85519 0.411797 6.76488 0.251051 6.60414C0.090306 6.44339 0 6.22538 0 5.99805C0 5.77072 0.090306 5.5527 0.251051 5.39196C0.411797 5.23121 0.629814 5.1409 0.857143 5.1409H5.14286V0.85519C5.14286 0.627861 5.23316 0.409843 5.39391 0.249098C5.55465 0.0883525 5.77267 -0.00195313 6 -0.00195312C6.22733 -0.00195313 6.44535 0.0883525 6.60609 0.249098C6.76684 0.409843 6.85714 0.627861 6.85714 0.85519V5.1409H11.1429C11.3702 5.1409 11.5882 5.23121 11.7489 5.39196C11.9097 5.5527 12 5.77072 12 5.99805C12 6.22538 11.9097 6.44339 11.7489 6.60414C11.5882 6.76488 11.3702 6.85519 11.1429 6.85519Z" fill="#667085"/>
</svg>
