<svg width="20" height="19" viewBox="0 0 20 19" fill="none" xmlns="http://www.w3.org/2000/svg">
<path d="M11.8017 0.965304C12.1737 0.965274 12.5392 1.06243 12.862 1.24714C13.1848 1.43186 13.4538 1.69772 13.6423 2.01838L14.4145 3.33425H16.3793C17.1969 3.33425 17.981 3.65897 18.5592 4.237C19.1374 4.81504 19.4624 5.59905 19.4626 6.41664V15.4295C19.4626 15.8344 19.3829 16.2353 19.2279 16.6094C19.073 16.9835 18.8459 17.3234 18.5596 17.6097C18.2732 17.896 17.9333 18.1231 17.5592 18.2781C17.1852 18.433 16.7842 18.5128 16.3793 18.5128H3.57161C2.75386 18.5128 1.96961 18.1879 1.39137 17.6097C0.813131 17.0315 0.488281 16.2472 0.488281 15.4295V6.41664C0.488281 5.59889 0.813131 4.81463 1.39137 4.23639C1.96961 3.65815 2.75386 3.3333 3.57161 3.3333H5.54495L6.37508 1.98233C6.56595 1.67136 6.83334 1.4145 7.15174 1.23629C7.47013 1.05808 7.82889 0.964452 8.19377 0.964355L11.8017 0.965304ZM11.8017 2.38838H8.19377C8.08994 2.38847 7.9874 2.41127 7.89332 2.45519C7.79925 2.49912 7.71593 2.56309 7.6492 2.64264L7.58754 2.72802L6.55059 4.41674C6.487 4.52046 6.39789 4.60614 6.29175 4.6656C6.18562 4.72506 6.06601 4.75632 5.94436 4.75638H3.57256C3.35446 4.75626 3.13846 4.79911 2.93692 4.88249C2.73538 4.96587 2.55224 5.08814 2.39797 5.24232C2.2437 5.3965 2.12132 5.57957 2.03783 5.78107C1.95433 5.98256 1.91136 6.19853 1.91136 6.41664V15.4295C1.91136 16.3459 2.65515 17.0897 3.57161 17.0897H16.3793C16.8196 17.0897 17.2419 16.9148 17.5533 16.6034C17.8646 16.2921 18.0396 15.8698 18.0396 15.4295V6.41664C18.0396 5.97631 17.8646 5.55402 17.5533 5.24266C17.2419 4.9313 16.8196 4.75638 16.3793 4.75638H14.0075C13.8835 4.75645 13.7616 4.72409 13.6539 4.66251C13.5462 4.60094 13.4565 4.51229 13.3937 4.40536L12.4146 2.73846C12.3519 2.63166 12.2623 2.5431 12.1548 2.48154C12.0473 2.41997 11.9256 2.38753 11.8017 2.38743M9.97546 6.17946C11.1077 6.17946 12.1936 6.62925 12.9943 7.42989C13.7949 8.23052 14.2447 9.31642 14.2447 10.4487C14.2447 11.581 13.7949 12.6669 12.9943 13.4675C12.1936 14.2681 11.1077 14.7179 9.97546 14.7179C8.84319 14.7179 7.75729 14.2681 6.95666 13.4675C6.15602 12.6669 5.70623 11.581 5.70623 10.4487C5.70623 9.31642 6.15602 8.23052 6.95666 7.42989C7.75729 6.62925 8.84319 6.17946 9.97546 6.17946ZM9.97546 7.60253C9.6017 7.60253 9.2316 7.67615 8.88628 7.81919C8.54097 7.96222 8.22722 8.17186 7.96293 8.43615C7.69864 8.70044 7.48899 9.0142 7.34596 9.35951C7.20292 9.70482 7.12931 10.0749 7.12931 10.4487C7.12931 10.8225 7.20292 11.1926 7.34596 11.5379C7.48899 11.8832 7.69864 12.1969 7.96293 12.4612C8.22722 12.7255 8.54097 12.9352 8.88628 13.0782C9.2316 13.2212 9.6017 13.2948 9.97546 13.2948C10.7303 13.2948 11.4542 12.995 11.988 12.4612C12.5218 11.9275 12.8216 11.2035 12.8216 10.4487C12.8216 9.69384 12.5218 8.96991 11.988 8.43615C11.4542 7.9024 10.7303 7.60253 9.97546 7.60253Z" fill="white"/>
</svg>
