<svg width="155" height="150" viewBox="0 0 155 150" fill="none" xmlns="http://www.w3.org/2000/svg">
    <g clip-path="url(#69iv4d7vza)">
        <path d="M98.724 33.624H90.53v69.829a8.338 8.338 0 0 1-5.153 7.708 8.354 8.354 0 0 1-3.194.635H19.537v.08a8.339 8.339 0 0 0 5.152 7.707 8.337 8.337 0 0 0 3.194.636h70.84a8.34 8.34 0 0 0 5.902-2.444 8.35 8.35 0 0 0 2.445-5.899V41.967a8.347 8.347 0 0 0-8.346-8.343zM137.567 144.593a.71.71 0 0 0 .724-.858.709.709 0 0 0-.211-.369l-.049-.193.02-.046a1.901 1.901 0 0 1 3.508.013c.574 1.381 1.304 2.765 1.484 4.225.079.646.046 1.3-.099 1.935a22.53 22.53 0 0 0 2.052-9.365 21.632 21.632 0 0 0-.135-2.428 22.575 22.575 0 0 0-.31-1.969 22.815 22.815 0 0 0-4.525-9.667 6.066 6.066 0 0 1-2.526-2.619 4.605 4.605 0 0 1-.421-1.265c.123.016.463-1.856.37-1.971.172-.26.479-.389.666-.643.93-1.261 2.213-1.041 2.882.673 1.43.722 1.444 1.918.567 3.069-.559.732-.635 1.723-1.125 2.506.05.065.103.127.153.192a22.944 22.944 0 0 1 2.397 3.796 9.541 9.541 0 0 1 .57-4.433c.546-1.316 1.568-2.424 2.469-3.561a1.96 1.96 0 0 1 3.49.962l.005.05a7.467 7.467 0 0 0-.392.24.96.96 0 0 0 .387 1.748l.02.003a9.594 9.594 0 0 1-.252 1.428c1.155 4.466-1.339 6.093-4.901 6.166l-.233.119a23.41 23.41 0 0 1 1.261 5.935 22.169 22.169 0 0 1-.016 3.589l.006-.043a5.87 5.87 0 0 1 2.006-3.39c1.543-1.268 3.724-1.734 5.389-2.753a1.105 1.105 0 0 1 1.595.461c.089.191.121.403.094.611l-.007.045a6.504 6.504 0 0 0-1.116.588.96.96 0 0 0 .387 1.748l.02.003.04.006a9.564 9.564 0 0 1-1.76 2.754c-.722 3.898-3.825 4.268-7.143 3.133h-.002a23.45 23.45 0 0 1-1.575 4.594h-5.624c-.02-.063-.038-.127-.056-.189a6.439 6.439 0 0 0 1.556-.093c-.417-.512-.834-1.028-1.252-1.539a.388.388 0 0 1-.026-.031c-.211-.262-.425-.522-.637-.783v-.001a9.376 9.376 0 0 1 .274-2.383h.001z" fill="#F2F2F2"/>
        <path d="M75.625 24.126a2.573 2.573 0 0 0 3.89.476l11.693 5.273L93.462 27 79.53 20.839a2.57 2.57 0 0 0-3.903 3.287z" fill="#F3CFBB"/>
        <path d="m125.803 27.414 1.16 6.568a2.232 2.232 0 0 1-2.024 2.613l-19.705 1.549-23.161-10.362 2.766-5.249 20.107 6.365 20.857-1.484z" fill="#1F74CA"/>
        <path d="M79.687 22.706H8.847A8.345 8.345 0 0 0 .5 31.05v69.909a8.345 8.345 0 0 0 8.346 8.343h70.84a8.345 8.345 0 0 0 8.347-8.343V31.049a8.345 8.345 0 0 0-8.346-8.343z" fill="#F2F2F2"/>
        <path d="M8.846 24.422a6.633 6.633 0 0 0-6.125 4.09 6.625 6.625 0 0 0-.505 2.537v69.908a6.627 6.627 0 0 0 6.63 6.628h45.212A32.26 32.26 0 0 0 86.316 75.34V31.05a6.624 6.624 0 0 0-4.093-6.123 6.633 6.633 0 0 0-2.537-.504H8.846z" fill="#fff"/>
        <path d="M64.07 45.638H24.307a1.376 1.376 0 1 1 0-2.75H64.07a1.376 1.376 0 0 1 .973 2.348 1.376 1.376 0 0 1-.973.402zM64.07 74.961H24.307a1.376 1.376 0 1 1 0-2.75H64.07a1.376 1.376 0 1 1 0 2.75zM80.216 60.31H8.162a1.376 1.376 0 1 1 0-2.75h72.054a1.376 1.376 0 0 1 0 2.75z" fill="#F2F2F2"/>
        <path d="m123.314 56.365-7.178 15.286 27.612-2.796-5.764-14.673-14.67 2.183zM129.733 144.22l-2.618-.022-1.158-10.329 3.863.033-.087 10.318z" fill="#F3CFBB"/>
        <path d="M121.348 148.381a1.172 1.172 0 0 0 1.16 1.18l5.205.044.911-1.846.335 1.855 1.964.018-.496-6.619-.683-.045-2.787-.192-.899-.06-.016 1.872-4.181 2.835a1.17 1.17 0 0 0-.513.958z" fill="#1D2939"/>
        <path d="m100.761 144.232-2.496-.79 1.928-10.213 3.684 1.165-3.116 9.838z" fill="#F3CFBB"/>
        <path d="M91.523 145.747a1.17 1.17 0 0 0 .762 1.469l4.963 1.57 1.413-1.497-.225 1.872 1.872.594 1.471-6.472-.64-.244-2.607-1.003-.842-.321-.566 1.785-4.83 1.482a1.166 1.166 0 0 0-.771.765zM142.49 64.557l-25.106 4.598s-4.027 3.01-2.95 4.09c1.078 1.078 1.245.91.537 1.618-.708.707-2.238 1.653-2.253 2.272-.015.619-11.25 28.382-11.25 28.382s1.248-.623.312.312c-.936.936-.936 1.709-.936 1.709l-4.37 29.486 7.096.418 6.948-26.882 15.498-25.113s1.538 22.395 1.602 23.884c.065 1.49 1.001-.382.065 1.49-.937 1.871-1.561.623-.937 1.871.625 1.248-2.248 26.651-2.248 26.651h6.477l13.89-52.654s4.942-15.053-2.375-22.132z" fill="#1D2939"/>
        <path d="m135.094 22.44-10.056-1.045-2.606 3.382-3.035 1.616a7.57 7.57 0 0 0-3.999 7.163l3.547 20.626s-2.997 6.744-.936 8.422c2.06 1.679-1.593 5.836 2.808 3.744 4.402-2.093 23.406.312 23.406.312l-4.057-11.543 3.031-11.341.334-9.51a8.058 8.058 0 0 0-5.724-7.994l-.424-.128-2.289-3.704z" fill="#1F74CA"/>
        <path d="M148.94 14.733c.065 2.834-.994 5.578-2.516 7.987-.452-1.406-1.265-2.687-2.113-3.907a12.151 12.151 0 0 1-1.295 7.703 1.61 1.61 0 0 1-.138.09c-1.241.745-2.814 1.047-4.155.508 2.772-2.987 3.125-7.937.8-11.288-.658-.95-1.509-1.791-1.916-2.873-.644-1.727-.025-3.628.365-5.428.365-1.675.429-3.669-.696-4.896a1.183 1.183 0 0 1 1.083-.499c.694.098 1.198.7 1.52 1.32.321.621.533 1.309.981 1.844.829 1.003 2.242 1.24 3.432 1.769 2.883 1.284 4.578 4.518 4.648 7.67z" fill="#1D2939"/>
        <path d="M74.666 149.629a.369.369 0 0 0 .372.371h79.047a.376.376 0 0 0 .263-.108.376.376 0 0 0 0-.525.373.373 0 0 0-.263-.109H75.038a.366.366 0 0 0-.263.108.377.377 0 0 0-.109.263z" fill="#CCC"/>
        <path d="M149.562 80.404a2.808 2.808 0 1 0 .001-5.617 2.808 2.808 0 0 0-.001 5.617z" fill="#1F74CA"/>
        <path d="M124.673 13.113c.165-.576-.971 2.947-.423 3.01 2.496.287 5.921 1.777 7.659 2.472.079-.01.157-.018.233-.03.187-.02.368-.05.548-.084 4.047-.765 5.604-6.98 5.604-7.037 0-.279-.671-7.952-1.728-8.066a7.776 7.776 0 0 0-.836-.045h-2.622a12.163 12.163 0 0 0-1.646-.238h-.004c-5.279-.402-9.442 2.814-9.053 6.727l.009.014c.113.168.212.327.3.48.085.142.156.278.218.408.482 1-.755 2.257.065 2.492 1.091.312-2.869 10.573 1.449 10.573-2.101.596-.228-9.086.227-10.676z" fill="#1D2939"/>
        <path d="M129.385 19.134a6.207 6.207 0 0 0 6.209-6.206 6.207 6.207 0 0 0-6.209-6.205 6.207 6.207 0 1 0 0 12.411z" fill="#F3CFBB"/>
        <path d="M122.405 10.16c.104.055.205.105.309.155.108.052.216.105.324.152 2.079.943 3.771 1.047 4.798-.306a5.754 5.754 0 0 1 .472-2.067c-.05.73.143 1.457.548 2.067h2.067c2.13 1.412 3.223 1.56 1.745 6.198-.412 1.292-2.05 8.813-1.406 9.928.187-.02 2.171-8.258 2.35-8.291 4.048-.766 6.619-7.431 6.29-7.808a6.936 6.936 0 0 0-.721-3.091 7.107 7.107 0 0 0-2.702-2.94 12.571 12.571 0 0 0-2.16-.81l-.053-.014a12.734 12.734 0 0 0-2.148-.386 1.098 1.098 0 0 0-.656.148l-.004.002c-.121.07-.225.163-.309.275a1.056 1.056 0 0 0-.226.656h-2.302c-.085 0-.17.002-.255.007a6.174 6.174 0 0 0-5.952 5.8 5.87 5.87 0 0 0-.009.326z" fill="#1D2939"/>
        <path d="M135.98 8.177a4.09 4.09 0 1 0-4.09-4.089 4.09 4.09 0 0 0 4.09 4.089z" fill="#1D2939"/>
        <path d="M149.593 78.754a2.563 2.563 0 0 0 .285-2.139 2.56 2.56 0 0 0-1.445-1.603l.021-12.822-3.547-.877.088 15.228a2.566 2.566 0 0 0 1.316 3.149 2.57 2.57 0 0 0 3.282-.936z" fill="#F3CFBB"/>
        <path d="m132.031 31.656 5.519-3.75a2.225 2.225 0 0 1 1.778-.323 2.23 2.23 0 0 1 1.436 1.098l9.488 17.331.036 25.365-5.924-.371-2.432-20.941-9.901-18.41z" fill="#1F74CA"/>
        <path d="M89.645 89.18H30.662a4.838 4.838 0 0 0-4.838 4.834 4.834 4.834 0 0 0 4.837 4.836h58.984a4.838 4.838 0 0 0 4.837-4.836 4.834 4.834 0 0 0-4.837-4.835z" fill="#fff"/>
        <path d="M89.644 99.162H30.661a5.15 5.15 0 0 1-5.15-5.148 5.146 5.146 0 0 1 5.15-5.147h58.983a5.15 5.15 0 0 1 5.15 5.147 5.146 5.146 0 0 1-5.15 5.148zm-58.983-9.67a4.526 4.526 0 0 0-4.525 4.522 4.522 4.522 0 0 0 4.525 4.524h58.983a4.526 4.526 0 0 0 4.526-4.524 4.522 4.522 0 0 0-4.526-4.523H30.661zM93.123 110.28h-26.03a1.375 1.375 0 1 1 0-2.75h26.03a1.376 1.376 0 0 1 0 2.75z" fill="#1F74CA"/>
    </g>
    <defs>
        <clipPath id="69iv4d7vza">
            <path fill="#fff" transform="translate(.5)" d="M0 0h154v150H0z"/>
        </clipPath>
    </defs>
</svg>
