<svg width="19" height="19" viewBox="0 0 19 19" fill="none" xmlns="http://www.w3.org/2000/svg">
<path d="M6.86523 11.3445C6.86523 12.3658 7.64898 13.1891 8.62273 13.1891H10.6098C11.4569 13.1891 12.1457 12.4687 12.1457 11.582C12.1457 10.6162 11.7261 10.2758 11.1007 10.0541L7.91023 8.94579C7.28482 8.72412 6.86523 8.38371 6.86523 7.41787C6.86523 6.53121 7.55398 5.81079 8.40107 5.81079H10.3882C11.3619 5.81079 12.1457 6.63412 12.1457 7.65537" stroke="#475467" stroke-width="1.5" stroke-linecap="round" stroke-linejoin="round"/>
<path d="M9.5 4.75V14.25" stroke="#475467" stroke-width="1.5" stroke-linecap="round" stroke-linejoin="round"/>
<path d="M9.50016 17.4166C13.8724 17.4166 17.4168 13.8722 17.4168 9.49992C17.4168 5.12766 13.8724 1.58325 9.50016 1.58325C5.12791 1.58325 1.5835 5.12766 1.5835 9.49992C1.5835 13.8722 5.12791 17.4166 9.50016 17.4166Z" stroke="#475467" stroke-width="1.5" stroke-linecap="round" stroke-linejoin="round"/>
</svg>
