<svg width="20" height="20" viewBox="0 0 20 20" fill="none" xmlns="http://www.w3.org/2000/svg">
<path d="M17.5003 7.49967H10.0003C9.50033 7.49967 9.16699 7.16634 9.16699 6.66634C9.16699 6.16634 9.50033 5.83301 10.0003 5.83301H17.5003C18.0003 5.83301 18.3337 6.16634 18.3337 6.66634C18.3337 7.16634 18.0003 7.49967 17.5003 7.49967Z" fill="#344054"/>
<path d="M5.00033 7.49967H2.50033C2.00033 7.49967 1.66699 7.08301 1.66699 6.66634C1.66699 6.24967 2.00033 5.83301 2.50033 5.83301H5.00033C5.50033 5.83301 5.83366 6.16634 5.83366 6.66634C5.83366 7.16634 5.50033 7.49967 5.00033 7.49967Z" fill="#344054"/>
<path d="M7.50033 9.99967C5.66699 9.99967 4.16699 8.49967 4.16699 6.66634C4.16699 4.83301 5.66699 3.33301 7.50033 3.33301C9.33366 3.33301 10.8337 4.83301 10.8337 6.66634C10.8337 8.49967 9.33366 9.99967 7.50033 9.99967ZM7.50033 4.99967C6.58366 4.99967 5.83366 5.74967 5.83366 6.66634C5.83366 7.58301 6.58366 8.33301 7.50033 8.33301C8.41699 8.33301 9.16699 7.58301 9.16699 6.66634C9.16699 5.74967 8.41699 4.99967 7.50033 4.99967Z" fill="#344054"/>
<path d="M10.0003 14.1667H2.50033C2.00033 14.1667 1.66699 13.8333 1.66699 13.3333C1.66699 12.8333 2.00033 12.5 2.50033 12.5H10.0003C10.5003 12.5 10.8337 12.8333 10.8337 13.3333C10.8337 13.8333 10.5003 14.1667 10.0003 14.1667Z" fill="#344054"/>
<path d="M17.5003 14.1667H15.0003C14.5003 14.1667 14.167 13.8333 14.167 13.3333C14.167 12.8333 14.5003 12.5 15.0003 12.5H17.5003C18.0003 12.5 18.3337 12.8333 18.3337 13.3333C18.3337 13.8333 18.0003 14.1667 17.5003 14.1667Z" fill="#344054"/>
<path d="M12.5003 16.6667C10.667 16.6667 9.16699 15.1667 9.16699 13.3333C9.16699 11.5 10.667 10 12.5003 10C14.3337 10 15.8337 11.5 15.8337 13.3333C15.8337 15.1667 14.3337 16.6667 12.5003 16.6667ZM12.5003 11.6667C11.5837 11.6667 10.8337 12.4167 10.8337 13.3333C10.8337 14.25 11.5837 15 12.5003 15C13.417 15 14.167 14.25 14.167 13.3333C14.167 12.4167 13.417 11.6667 12.5003 11.6667Z" fill="#344054"/>
</svg>
