<svg width="18" height="18" viewBox="0 0 18 18" fill="none" xmlns="http://www.w3.org/2000/svg">
<path d="M16.5 6.75013V11.2501C16.5 13.1251 16.125 14.4376 15.285 15.2851L10.5 10.5001L16.2975 4.70264C16.4325 5.29514 16.5 5.97013 16.5 6.75013Z" stroke="#475467" stroke-linecap="round" stroke-linejoin="round"/>
<path d="M16.2975 4.7025L4.70249 16.2975C2.44499 15.78 1.5 14.22 1.5 11.25V6.75C1.5 3 3 1.5 6.75 1.5H11.25C14.22 1.5 15.78 2.445 16.2975 4.7025Z" stroke="#475467" stroke-linecap="round" stroke-linejoin="round"/>
<path d="M15.285 15.285C14.4375 16.125 13.125 16.5 11.25 16.5H6.75002C5.97002 16.5 5.29501 16.4325 4.70251 16.2975L10.5 10.5L15.285 15.285Z" stroke="#475467" stroke-linecap="round" stroke-linejoin="round"/>
<path d="M4.67995 5.98504C5.18995 3.78754 8.48996 3.78754 8.99996 5.98504C9.29246 7.27504 8.48245 8.37004 7.76995 9.04504C7.25245 9.54004 6.43496 9.54004 5.90996 9.04504C5.19746 8.37004 4.37995 7.27504 4.67995 5.98504Z" stroke="#475467"/>
<path d="M6.82095 6.5249H6.82769" stroke="#475467" stroke-linecap="round" stroke-linejoin="round"/>
</svg>
