<svg width="16" height="18" viewBox="0 0 16 18" fill="none" xmlns="http://www.w3.org/2000/svg">
<path d="M12.5833 0.751953C13.0368 0.752036 13.4831 0.864316 13.8827 1.07878C14.2822 1.29325 14.6224 1.60324 14.873 1.98111C15.1237 2.35899 15.2769 2.79301 15.3191 3.24448C15.3613 3.69595 15.2911 4.15085 15.1148 4.56861C14.9385 4.98637 14.6615 5.35402 14.3087 5.63878C13.9558 5.92354 13.538 6.11656 13.0924 6.20063C12.6468 6.28471 12.1874 6.25722 11.755 6.12063C11.3226 5.98404 10.9307 5.74258 10.6143 5.41779L5.61208 8.27779C5.741 8.75103 5.741 9.25013 5.61208 9.72337L10.6153 12.5825C11.0822 12.1037 11.7077 11.8116 12.3745 11.761C13.0413 11.7103 13.7037 11.9046 14.2376 12.3073C14.7715 12.71 15.1402 13.2936 15.2747 13.9487C15.4092 14.6038 15.3001 15.2854 14.968 15.8659C14.636 16.4464 14.1036 16.8858 13.4708 17.102C12.8379 17.3181 12.1479 17.296 11.5302 17.0399C10.9124 16.7838 10.4092 16.3112 10.1149 15.7107C9.82061 15.1102 9.75537 14.4229 9.93142 13.7778L4.92917 10.9178C4.54775 11.3093 4.05825 11.5782 3.52323 11.6901C2.9882 11.802 2.43197 11.7518 1.92562 11.5459C1.41927 11.3401 0.985817 10.9879 0.680659 10.5344C0.375501 10.0809 0.212505 9.54672 0.212505 9.00012C0.212505 8.45352 0.375501 7.91934 0.680659 7.46586C0.985817 7.01237 1.41927 6.66019 1.92562 6.45432C2.43197 6.24846 2.9882 6.19826 3.52323 6.31015C4.05825 6.42204 4.54775 6.69093 4.92917 7.08245L9.93142 4.22245C9.82091 3.81486 9.80577 3.38729 9.88715 2.97289C9.96854 2.5585 10.1443 2.16842 10.4007 1.8329C10.6572 1.49737 10.9875 1.22542 11.366 1.03812C11.7445 0.850824 12.161 0.752301 12.5833 0.751953Z" fill="#667085"/>
</svg>
