<svg width="61" height="60" viewBox="0 0 61 60" fill="none" xmlns="http://www.w3.org/2000/svg">
<g clip-path="url(#clip0_13317_1866)">
<path d="M16.1255 48.7501C12.123 48.7501 8.56298 46.1876 7.27048 42.3726L7.18298 42.0851C6.87798 41.0751 6.75048 40.2251 6.75048 39.3751V22.3301L0.685482 42.5751C-0.0945185 45.5526 1.68298 48.6401 4.66548 49.4626L43.323 59.8151C43.8055 59.9401 44.288 60.0001 44.763 60.0001C47.253 60.0001 49.528 58.3476 50.1655 55.9126L52.418 48.7501H16.1255Z" fill="#98A2B3"/>
<path d="M23 22.5C25.7575 22.5 28 20.2575 28 17.5C28 14.7425 25.7575 12.5 23 12.5C20.2425 12.5 18 14.7425 18 17.5C18 20.2575 20.2425 22.5 23 22.5Z" fill="#98A2B3"/>
<path d="M54.25 5H16.75C13.305 5 10.5 7.805 10.5 11.25V38.75C10.5 42.195 13.305 45 16.75 45H54.25C57.695 45 60.5 42.195 60.5 38.75V11.25C60.5 7.805 57.695 5 54.25 5ZM16.75 10H54.25C54.94 10 55.5 10.56 55.5 11.25V28.9975L47.6025 19.7825C46.765 18.8 45.5525 18.275 44.25 18.245C42.955 18.2525 41.74 18.8275 40.91 19.8225L31.625 30.9675L28.6 27.95C26.89 26.24 24.1075 26.24 22.4 27.95L15.5 34.8475V11.25C15.5 10.56 16.06 10 16.75 10Z" fill="#98A2B3"/>
</g>
<defs>
<clipPath id="clip0_13317_1866">
<rect width="60" height="60" fill="white" transform="translate(0.5)"/>
</clipPath>
</defs>
</svg>
