<svg width="227" height="150" viewBox="0 0 227 150" fill="none" xmlns="http://www.w3.org/2000/svg">
<path opacity="0.4" d="M81.5921 86.3262C89.331 72.7194 104.092 62.2715 119.719 63.278C108.192 75.8068 101.471 92.0071 100.744 109.012C100.487 115.572 100.887 122.893 96.5283 127.805C93.8173 130.861 89.6731 132.341 85.5988 132.652C81.5244 132.962 77.4506 132.226 73.4304 131.494L72.4547 131.793C72.0836 116.146 73.8534 99.9333 81.5921 86.3262Z" fill="#1F74CA"/>
<path d="M119.743 63.6059C108.188 69.1661 98.3342 78.4526 92.2855 89.778C90.9777 92.2265 89.8641 94.824 89.3786 97.5705C88.8932 100.317 89.2322 102.933 90.171 105.543C91.0294 107.929 92.1839 110.27 92.4471 112.823C92.7246 115.514 91.735 118.03 89.951 120.027C87.7694 122.471 84.8397 123.984 81.9231 125.365C78.6849 126.899 75.2971 128.44 73.0036 131.302C72.7256 131.649 72.2036 131.197 72.4814 130.851C76.4719 125.872 83.3024 124.936 88.039 120.925C90.2491 119.054 91.9085 116.505 91.8038 113.519C91.7122 110.908 90.5238 108.492 89.6338 106.084C88.6992 103.555 88.2332 101.013 88.5684 98.317C88.9112 95.5593 89.9253 92.9127 91.1648 90.4414C93.9598 84.8682 97.7849 79.7517 102.167 75.3288C107.203 70.2447 113.072 66.0593 119.52 62.9534C119.919 62.7612 120.14 63.4154 119.744 63.6062L119.743 63.6059Z" fill="white"/>
<path d="M94.0573 85.9928C92.2856 84.6982 91.0321 82.8162 90.5205 80.683C90.0089 78.5498 90.2727 76.3043 91.2646 74.3476C91.4666 73.9523 92.0907 74.2477 91.8882 74.6435C90.9612 76.4639 90.7158 78.5556 91.1963 80.541C91.6767 82.5265 92.8514 84.2748 94.5083 85.4705C94.868 85.7316 94.415 86.2517 94.0573 85.9926V85.9928Z" fill="white"/>
<path d="M89.5759 104.391C94.0149 103.743 98.0464 101.446 100.866 97.9585C101.146 97.6128 101.668 98.0638 101.389 98.4093C98.4473 102.033 94.2471 104.415 89.6262 105.079C89.1858 105.142 89.1377 104.454 89.5756 104.391L89.5759 104.391Z" fill="white"/>
<path d="M107.543 71.0931C108.124 71.7368 108.856 72.2262 109.673 72.5174C110.49 72.8085 111.366 72.8923 112.224 72.7611C112.663 72.6926 112.711 73.3809 112.274 73.4493C111.326 73.5898 110.358 73.4961 109.455 73.1764C108.552 72.8568 107.74 72.3209 107.092 71.6155C107.025 71.5543 106.984 71.4698 106.978 71.3794C106.971 71.289 106.999 71.1995 107.056 71.1291C107.116 71.0603 107.201 71.0179 107.292 71.0112C107.383 71.0045 107.473 71.034 107.543 71.0933V71.0931Z" fill="white"/>
<path opacity="0.4" d="M150.811 106.203C150.538 106.253 150.265 106.304 149.989 106.36C146.32 107.06 142.714 108.056 139.206 109.339C138.933 109.434 138.658 109.535 138.388 109.637C129.97 112.819 122.216 117.536 115.521 123.547C112.859 125.941 110.383 128.535 108.114 131.305C104.981 135.13 101.89 139.528 97.796 142.022C97.3718 142.287 96.9316 142.525 96.478 142.736L72.896 132.96C72.8535 132.911 72.8087 132.867 72.7659 132.818L71.8066 132.47C71.9137 132.319 72.0279 132.165 72.135 132.014C72.1967 131.926 72.2636 131.841 72.3249 131.753C72.3676 131.695 72.4108 131.637 72.4462 131.583C72.4604 131.563 72.4749 131.544 72.4868 131.53C72.5221 131.476 72.5606 131.428 72.5938 131.379C73.23 130.515 73.8734 129.653 74.5238 128.795C74.526 128.789 74.526 128.789 74.5335 128.786C79.5071 122.257 85.0694 116.086 91.3923 110.954C91.5822 110.8 91.7748 110.64 91.9758 110.491C94.839 108.193 97.8853 106.133 101.084 104.331C102.839 103.351 104.642 102.459 106.487 101.661C111.257 99.6074 116.322 98.3164 121.493 97.8357C131.804 96.8787 142.305 99.2283 150.213 105.702C150.414 105.868 150.611 106.032 150.811 106.203Z" fill="#1F74CA"/>
<path d="M150.634 106.48C138.058 103.965 124.598 105.451 112.946 110.853C110.427 112.021 107.974 113.425 105.931 115.326C103.889 117.227 102.584 119.52 101.762 122.169C101.01 124.59 100.522 127.154 99.1941 129.351C97.7946 131.667 95.4884 133.079 92.8619 133.601C89.6484 134.238 86.3973 133.684 83.2369 133.031C79.7278 132.307 76.0943 131.499 72.5393 132.403C72.1087 132.513 71.9637 131.838 72.3938 131.729C78.579 130.155 84.5957 133.518 90.7945 133.166C93.6866 133.002 96.5465 131.966 98.2616 129.519C99.7614 127.378 100.267 124.735 101.007 122.276C101.784 119.695 102.944 117.385 104.835 115.434C106.77 113.438 109.174 111.935 111.652 110.708C117.241 107.94 123.377 106.157 129.539 105.262C136.623 104.234 143.83 104.423 150.849 105.824C151.283 105.911 151.066 106.566 150.635 106.48L150.634 106.48Z" fill="white"/>
<path d="M116.64 108.897C116.006 106.798 116.139 104.541 117.015 102.53C117.892 100.519 119.455 98.8847 121.425 97.9193C121.825 97.7255 122.145 98.3367 121.745 98.5308C119.908 99.4263 118.452 100.949 117.64 102.823C116.828 104.697 116.712 106.8 117.315 108.752C117.445 109.176 116.769 109.319 116.64 108.898L116.64 108.897Z" fill="white"/>
<path d="M101.981 120.891C105.916 123.045 110.519 123.637 114.871 122.55C115.302 122.442 115.447 123.116 115.017 123.224C110.485 124.348 105.697 123.722 101.606 121.472C101.217 121.256 101.593 120.678 101.981 120.891Z" fill="white"/>
<path d="M136.384 105.117C136.46 105.98 136.75 106.812 137.227 107.536C137.704 108.26 138.353 108.854 139.117 109.265C139.509 109.475 139.132 110.053 138.743 109.845C137.901 109.387 137.185 108.729 136.656 107.931C136.127 107.132 135.802 106.216 135.71 105.262C135.693 105.173 135.711 105.081 135.76 105.005C135.81 104.929 135.886 104.874 135.974 104.852C136.063 104.833 136.157 104.851 136.233 104.9C136.31 104.95 136.364 105.027 136.384 105.117V105.117Z" fill="white"/>
<path d="M105.889 122.333C102.587 106.372 98.4588 101.05 98.4588 101.05L96.8823 99.8278L94.9858 98.3553L94.995 98.1655L94.5452 98.0127L94.4395 97.9306L94.2665 97.7977L94.2387 97.8276L94.1798 97.8883L85.5977 94.9724L74.7097 91.2758L69.6666 84.7261C68.8455 83.6593 67.7883 82.797 66.578 82.2069C65.3676 81.6169 64.037 81.315 62.6904 81.3249L46.5884 81.4436C44.4112 81.4596 42.3188 82.2891 40.7225 83.7689L30.1389 93.5814L13.6476 101.454L13.6198 101.426L13.4467 101.55L10.8993 102.768L11.0045 103.315L9.42748 104.453C9.42748 104.453 5.29926 109.405 1.99715 124.256C1.15702 128.035 0.743487 136.142 0.594168 146.131C0.58668 146.636 0.679763 147.138 0.868007 147.607C1.05625 148.076 1.3359 148.503 1.69069 148.863C2.04549 149.223 2.46835 149.509 2.93469 149.704C3.40103 149.899 3.90155 150 4.40714 150H103.483C103.988 150 104.489 149.899 104.955 149.704C105.421 149.509 105.843 149.223 106.198 148.864C106.553 148.504 106.833 148.078 107.021 147.609C107.21 147.141 107.303 146.639 107.296 146.134C107.15 135.265 106.737 126.431 105.889 122.333Z" fill="#0F2033"/>
<path d="M117.191 13.9196C115.489 13.9123 113.803 14.2409 112.229 14.8867C110.655 15.5325 109.224 16.4827 108.018 17.6827C106.812 18.8827 105.856 20.309 105.203 21.8796C104.55 23.4501 104.214 25.1341 104.214 26.8349C104.214 28.5356 104.55 30.2196 105.203 31.7902C105.856 33.3607 106.812 34.787 108.018 35.987C109.224 37.187 110.655 38.1372 112.229 38.783C113.803 39.4288 115.489 39.7574 117.191 39.7502H213.486C215.188 39.7574 216.874 39.4288 218.448 38.783C220.022 38.1372 221.453 37.187 222.659 35.987C223.865 34.787 224.821 33.3607 225.474 31.7902C226.127 30.2196 226.463 28.5356 226.463 26.8349C226.463 25.1341 226.127 23.4501 225.474 21.8796C224.821 20.309 223.865 18.8827 222.659 17.6827C221.453 16.4827 220.022 15.5325 218.448 14.8867C216.874 14.2409 215.188 13.9123 213.486 13.9196H117.191Z" fill="#E5E5E5"/>
<path d="M117.191 16.5332C114.457 16.5332 111.836 17.6185 109.903 19.5505C107.97 21.4824 106.884 24.1026 106.884 26.8347C106.884 29.5669 107.97 32.1871 109.903 34.119C111.836 36.0509 114.457 37.1363 117.191 37.1363H213.486C216.22 37.1363 218.841 36.0509 220.774 34.119C222.707 32.1871 223.793 29.5669 223.793 26.8347C223.793 24.1026 222.707 21.4824 220.774 19.5505C218.841 17.6185 216.22 16.5332 213.486 16.5332H117.191Z" fill="white"/>
<path d="M57.168 75.2788C68.8186 75.2788 78.2633 65.8385 78.2633 54.1934C78.2633 42.5482 68.8186 33.1079 57.168 33.1079C45.5174 33.1079 36.0728 42.5482 36.0728 54.1934C36.0728 65.8385 45.5174 75.2788 57.168 75.2788Z" fill="#F3CFBB"/>
<path d="M51.7711 74.2464C51.6811 74.048 51.5912 73.849 51.5015 73.6494C51.5361 73.6494 51.5703 73.6556 51.6047 73.6563L51.7711 74.2464Z" fill="#2F2E41"/>
<path d="M35.4858 34.067C36.5527 33.2164 37.7997 32.4336 39.164 32.4773C40.5283 32.5209 41.9113 33.7526 41.6288 35.0873C44.1344 30.6528 48.1228 27.2421 52.8937 25.4541C57.6646 23.666 62.9132 23.6148 67.7181 25.3095C71.1085 26.5051 74.4331 28.8969 75.212 32.4042C75.4119 33.3058 75.4549 34.2922 76.0175 35.0235C76.7268 35.9456 78.0828 36.1542 79.2014 35.8303L79.2348 35.8203C79.4236 35.7561 79.6273 35.7499 79.8196 35.8025C80.0119 35.8552 80.184 35.9643 80.3137 36.1157C80.4433 36.2671 80.5246 36.4539 80.547 36.6519C80.5693 36.85 80.5318 37.0502 80.4391 37.2267L79.4798 39.0148C80.6891 39.2842 81.9456 39.2575 83.1423 38.937C83.3411 38.8849 83.5512 38.8955 83.7437 38.9674C83.9362 39.0393 84.1017 39.169 84.2176 39.3387C84.3334 39.5084 84.3939 39.7097 84.3907 39.9151C84.3876 40.1205 84.3209 40.3199 84.1999 40.4859C81.0366 44.8268 75.7521 47.63 70.36 47.597C66.5271 47.5733 62.6548 46.2533 58.9244 47.1343C57.4813 47.4751 56.1329 48.1346 54.978 49.0642C53.8231 49.9939 52.8911 51.1702 52.2504 52.5069C51.6097 53.8435 51.2765 55.3066 51.2753 56.7887C51.274 58.2708 51.6048 59.7345 52.2433 61.0722C51.0974 59.8193 48.882 60.1159 47.7091 61.3443C46.5361 62.5727 46.2335 64.4053 46.3515 66.0997C46.5321 68.6898 47.5474 71.13 48.6176 73.5057C39.6442 73.2233 31.1563 66.9313 28.2993 58.4213C25.4293 49.8763 28.436 39.6882 35.4858 34.067Z" fill="#2F2E41"/>
<path opacity="0.2" d="M21.3555 117.514L27.2722 149.691L30.8224 150L21.3555 117.514Z" fill="#344054"/>
<path opacity="0.2" d="M86.5294 115.087L80.6127 149.668L77.0625 150L86.5294 115.087Z" fill="#344054"/>
<path d="M40.5327 23.2373C39.3982 23.7119 38.2145 23.192 37.7179 22.0034C37.2139 20.7969 37.6847 19.572 38.8372 19.0911C39.9898 18.6101 41.1527 19.1302 41.6648 20.356C42.1695 21.564 41.704 22.7487 40.5327 23.2373ZM38.3596 16.7164L37.4575 17.0929C37.2322 17.1858 36.9802 17.1908 36.7513 17.1069C36.5225 17.0231 36.3335 16.8564 36.2216 16.64L36.177 16.5526C35.2066 14.8032 35.0952 12.6767 35.8485 10.236C36.5462 8.04661 36.836 6.50665 36.252 5.11073C35.5783 3.49722 34.1393 2.99253 32.3047 3.72454C31.5925 4.02162 31.3665 4.01687 30.8065 4.57211C30.6847 4.69434 30.5395 4.7908 30.3796 4.85574C30.2197 4.92068 30.0483 4.95277 29.8757 4.95009C29.7089 4.94813 29.5441 4.9126 29.3913 4.84562C29.2385 4.77864 29.1007 4.68159 28.9862 4.56024C28.7655 4.32636 28.6418 4.01743 28.6402 3.6959C28.6385 3.37437 28.7591 3.06421 28.9774 2.82809C29.919 1.84377 31.0544 1.06518 32.3121 0.541424C36.2544 -1.10388 38.2388 1.32445 39.147 3.49913C40.0353 5.6254 39.5356 7.59815 38.7328 10.1532C38.06 12.2764 38.0992 13.8493 38.8633 15.4137C38.9185 15.532 38.9492 15.6602 38.9536 15.7906C38.958 15.921 38.9359 16.051 38.8888 16.1727C38.8417 16.2944 38.7704 16.4053 38.6793 16.4987C38.5882 16.5922 38.4791 16.6663 38.3586 16.7166L38.3596 16.7164Z" fill="#1F74CA"/>
<path d="M138.461 32.9948H119.302C119.179 32.9948 119.062 32.9462 118.976 32.8597C118.889 32.7732 118.84 32.6559 118.84 32.5335C118.84 32.4112 118.889 32.2939 118.976 32.2074C119.062 32.1209 119.179 32.0723 119.302 32.0723H138.461C138.583 32.0723 138.701 32.1209 138.787 32.2074C138.874 32.2939 138.922 32.4112 138.922 32.5335C138.922 32.6559 138.874 32.7732 138.787 32.8597C138.701 32.9462 138.583 32.9948 138.461 32.9948Z" fill="#1F74CA"/>
<path d="M162.765 33.1486H143.606C143.545 33.1486 143.485 33.1367 143.429 33.1135C143.373 33.0903 143.323 33.0564 143.28 33.0135C143.237 32.9707 143.203 32.9198 143.18 32.8639C143.156 32.8079 143.145 32.7479 143.145 32.6873C143.145 32.6268 143.156 32.5668 143.18 32.5108C143.203 32.4549 143.237 32.404 143.28 32.3612C143.323 32.3183 143.373 32.2844 143.429 32.2612C143.485 32.238 143.545 32.2261 143.606 32.2261H162.765C162.887 32.2261 163.005 32.2747 163.091 32.3612C163.178 32.4477 163.227 32.565 163.227 32.6873C163.227 32.8097 163.178 32.927 163.091 33.0135C163.005 33.1 162.887 33.1486 162.765 33.1486Z" fill="#1F74CA"/>
<path d="M187.07 33.3024H167.911C167.788 33.3024 167.671 33.2538 167.584 33.1673C167.498 33.0808 167.449 32.9635 167.449 32.8412C167.449 32.7188 167.498 32.6015 167.584 32.515C167.671 32.4285 167.788 32.3799 167.911 32.3799H187.07C187.13 32.3799 187.19 32.3918 187.246 32.415C187.302 32.4382 187.353 32.4722 187.396 32.515C187.439 32.5578 187.473 32.6087 187.496 32.6646C187.519 32.7206 187.531 32.7806 187.531 32.8412C187.531 32.9017 187.519 32.9617 187.496 33.0177C187.473 33.0736 187.439 33.1245 187.396 33.1673C187.353 33.2102 187.302 33.2441 187.246 33.2673C187.19 33.2905 187.13 33.3024 187.07 33.3024Z" fill="#1F74CA"/>
<path d="M211.374 33.4562H192.214C192.092 33.4562 191.975 33.4076 191.888 33.3211C191.802 33.2346 191.753 33.1173 191.753 32.995C191.753 32.8726 191.802 32.7553 191.888 32.6688C191.975 32.5823 192.092 32.5337 192.214 32.5337H211.374C211.434 32.5337 211.494 32.5456 211.55 32.5688C211.606 32.592 211.657 32.626 211.7 32.6688C211.743 32.7116 211.777 32.7625 211.8 32.8184C211.823 32.8744 211.835 32.9344 211.835 32.995C211.835 33.0555 211.823 33.1155 211.8 33.1715C211.777 33.2275 211.743 33.2783 211.7 33.3211C211.657 33.364 211.606 33.3979 211.55 33.4211C211.494 33.4443 211.434 33.4562 211.374 33.4562Z" fill="#1F74CA"/>
<path d="M128.839 28.7498C130.806 28.7498 132.4 27.1563 132.4 25.1906C132.4 23.2249 130.806 21.6313 128.839 21.6313C126.873 21.6313 125.278 23.2249 125.278 25.1906C125.278 27.1563 126.873 28.7498 128.839 28.7498Z" fill="#1F74CA"/>
<path d="M153.29 28.7498C155.257 28.7498 156.851 27.1563 156.851 25.1906C156.851 23.2249 155.257 21.6313 153.29 21.6313C151.324 21.6313 149.729 23.2249 149.729 25.1906C149.729 27.1563 151.324 28.7498 153.29 28.7498Z" fill="#1F74CA"/>
<path d="M177.742 28.7498C179.708 28.7498 181.302 27.1563 181.302 25.1906C181.302 23.2249 179.708 21.6313 177.742 21.6313C175.775 21.6313 174.181 23.2249 174.181 25.1906C174.181 27.1563 175.775 28.7498 177.742 28.7498Z" fill="#1F74CA"/>
<path d="M202.193 28.7498C204.159 28.7498 205.754 27.1563 205.754 25.1906C205.754 23.2249 204.159 21.6313 202.193 21.6313C200.226 21.6313 198.632 23.2249 198.632 25.1906C198.632 27.1563 200.226 28.7498 202.193 28.7498Z" fill="#1F74CA"/>
</svg>
