<svg width="217" height="108" viewBox="0 0 217 108" fill="none" xmlns="http://www.w3.org/2000/svg">
<g clip-path="url(#clip0_7438_83929)">
<path d="M57.6684 51.5255H57.2654V40.5003C57.2654 39.6623 57.1002 38.8325 56.7791 38.0583C56.4581 37.2841 55.9875 36.5807 55.3943 35.9881C54.8011 35.3956 54.0968 34.9256 53.3217 34.6049C52.5466 34.2842 51.7159 34.1191 50.877 34.1191H27.4915C25.7972 34.1191 24.1723 34.7914 22.9742 35.9881C21.7761 37.1848 21.103 38.8079 21.103 40.5002V100.986C21.103 101.824 21.2683 102.653 21.5893 103.427C21.9104 104.202 22.3809 104.905 22.9742 105.498C23.5674 106.09 24.2717 106.56 25.0467 106.881C25.8218 107.202 26.6526 107.367 27.4915 107.367H50.8769C52.5713 107.367 54.1962 106.694 55.3943 105.498C56.5924 104.301 57.2654 102.678 57.2654 100.986V59.3734H57.6684L57.6684 51.5255Z" fill="#E5E5E5"/>
<path d="M51.1347 35.7793H48.0821C48.2225 36.1231 48.2761 36.496 48.2382 36.8654C48.2002 37.2347 48.072 37.589 47.8646 37.8972C47.6573 38.2053 47.3773 38.4578 47.0493 38.6324C46.7212 38.807 46.3553 38.8983 45.9836 38.8984H32.5864C32.2147 38.8983 31.8487 38.807 31.5206 38.6324C31.1926 38.4578 30.9126 38.2053 30.7053 37.8972C30.4979 37.589 30.3697 37.2347 30.3317 36.8654C30.2938 36.496 30.3474 36.1231 30.4878 35.7793H27.6367C26.3713 35.7793 25.1579 36.2814 24.2632 37.175C23.3684 38.0687 22.8658 39.2808 22.8658 40.5446V100.941C22.8658 101.567 22.9892 102.187 23.229 102.765C23.4687 103.343 23.8201 103.868 24.2631 104.311C24.7062 104.753 25.2321 105.104 25.8109 105.344C26.3897 105.583 27.0101 105.707 27.6366 105.707H51.1347C51.7612 105.707 52.3816 105.583 52.9604 105.344C53.5393 105.104 54.0652 104.753 54.5082 104.311C54.9512 103.868 55.3026 103.343 55.5424 102.765C55.7822 102.187 55.9056 101.567 55.9056 100.941V40.5446C55.9056 39.9188 55.7822 39.2992 55.5424 38.721C55.3026 38.1429 54.9512 37.6175 54.5082 37.175C54.0652 36.7325 53.5393 36.3815 52.9604 36.142C52.3816 35.9026 51.7612 35.7793 51.1347 35.7793Z" fill="white"/>
<path d="M50.4806 61.1836H29.3312V75.4355H50.4806V61.1836Z" fill="white"/>
<path d="M50.5535 75.5084H29.2583V61.1108H50.5535V75.5084ZM29.4042 75.3627H50.4076V61.2565H29.4042V75.3627Z" fill="#3F3D56"/>
<path d="M31.1185 72.3114H48.6933V62.3142H31.1185V72.3114Z" fill="#EAECF0"/>
<path d="M36.2886 68.5301C37.2614 68.5301 38.0501 67.7424 38.0501 66.7706C38.0501 65.7989 37.2614 65.0112 36.2886 65.0112C35.3158 65.0112 34.5272 65.7989 34.5272 66.7706C34.5272 67.7424 35.3158 68.5301 36.2886 68.5301Z" fill="#1F74CA"/>
<path d="M41.8123 72.1924H33.1712C33.1604 72.1925 33.1495 72.1917 33.1389 72.1898L37.2258 65.119C37.2507 65.0749 37.2869 65.0383 37.3307 65.0128C37.3744 64.9873 37.4242 64.9739 37.4748 64.9739C37.5255 64.9739 37.5752 64.9873 37.619 65.0128C37.6627 65.0383 37.6989 65.0749 37.7239 65.119L40.4667 69.8641L40.5981 70.0911L41.8123 72.1924Z" fill="#3F3D56"/>
<path opacity="0.2" d="M41.8123 72.1925H38.862L40.3103 70.0912L40.4146 69.9397L40.4668 69.864L40.598 70.0912L41.8123 72.1925Z" fill="black"/>
<path d="M46.6237 72.1924H39.1498L40.5981 70.0911L40.7023 69.9397L42.5896 67.2014C42.6229 67.1595 42.6647 67.1252 42.7123 67.1005C42.7598 67.0759 42.812 67.0615 42.8654 67.0583C42.9189 67.0551 42.9724 67.0632 43.0225 67.082C43.0727 67.1008 43.1183 67.1299 43.1564 67.1675C43.1662 67.1782 43.1752 67.1895 43.1836 67.2014L46.6237 72.1924Z" fill="#3F3D56"/>
<path d="M101.781 107.422H45.0953C43.7518 107.42 42.4637 106.886 41.5136 105.937C40.5636 104.988 40.0292 103.702 40.0277 102.36V20.2481C40.0292 18.9061 40.5636 17.6195 41.5136 16.6705C42.4637 15.7216 43.7518 15.1878 45.0953 15.1863H101.781C103.124 15.1878 104.412 15.7216 105.362 16.6705C106.312 17.6195 106.847 18.9061 106.848 20.2481V102.36C106.847 103.702 106.312 104.988 105.362 105.937C104.412 106.886 103.124 107.42 101.781 107.422Z" fill="#E5E5E5"/>
<path d="M101.88 104.192H44.9955C44.5814 104.192 44.1843 104.027 43.8915 103.734C43.5986 103.442 43.4339 103.045 43.4334 102.632V19.9761C43.4339 19.5624 43.5986 19.1658 43.8915 18.8733C44.1843 18.5808 44.5814 18.4162 44.9955 18.4158H101.88C102.295 18.4162 102.692 18.5808 102.985 18.8733C103.277 19.1658 103.442 19.5624 103.443 19.9761V102.632C103.442 103.045 103.277 103.442 102.985 103.734C102.692 104.027 102.295 104.192 101.88 104.192Z" fill="white"/>
<path d="M73.2224 17.1669C73.4605 17.1669 73.6535 16.9741 73.6535 16.7363C73.6535 16.4985 73.4605 16.3057 73.2224 16.3057C72.9844 16.3057 72.7914 16.4985 72.7914 16.7363C72.7914 16.9741 72.9844 17.1669 73.2224 17.1669Z" fill="white"/>
<path d="M97.1452 42.012H52.3876V72.1728H97.1452V42.012Z" fill="white"/>
<path d="M97.2996 72.3268H52.2333V41.8577H97.2996V72.3268ZM52.542 72.0185H96.9909V42.166H52.542V72.0185Z" fill="#3F3D56"/>
<path d="M56.17 65.5612H93.3629V44.4045H56.17V65.5612Z" fill="#EAECF0"/>
<path d="M67.1113 57.5586C69.17 57.5586 70.839 55.8916 70.839 53.8352C70.839 51.7788 69.17 50.1118 67.1113 50.1118C65.0525 50.1118 63.3836 51.7788 63.3836 53.8352C63.3836 55.8916 65.0525 57.5586 67.1113 57.5586Z" fill="#1F74CA"/>
<path d="M78.8009 65.3095H60.514C60.4911 65.3098 60.4682 65.308 60.4456 65.3041L69.0945 50.3402C69.1473 50.247 69.2239 50.1695 69.3165 50.1156C69.4091 50.0616 69.5144 50.0332 69.6216 50.0332C69.7288 50.0332 69.8341 50.0616 69.9267 50.1156C70.0193 50.1695 70.0959 50.247 70.1487 50.3402L75.9532 60.3822L76.2312 60.8627L78.8009 65.3095Z" fill="#3F3D56"/>
<path opacity="0.2" d="M78.801 65.3093H72.5574L75.6224 60.8626L75.843 60.5422L75.9532 60.3821L76.2311 60.8626L78.801 65.3093Z" fill="black"/>
<path d="M88.983 65.3094H73.1663L76.2312 60.8625L76.4518 60.5422L80.4457 54.7471C80.5164 54.6585 80.6048 54.5858 80.7054 54.5337C80.806 54.4815 80.9164 54.4511 81.0296 54.4443C81.1427 54.4376 81.256 54.4546 81.3621 54.4945C81.4682 54.5343 81.5647 54.5959 81.6453 54.6754C81.666 54.6981 81.6852 54.722 81.7029 54.7471L88.983 65.3094Z" fill="#3F3D56"/>
<path d="M158.059 106.446L155.19 105.24L153.221 90.8723H127.01L124.876 105.181L122.309 106.463C122.186 106.524 122.088 106.625 122.029 106.749C121.971 106.874 121.957 107.014 121.988 107.147C122.02 107.281 122.096 107.4 122.203 107.485C122.311 107.57 122.444 107.616 122.582 107.616H157.823C157.963 107.616 158.1 107.568 158.209 107.479C158.318 107.39 158.392 107.266 158.42 107.128C158.448 106.99 158.427 106.847 158.361 106.723C158.296 106.599 158.189 106.501 158.059 106.446Z" fill="#EAECF0"/>
<path d="M204.639 92.7838H75.8793C75.2038 92.7823 74.5564 92.5132 74.0792 92.0355C73.602 91.5578 73.3341 90.9106 73.3341 90.2358V72.0999H207.185V90.2358C207.185 90.9106 206.917 91.5578 206.44 92.0355C205.962 92.5132 205.315 92.7823 204.639 92.7838Z" fill="#CCCCCC"/>
<path d="M207.319 80.6714H73.2165V3.07159C73.2175 2.25723 73.5418 1.47648 74.1183 0.900648C74.6948 0.324814 75.4765 0.000912292 76.2918 0H204.244C205.059 0.000909187 205.841 0.324811 206.418 0.900645C206.994 1.47648 207.318 2.25722 207.319 3.07159V80.6714Z" fill="#E5E5E5"/>
<path d="M199.31 75.0392H81.226C80.5974 75.0385 79.9948 74.7888 79.5503 74.3449C79.1059 73.9009 78.8559 73.299 78.8552 72.6712V8.00021C78.8559 7.37237 79.1059 6.77045 79.5503 6.32649C79.9948 5.88253 80.5974 5.6328 81.226 5.63208H199.31C199.938 5.6328 200.541 5.88253 200.985 6.32649C201.43 6.77045 201.68 7.37237 201.681 8.00021V72.6712C201.68 73.299 201.43 73.9009 200.985 74.3449C200.541 74.7888 199.938 75.0385 199.31 75.0392Z" fill="white"/>
<path d="M216.2 108H0.812267C0.744297 108.001 0.677757 107.98 0.623018 107.94C0.568279 107.9 0.528416 107.842 0.509635 107.777C0.497909 107.733 0.496541 107.686 0.50564 107.641C0.514739 107.596 0.534064 107.554 0.562121 107.517C0.590178 107.481 0.626223 107.452 0.667482 107.431C0.708741 107.411 0.754113 107.4 0.800108 107.4H216.175C216.247 107.398 216.317 107.42 216.375 107.462C216.433 107.505 216.474 107.566 216.493 107.635C216.503 107.679 216.503 107.724 216.492 107.768C216.482 107.812 216.462 107.853 216.434 107.888C216.406 107.923 216.37 107.951 216.33 107.97C216.289 107.99 216.245 108 216.2 108Z" fill="#CCCCCC"/>
<path d="M168.319 28.5345C168.925 26.6049 170.304 24.8352 172.21 24.1829C174.117 23.5306 177.442 24.1403 178.341 25.951C179.637 28.5605 179.055 31.7562 178.368 34.5896C178.01 34.5706 177.648 34.5557 177.285 34.5422L176.772 32.8345V34.5253C173.942 34.438 170.996 34.4927 168.048 34.5492C167.783 32.5433 167.713 30.4641 168.319 28.5345Z" fill="#2F2E41"/>
<path d="M194.325 102.06L191.944 103.057L186.963 94.3588L190.477 92.8879L194.325 102.06Z" fill="#9F616A"/>
<path d="M195.9 104.111L188.223 107.325L188.182 107.228C187.85 106.436 187.846 105.545 188.172 104.751C188.497 103.957 189.125 103.324 189.918 102.993L194.607 101.03L195.9 104.111Z" fill="#2F2E41"/>
<path d="M159.411 60.9725C159.263 60.7581 159.163 60.5138 159.119 60.2567C159.075 59.9996 159.088 59.736 159.157 59.4845C159.226 59.233 159.35 58.9997 159.519 58.801C159.688 58.6023 159.899 58.4431 160.136 58.3345L165.253 42.9114L168.68 44.7371L162.573 59.3234C162.729 59.7339 162.729 60.1873 162.572 60.5977C162.416 61.0081 162.115 61.3471 161.725 61.5504C161.336 61.7536 160.885 61.8071 160.458 61.7005C160.032 61.594 159.659 61.335 159.411 60.9725Z" fill="#9F616A"/>
<path d="M165.72 104.825H163.139L161.911 94.8801H165.721L165.72 104.825Z" fill="#9F616A"/>
<path d="M166.379 107.325L158.055 107.325V107.219C158.055 106.361 158.397 105.538 159.004 104.931C159.612 104.324 160.436 103.983 161.295 103.983L166.379 103.984L166.379 107.325Z" fill="#2F2E41"/>
<path d="M176.071 48.2583L176.655 49.7773L176.538 51.2963L165.308 49.8942L165.659 48.6089L166.946 47.0898L176.071 48.2583Z" fill="#9F616A"/>
<path d="M172.451 34.5888C174.709 34.5888 176.54 32.7604 176.54 30.505C176.54 28.2495 174.709 26.4211 172.451 26.4211C170.193 26.4211 168.363 28.2495 168.363 30.505C168.363 32.7604 170.193 34.5888 172.451 34.5888Z" fill="#9F616A"/>
<path d="M168.116 37.5085L170.455 36.1063L175.135 35.6389L179.27 36.5737L179.229 44.1687L176.655 49.7774L165.659 48.6089L165.191 47.0807C165.191 47.0807 162.15 43.0003 165.425 40.6633L168.116 37.5085Z" fill="#1F74CA"/>
<path d="M168.701 37.8591L168.116 37.5085C168.116 37.5085 164.957 38.0928 164.255 39.9623C163.553 41.8319 162.852 50.2448 162.852 50.2448L165.776 50.5917L166.829 43.7014L168.701 37.8591Z" fill="#1F74CA"/>
<path d="M176.655 50.7122V53.3077C176.655 53.3077 179.697 57.2556 178.059 60.2936C178.059 60.2936 181.569 66.8371 181.803 69.174L185.078 79.9239C185.078 79.9239 193.267 88.1032 192.565 93.9455L193.033 95.8151L187.652 98.152L186.482 96.5161L177.357 80.8587L169.637 66.6034L168.233 83.4293C168.233 83.4293 169.169 96.5161 166.595 97.9183L166.361 100.022H160.9V98.0223C160.9 98.0223 158.874 90.9075 160.044 85.5325L159.576 62.8643C159.576 62.8643 161.682 53.2828 164.255 51.647L165.191 49.3101L176.655 50.7122Z" fill="#2F2E41"/>
<path d="M169.642 25.1872C170.427 24.7088 171.327 24.4501 172.247 24.4379C173.167 24.4258 174.074 24.6608 174.871 25.1183C175.669 25.5759 176.33 26.2391 176.783 27.0387C177.237 27.8383 177.467 28.745 177.449 29.6638C175.164 29.7688 172.763 29.7961 170.329 29.8008L169.754 28.3944L169.414 29.8019C168.673 29.8018 167.929 29.8008 167.185 29.799C167.154 28.8827 167.365 27.9745 167.797 27.1653C168.228 26.356 168.864 25.6739 169.642 25.1872Z" fill="#2F2E41"/>
<path d="M163.008 25.6851L107.966 39.6665L117.409 76.7579L172.452 62.7766L163.008 25.6851Z" fill="white"/>
<path d="M172.69 62.9179L117.268 76.9957L107.728 39.5251L163.15 25.4473L172.69 62.9179ZM117.551 76.5201L172.214 62.6351L162.867 25.9229L108.204 39.8078L117.551 76.5201Z" fill="#3F3D56"/>
<path d="M119.991 67.4456L165.73 55.8273L159.106 29.8091L113.366 41.4274L119.991 67.4456Z" fill="#EAECF0"/>
<path d="M129.775 54.3321C132.387 54.3321 134.505 52.2167 134.505 49.6073C134.505 46.9979 132.387 44.8826 129.775 44.8826C127.162 44.8826 125.044 46.9979 125.044 49.6073C125.044 52.2167 127.162 54.3321 129.775 54.3321Z" fill="#1F74CA"/>
<path d="M147.743 60.0664L125.254 65.7789C125.226 65.7864 125.197 65.7913 125.168 65.7936L131.119 44.6894C131.155 44.5583 131.225 44.4391 131.322 44.3438C131.419 44.2485 131.539 44.1807 131.671 44.1472C131.803 44.1137 131.942 44.1158 132.072 44.1532C132.203 44.1906 132.322 44.262 132.416 44.3601L142.698 54.8964L143.191 55.4004L147.743 60.0664Z" fill="#3F3D56"/>
<path opacity="0.2" d="M147.743 60.0665L140.065 62.0169L142.442 55.5908L142.613 55.1281L142.698 54.8965L143.19 55.4006L147.743 60.0665Z" fill="black"/>
<path d="M160.265 56.8859L140.814 61.8267L143.19 55.4006L143.361 54.9377L146.459 46.5633C146.518 46.4324 146.604 46.3153 146.711 46.2198C146.819 46.1242 146.945 46.0523 147.082 46.0086C147.219 45.965 147.364 45.9506 147.506 45.9664C147.649 45.9823 147.787 46.0279 147.912 46.1005C147.944 46.1219 147.975 46.1453 148.005 46.1706L160.265 56.8859Z" fill="#3F3D56"/>
<path d="M172.766 56.0784C172.861 56.0996 172.953 56.1282 173.043 56.1639L180.181 51.2565L180.017 49.1602L183.152 48.5005L183.803 52.1835C183.855 52.481 183.81 52.7876 183.673 53.0571C183.536 53.3266 183.316 53.5445 183.044 53.6781L174.203 58.0334C174.169 58.404 174.024 58.7555 173.785 59.0413C173.547 59.3271 173.227 59.5336 172.868 59.6334C172.509 59.7331 172.129 59.7214 171.777 59.5998C171.425 59.4782 171.118 59.2524 170.898 58.9525C170.677 58.6526 170.554 58.2928 170.543 57.9209C170.532 57.549 170.635 57.1827 170.838 56.8707C171.041 56.5587 171.334 56.3158 171.678 56.1743C172.023 56.0328 172.402 55.9993 172.766 56.0784Z" fill="#9F616A"/>
<path d="M177.591 36.9242L179.27 36.5737C179.27 36.5737 182.972 35.2884 183.206 39.9623L183.674 50.9458L180.199 51.4132L178.761 41.8318L177.591 36.9242Z" fill="#1F74CA"/>
</g>
<defs>
<clipPath id="clip0_7438_83929">
<rect width="216" height="108" fill="white" transform="translate(0.5)"/>
</clipPath>
</defs>
</svg>
