<svg width="50" height="56" viewBox="0 0 50 56" fill="none" xmlns="http://www.w3.org/2000/svg">
<path d="M25 31C33.2843 31 40 24.2843 40 16C40 7.71573 33.2843 1 25 1C16.7157 1 10 7.71573 10 16C10 24.2843 16.7157 31 25 31ZM25 31C31.3652 31 37.4697 33.5286 41.9706 38.0294C46.4714 42.5303 49 48.6348 49 55M25 31C18.6348 31 12.5303 33.5286 8.02944 38.0294C3.52856 42.5303 1 48.6348 1 55" stroke="black" stroke-width="2" stroke-linecap="round" stroke-linejoin="round"/>
<path d="M25 31C33.2843 31 40 24.2843 40 16C40 7.71573 33.2843 1 25 1C16.7157 1 10 7.71573 10 16C10 24.2843 16.7157 31 25 31ZM25 31C31.3652 31 37.4697 33.5286 41.9706 38.0294C46.4714 42.5303 49 48.6348 49 55M25 31C18.6348 31 12.5303 33.5286 8.02944 38.0294C3.52856 42.5303 1 48.6348 1 55" stroke="white" stroke-opacity="0.5" stroke-width="2" stroke-linecap="round" stroke-linejoin="round"/>
</svg>
