<svg width="211" height="150" viewBox="0 0 211 150" fill="none" xmlns="http://www.w3.org/2000/svg">
    <path d="M160.1 148.144c-6.509-.055-20.721 0-21.348 0-.164 0-.333-.016-.491 0-.529.055-.649-.256-.595-.682.279-2.084.12-4.19.257-6.279.185-2.744.316-5.494.474-8.244.219-3.813.442-7.627.65-11.44.06-1.069.065-2.139.098-3.208.022-.78-.044-1.577.693-2.133.158-.12.251-.333.109-.551-.175-.267-.409-.235-.649-.115-.29.148-.595.284-.862.475-4.681 3.273-9.362 6.541-14.032 9.836-3.126 2.204-6.225 4.436-9.335 6.662a99.622 99.622 0 0 0-2.089 1.522c-.96.709-1.953.747-3.017.24-1.882-.895-3.481-2.182-5.008-3.563-5.101-4.61-9.935-9.487-14.741-14.397-.447-.458-.42-.747.022-1.178 1.882-1.839 3.737-3.71 5.614-5.559.763-.753.78-.742 1.609-.142 3.835 2.766 7.681 5.521 11.609 8.145 1.042.698 2.188.764 3.203.011a173.845 173.845 0 0 0 7.654-6.023c3.857-3.208 7.834-6.263 11.8-9.335 1.79-1.385 3.617-2.717 5.423-4.07 1.364-1.02 2.908-1.505 4.534-1.816 2.504-.475 5.002-.971 7.507-1.419 1.009-.18 2.04-.24 3.055-.392.447-.066.791.152 1.173.283 4.855 1.653 9.787 2.16 14.784.764 1.173-.327 2.281-.491 3.486-.262 2.543.475 5.118.753 7.611 1.49 1.391.414 2.482 1.178 3.371 2.34 3.214 4.217 6.727 8.205 9.738 12.58 1.348 1.959 2.766 3.885 3.83 6.029.491.987.404 1.795-.114 2.766-3.596 6.797-7.611 13.36-11.441 20.022-.261.453-.48.949-.894 1.309-.431-.48-.104-1.069-.224-1.604-.213-.944.136-1.702.687-2.488 2.101-3 4.119-6.05 6.165-9.083.595-.884.606-.9-.06-1.708a1058.442 1058.442 0 0 0-7.147-8.494c-.382-.453-.774-.84-.692-1.495.016-.153-.039-.327-.11-.469-.109-.224-.272-.436-.562-.404-.261.033-.463.191-.507.464-.038.24-.054.491-.044.736.104 3.083.202 6.165.333 9.242.137 3.246.317 6.487.469 9.733.159 3.366.306 6.732.453 10.104.006.125.022.245.028.371.021.529.038.927-.131 1.162-.24.343-.83.311-1.026.305-2.013-.087-4.064.486-6.045.109-.06-.011-5.133-.054-15.286-.136l.011-.011z" fill="#1F74CA"/>
    <path d="M139.357 19.944c1.653-.459 3.312-.922 4.965-1.38 2.057-.568 4.173-.786 6.268-1.125 3.961-.638 7.944-.469 11.915-.442 1.719.011 3.432.355 5.074.819 3.726 1.047 7.283 2.52 10.611 4.533a30.684 30.684 0 0 1 6.727 5.527 76.254 76.254 0 0 1 3.868 4.615c1.942 2.488 3.917 4.954 5.592 7.633 2.285 3.65 4.391 7.392 6.213 11.309 2.117 4.55 3.901 9.22 5.472 13.972 1.337 4.048 2.352 8.178 2.963 12.4.343 2.351.529 4.708.753 7.07.414 4.436.234 8.877.152 13.307-.049 2.597-.382 5.21-.802 7.796-.371 2.302-.796 4.593-1.369 6.852-.693 2.739-1.353 5.483-2.319 8.145a205.8 205.8 0 0 1-2.815 7.354c-1.216 3.017-2.727 5.854-4.604 8.527a73.391 73.391 0 0 1-3.59 4.676c-1.184 1.423-2.733 2.465-4.168 3.627-1.211.982-2.624 1.67-3.781 2.712-.654.022-1.309.022-1.964.065-.551.039-.692-.218-.687-.731.011-.78-.022-1.565-.082-2.34-.049-.649.147-1.184.518-1.713a49.469 49.469 0 0 0 2.024-3.093c3.743-6.28 7.42-12.597 10.901-19.029.725-1.337.758-2.526.038-3.83-1.271-2.302-2.581-4.588-4.07-6.754-2.859-4.174-6.214-7.976-9.28-11.992-1.195-1.565-2.711-2.547-4.659-2.984-2.886-.654-5.799-1.135-8.734-1.522-1.081-.142-1.086-.114-1.31-1.195-.049-.24-.071-.48-.103-.725-.317-2.297-.033-4.6-.071-6.896-.006-.48.36-.606.66-.786a8.39 8.39 0 0 0 2.799-2.733c.485-.758.993-1.511 1.445-2.291 1.517-2.635 2.963-5.309 3.847-8.244.6-1.996.861-4.015.398-6.077-.371-1.659-.982-3.164-2.761-3.792-.42-.147-.442-.354-.376-.736.273-1.566-.328-2.81-1.528-3.786-1.129-.922-2.422-1.533-3.83-1.915-2.896-.78-5.842-.89-8.81-.617-3.454.322-6.836.928-9.978 2.515-1.408.715-2.75 1.539-3.721 2.788-1.719 2.22-1.735 4.414 1.227 5.423.42.142.584.256.42.77-1.085 3.453-1.789 6.988-2.258 10.578-.268 2.05-.453 4.086.163 6.11.644 2.111 1.948 3.453 4.19 3.846 1.037.18 2.046.087 3.072 0 .753-.066.824 0 .611.693-.502 1.647-1.162 3.24-1.762 4.855-.475 1.271-1.113 2.057-2.575 1.85-.153-.022-.322.054-.486.076-2.477.387-4.954.764-7.425 1.167-1.909.312-3.781.726-5.379 1.948-3.301 2.515-6.667 4.943-9.94 7.496-3.503 2.728-6.923 5.559-10.377 8.347-.283.229-.616.633-.9.535-.36-.131-.158-.639-.158-.977.011-7.818.033-15.64.066-23.459.054-14.064-.077-28.129.163-42.188.06-3.371-.027-6.737-.136-10.103-.011-.262-.131-.606.196-.753.251-.11.453.13.649.267 1.795 1.233 3.601 2.455 5.38 3.71.856.605 1.003.655 1.844.054 4.757-3.387 9.64-6.584 14.528-9.77.813-.53 1.162-1.102 1.134-2.1-.06-2.63-.19-5.265-.06-7.895l.022.006z" fill="#B7D5F8"/>
    <path d="M202.266 147.937c-2.177-.011-4.359.016-6.536 0-3.077-.027-6.159.093-9.236-.06-.65.016-1.315.027-1.964.071-.551.032-.693-.224-.688-.731.011-.78-.027-1.571-.076-2.352-.049-.643.147-1.183.513-1.707a52.421 52.421 0 0 0 2.024-3.099c3.737-6.285 7.419-12.602 10.9-19.034.72-1.337.753-2.521.033-3.825-1.272-2.307-2.581-4.588-4.065-6.759-2.864-4.179-6.208-7.971-9.28-11.992-1.2-1.56-2.717-2.547-4.664-2.984-2.892-.649-5.799-1.135-8.729-1.516-1.08-.148-1.091-.11-1.304-1.2-.049-.24-.076-.48-.104-.72-.316-2.297-.032-4.6-.071-6.897-.01-.48.361-.6.661-.78a8.44 8.44 0 0 0 2.798-2.738c.48-.764.993-1.512 1.441-2.292 1.516-2.635 2.956-5.308 3.851-8.243.6-1.997.857-4.015.393-6.072-.371-1.664-.987-3.164-2.755-3.797-.42-.148-.447-.35-.376-.737.267-1.56-.333-2.804-1.528-3.78-1.135-.928-2.428-1.533-3.835-1.915-2.892-.791-5.843-.895-8.811-.617-3.459.317-6.836.928-9.973 2.515-1.407.72-2.755 1.533-3.72 2.799-1.714 2.22-1.735 4.408 1.227 5.423.42.136.584.25.42.775-1.08 3.447-1.784 6.988-2.253 10.578-.267 2.051-.447 4.091.164 6.115.643 2.112 1.953 3.448 4.195 3.841 1.036.18 2.051.088 3.071 0 .748-.07.824-.01.611.693-.496 1.648-1.156 3.235-1.756 4.845-.48 1.27-1.113 2.056-2.581 1.855-.152-.028-.316.049-.48.076-2.471.387-4.948.764-7.419 1.167-1.915.311-3.781.731-5.385 1.948-3.295 2.52-6.667 4.948-9.94 7.496-3.497 2.728-6.923 5.559-10.377 8.347-.283.229-.616.633-.894.529-.36-.131-.164-.633-.164-.971.016-7.823.033-15.646.071-23.459.049-14.064-.076-28.134.164-42.193.049-3.372-.033-6.743-.137-10.104-.011-.267-.136-.61.191-.753.257-.109.453.131.649.268 1.801 1.233 3.601 2.455 5.38 3.715.856.6 1.003.65 1.844.049 4.762-3.388 9.64-6.58 14.528-9.771.807-.53 1.156-1.096 1.135-2.1-.06-2.635-.191-5.265-.05-7.9-.016-.371-.043-.736-.049-1.107-.071-3.656-.152-7.31-.169-10.972 0-.883-.333-1.32-1.14-1.62-1.348-.496-2.651-1.096-3.972-1.664-3.398-1.451-6.792-2.897-10.18-4.359-.589-.256-1.134-.316-1.767-.043a1073.596 1073.596 0 0 1-14.567 6.295c-.627.268-.78.628-.791 1.2 0 1.32-.027 2.635-.032 3.956-.011 1.14-.011 1.15-1.201 1.14-10.807-.044-21.615-.087-32.422-.136-7.567-.033-15.123-.077-22.679-.11-1.604 0-3.208-.016-4.812.011-1.587.017-2.313.671-2.547 2.248a7.46 7.46 0 0 0-.071.857c-.044 1.227-.088 2.46-.093 3.688-.027 2.798-.016 5.58-.027 8.368-.011.895-.017.917-.83.873-2.995-.152-5.995-.076-8.996-.087a52.44 52.44 0 0 0-3.824.11c-1.217.092-1.844.72-2.035 1.93-.11.731-.17 1.468-.17 2.215.012 4.436.012 8.877 0 13.323-.015 7.932-.048 15.87-.075 23.802.049.077.043.137-.017.197v1.276c.071.071.071.137 0 .213.017.164.044.328.044.491-.011 5.156-.017 10.311-.033 15.472 0 .857-.033 1.713-.05 2.575.132 2.215.034 4.436.034 6.656 0 3.448-.017 6.896-.033 10.344-.033 5.204-.087 10.403-.104 15.608-.016 4.604 0 9.22.017 13.824 0 .497.06.988.109 1.473.207 1.795 1.227 2.788 3.028 3.001 2.127.251 4.271.169 6.404.164a3149.54 3149.54 0 0 1 38.146.076c5.886.049 11.767.109 17.654.136 1.473.011 2.957-.06 4.435-.152 1.872-.109 3.077-1.413 3.077-3.312-.01-3.164-.049-6.339-.076-9.504-.011-.289-.011-.572 0-.867.01-.393.169-.393.43-.164.977.873 1.965 1.741 2.941 2.635 1.724 1.577 3.421 3.197 5.412 4.463.148.087.289.164.42.256 1.992 1.392 3.857 1.168 5.789-.223 7.523-5.445 15.084-10.835 22.635-16.247.163-.12.333-.24.496-.36.431-.3.497-.044.469.311-.087 1.768-.191 3.524-.272 5.292-.18 3.699-.328 7.392-.551 11.08-.224 3.612-.42 7.223-.491 10.835-.017.649-.24 1.304-.153 1.964.093.704-.267.78-.851.78-4.119 0-8.227.033-12.335.049-8.096.033-16.192.077-24.288.104-10.535.033-21.064.049-31.599.093-6.208.016-12.411.092-18.614.109-11.315.027-22.62.016-33.923.027-1.271 0-2.548-.033-3.819-.049-.076 0-.164 0-.24-.011-.316.164-.627.147-.933 0h-.076c-.911.229-1.828.087-2.739.076-.207.017-.41.049-.61.049-.912.033-1.812.033-2.718.093-.387.027-.736.24-.687.704.043.409.404.464.747.48.944.044 1.888.131 2.832.12 10.147-.033 20.3-.087 30.447-.12 13.279-.044 26.563-.071 39.848-.093 6.824-.016 13.655-.011 20.49-.027 7.644-.016 15.276-.071 22.919-.087 4.556-.011 9.111.043 13.667.032 3.737 0 7.479-.06 11.216-.07 10.491-.017 20.988 0 31.479-.017 8.472-.016 16.939-.06 25.412-.093 1.091 0 1.555-.24 1.593-.774.049-.584-.431-.829-1.631-.829l-.011.016zm-47.687-57.578c.469-1.315.894-2.651 1.091-4.032.071-.523.403-.649.736-.856.208-.137.453-.29.388-.573-.088-.36-.437-.35-.704-.333a3.615 3.615 0 0 0-.96.197c-1.075.349-2.172.452-3.285.403-1.964-.093-3.344-1.173-3.808-3.088-.387-1.593-.523-3.207-.343-4.86a58.593 58.593 0 0 1 2.04-10.36c.453-1.545.464-1.528 2.084-1.376 1.02.093 2.051.137 3.072.224.572.05 1.151.11 1.707.23 1.108.25 1.26.507 1.135 1.62-.033.283-.087.572-.071.856.049.704-.131 1.184-.873 1.484-.611.251-1.004.83-1.156 1.517-.05.207-.028.43.147.567.18.136.404.093.573-.033.371-.256.709-.556 1.096-.796.688-.431 1.173-.23 1.348.567a2.723 2.723 0 0 1-.109 1.571c-.289.77-.71 1.474-1.201 2.145-.196.256-.431.496-.611.769-.18.289-.6.573-.327.96.289.41.633.12.955-.087.344-.224.404.027.447.3.191 1.254.257 2.515.568 3.764.774 3.148 3.415 5.096 6.644 4.768.448-.043.895-.103 1.348-.147.464-.044 1.031-.497 1.347-.18.301.3.011.927-.016 1.413-.06 1.276.027 2.548.093 3.819.06 1.02.043 1.053-.933 1.396-.387.137-.791.284-1.184.328-1.233.103-2.46.229-3.481.163-2.591-.136-4.975-.147-7.223-1.134-.807-.36-.834-.333-.523-1.212l-.011.006zm-.917 2.275c.207-.333.377-.311.693-.18 1.211.513 2.444 1.004 3.759 1.15 3.159.345 6.312.601 9.411-.386.447-.148.627-.148.78.36.163.496.06.616-.409.752-1.517.437-3.061.617-4.621.688-.775.044-1.555.25-2.292.033-2.4-.044-4.691-.453-6.912-1.26-.84-.3-.867-.437-.403-1.157h-.006zm-46.138-66.345c.131-1.62.05-3.24.131-4.872.028-.617.093-2.013.088-3.48-.017-3.209.032-6.416-.028-9.624-.016-.72.257-.988.824-1.271 1.991-.988 4.037-1.812 6.089-2.652 2.575-1.064 5.161-2.1 7.73-3.18.54-.224.993-.23 1.511-.011 4.381 1.876 8.756 3.759 13.148 5.575.84.35 1.124.808 1.157 1.724.229 6.209.103 12.423.24 18.62.016 1.064-.289 1.691-1.217 2.275a310.545 310.545 0 0 0-13.584 8.947c-.524.36-.895.41-1.408.05-2.16-1.501-4.342-2.98-6.519-4.442a418.471 418.471 0 0 0-6.268-4.135c-.955-.616-1.435-.927-1.664-1.353-.371-.687-.29-1.32-.224-2.171h-.006zM63.367 16.02c.513-.07 1.037.377 1.091.917.044.54-.469 1.14-1.014 1.173-.48.033-1.048-.447-1.113-.933-.071-.491.469-1.091 1.036-1.157zm-8.036.18c.508 0 .971.42.988.895.01.497-.513 1.02-1.032 1.031a.927.927 0 0 1-.954-.916.975.975 0 0 1 .993-1.004l.005-.006zm-7.85-.223c.567-.017.976.409.97 1.014 0 .54-.387.96-.883.972-.513.01-1.037-.47-1.08-.977-.033-.513.436-.987.993-1.004v-.005zM44.104 82.53c.103-9.007.109-18.003.152-27.01.05-10.704.028-21.403.028-32.106v-.617c.01-1.173.01-1.195 1.123-1.21 1.888-.034 3.781-.11 5.669-.06 5.384.136 10.78.015 16.17.075 2.799.028 5.592 0 8.39 0 9.635-.016 19.259.191 28.888.213.491 0 .987.011 1.473-.027.551-.033.704.213.693.731-.017 1.768.06 3.54-.028 5.308-.043.993.333 1.593 1.124 2.117 2.024 1.348 3.999 2.755 6.007 4.108.48.327.693.66.693 1.288-.044 10.114-.049 20.223-.088 30.343-.016 7.033-.01 14.06-.13 21.092-.153 8.81-.044 17.61-.077 26.415-.011 1.015-.24 1.735-1.113 2.237-.316.191-.589.437-.884.671-1.156.928-2.253.96-3.464.033-3.944-3.039-8.036-5.859-12.062-8.784a36.321 36.321 0 0 0-2.035-1.396c-.464-.3-.955-.557-1.424 0-.24.284-.41.131-.611-.044-1.331-1.151-1.713-2.76-2.155-4.348-.104-.371.224-.344.464-.349.813-.011 1.636-.027 2.46-.027 1.397.011 2.799.043 4.196.027.992-.011 1.527-.447 1.756-1.391.11-.437.208-.873.208-1.337-.011-3.78 0-7.572 0-11.358 0-.251 0-.497-.05-.737-.223-1.08-.954-1.68-2.084-1.696-4.975-.06-9.95-.093-14.931-.17-6.869-.109-13.732-.223-20.6-.207-.453 0-.912.017-1.354.104-1.047.207-1.544.807-1.56 1.887-.033 4.065-.06 8.124-.093 12.188 0 .12 0 .251.011.371.11 1.74.617 2.231 2.379 2.253 5.352.088 10.698.164 16.05.24.284 0 .573.011.868.011.42 0 .43.109.229.497-.437.873-.257 1.751.196 2.591.633 1.184 1.544 2.111 2.679 2.831.387.241.775.47 1.151.71.07.043.147.12.147.18.017.163-.136.169-.25.169-.988.011-1.976.016-2.958.016-6.219 0-12.427 0-18.647.028-.453 0-1.287-.35-1.293.43 0 .557.813.344 1.255.371 1.315.077 2.635.071 3.945.071 6.132.011 12.264.044 18.396-.016 1.09-.011 1.893.273 2.591 1.08.387.431.731.884 1.064 1.353.24.36.43.688.033 1.08-.513.513-.197.993.163 1.413.453.524.971 1.004 1.44 1.517.131.136.36.289.208.507-.071.088-.311.071-.464.06-2.133-.027-4.282-.06-6.416-.076-6.912-.06-13.819-.213-20.73-.147-.41 0-.83-.077-1.228.087-.137.049-.29.153-.284.349 0 .191.131.344.267.377.36.071.731.103 1.097.109 3.251.049 6.503.092 9.744.136 6.044.071 12.094.147 18.14.18.79.011 1.352.18 1.92.78 1.773 1.888 3.638 3.705 5.455 5.549.131.131.393.229.284.48-.076.152-.284.076-.436.071-9.008-.35-18.02-.17-27.027-.213-7.316-.033-14.643-.017-21.959-.044-2.024 0-2.82-.824-2.82-2.848.01-12.842-.088-25.69.06-38.527l-.011.011zM79.4 91.794c.677.824 1.375 1.63 2.073 2.438.317.371.371.633-.19.77-.394.103-.634.376-.754.747-.147.464-.24.944-.774 1.157-.191.087-.317.37-.251.529.496 1.173-.753 1.664-.971 2.558-.093.377-.42.328-.704.333-.9 0-1.811.044-2.712-.016-2.837-.169-5.679-.104-8.516-.077-1.887.017-3.764-.256-5.668-.087-.857.077-1.091-.207-1.091-1.08-.011-4.119-.017-8.227.01-12.34 0-1.26.24-1.435 1.577-1.408 5.92.13 11.844.25 17.764.37 5.963.11 11.92.214 17.883.225 1.168 0 1.424.272 1.451 1.456.104 3.945-.267 7.889-.169 11.839.017.79-.25 1.015-1.015 1.107-.163.028-.332.017-.496.011a2030.7 2030.7 0 0 1-6.045-.093c-.393-.01-.796.077-.96-.496-.677-2.411-2.22-4.283-3.912-6.04-1.45-1.51-2.858-3.07-4.511-4.375-.464-.36-.944-.66-1.544-.709-.928-.06-1.397.393-1.348 1.315.044.736.41 1.331.868 1.877l.005-.011zm.207 10.491c.704.103.895-.229.551-.835-.136-.251-.332-.464-.453-.72-.256-.573.017-.988.644-.955.24.016.47.12.71.17.207.048.42.087.523-.153.088-.224-.01-.404-.169-.552-.31-.267-.65-.507-.944-.79-.212-.213-.289-.552-.136-.797.213-.327.507-.093.747.044.18.103.344.223.508.343.213.148.43.29.633.017.196-.251.016-.437-.148-.644-.283-.36-.856-.71-.507-1.217.31-.453.824-.087 1.244.028.196.06.43.12.589-.033.224-.213.044-.47-.071-.66-.736-1.233-1.648-2.352-2.619-3.415-.447-.48-.9-.96-1.227-1.533-.18-.333-.36-.737-.093-1.037.35-.387.813-.104 1.108.12a13.17 13.17 0 0 1 1.75 1.555c1.217 1.276 2.352 2.64 3.585 3.9 1.708 1.752 2.799 3.836 3.568 6.116.251.737.53 1.468.753 2.215.344 1.157.884 2.204 1.724 3.077.24.251.36.404.07.693-1.292 1.315-2.596 2.635-3.867 3.972-.371.392-.551.289-.808-.104-1.26-1.871-2.82-3.388-4.888-4.392-1.216-.589-2.308-1.413-2.995-2.657-.224-.409-.393-.812-.37-1.243 0-.437.092-.59.583-.513h.005zm9.057 9.732c1.473-1.593 2.951-3.197 4.544-4.68.404-.377.66-.551 1.211-.137 1.304.971 1.337.933.153 2.111-1.713 1.708-3.42 3.421-5.02 5.249-.13.147-.3.273-.468.431-.148-.153-.284-.311-.42-.453-1.212-1.233-1.2-1.228 0-2.515v-.006zM39.292 32.225c.643-.017 1.064.436 1.014 1.09-.043.628-.496 1.004-1.167.988-.617-.016-1.031-.447-.977-.993.05-.567.573-1.075 1.135-1.08l-.005-.005zm-7.316-.317c.524-.027 1.124.524 1.167 1.047.044.628-.55 1.294-1.173 1.332-.567.027-1.036-.453-1.052-1.097-.017-.644.48-1.255 1.063-1.276l-.005-.006zM98.61 137.691c-.104 1.713-.856 2.444-2.591 2.455-3.296.011-6.585.049-9.88-.016-10.328-.213-20.655-.093-30.982-.147-7.944-.044-15.876-.06-23.82-.088-.283 0-.572.011-.867 0-1.697-.032-2.34-.703-2.335-2.455.027-4.522.071-9.05.071-13.579.011-11.974 0-23.95 0-35.919.137-18.047.17-26.82.18-31.435.011-11.337 0-17.01 0-17.147 0-.332.027-.67 0-.993-.049-.567.11-.79.748-.774 4.184.13 8.39.12 12.58.049.033 0 .076.01.12.01 1.02.017 1.031.017 1.02.994-.016 2.253-.049 4.511-.049 6.776-.01 10.856 0 21.724-.016 32.591-.017 13.251-.06 26.503-.071 39.749 0 1.56-.033 3.121.229 4.676.327 1.854 1.02 2.46 2.88 2.504 7.65.147 15.303.147 22.952.147 8.44-.011 16.88-.011 25.32-.011.943 0 1.887-.011 2.83.016.994.033 1.588.644 1.594 1.615.032 3.497.06 6.989.087 10.491 0 .164.011.328-.01.491h.01zm84.425-10.518c.016-.191.147-.273.409-.229.36.147.611.464.584.916-.028.431-.24.781-.671.955-.088.033-.229.027-.268-.164a6.103 6.103 0 0 1-.06-1.473l.006-.005zm.333 8.391c-.05-.53-.044-1.064-.077-1.604-.06-1.14.088-2.297-.191-3.432-.071-.491.109-.775.573-.955.344-.13.617-.392.84-.703.775-1.053.409-2.401-.84-2.772-.584-.169-.813-.393-.824-.987-.016-1.724.011-3.448-.229-5.161-.016-.109 0-.311.049-.333.24-.093.36.109.491.267 1.784 2.155 3.557 4.305 5.336 6.465 1.113 1.353 1.091 1.348.087 2.837-1.336 1.975-2.64 3.961-3.961 5.952-.136.207-.256.431-.409.611-.223.257-.289.813-.704.704-.332-.093-.109-.584-.136-.895l-.005.006zm.207 4.642c-.213-.943.131-1.707.687-2.498 2.095-2.995 4.119-6.045 6.165-9.084.589-.884.6-.9-.071-1.707-2.368-2.837-4.741-5.68-7.147-8.489-.387-.453-.769-.84-.687-1.495.016-.153-.044-.333-.109-.469-.109-.224-.273-.437-.557-.404-.267.033-.469.191-.512.464-.033.24-.05.491-.044.736.104 3.077.196 6.16.333 9.247.136 3.241.316 6.487.463 9.728.164 3.371.311 6.732.453 10.103.011.12.028.251.028.371.01.29.027.524.01.693-.01.213-.043.36-.136.469-.016.028-.044.044-.06.06-.027.017-.049.033-.076.049-.344.208-.917.061-.993.044-1.577.044-3.939.109-6.803.147-5.341.077-6.809 0-14.419-.027-2.848-.011-20.639 0-21.348 0-.164 0-.333-.016-.496 0-.524.049-.644-.267-.59-.687.284-2.084.12-4.185.257-6.28.191-2.744.327-5.499.48-8.243.213-3.819.436-7.632.644-11.44.06-1.075.071-2.144.103-3.208.028-.78-.043-1.577.688-2.133.163-.12.251-.333.109-.551-.169-.268-.409-.24-.644-.109-.289.147-.6.283-.867.469-4.681 3.268-9.368 6.536-14.032 9.831-3.121 2.204-6.225 4.441-9.335 6.666-.703.497-1.396 1.004-2.094 1.517-.961.709-1.954.747-3.017.24-1.877-.895-3.481-2.177-5.009-3.557-5.095-4.604-9.934-9.487-14.735-14.403-.447-.452-.42-.747.027-1.173 1.877-1.843 3.732-3.715 5.609-5.559.763-.753.78-.747 1.614-.147 3.836 2.76 7.676 5.516 11.615 8.151 1.037.692 2.177.763 3.197.01a169.296 169.296 0 0 0 7.649-6.022c3.857-3.208 7.84-6.263 11.8-9.34 1.784-1.381 3.612-2.712 5.423-4.065 1.364-1.02 2.908-1.5 4.539-1.817 2.504-.469 5.003-.97 7.507-1.412 1.015-.18 2.04-.24 3.061-.393.447-.071.791.152 1.167.283 4.861 1.653 9.787 2.16 14.785.764 1.173-.327 2.291-.49 3.491-.267 2.537.48 5.123.753 7.611 1.495 1.396.409 2.487 1.173 3.371 2.34 3.219 4.223 6.732 8.211 9.744 12.581 1.347 1.953 2.76 3.879 3.824 6.028.491.988.404 1.795-.109 2.761-3.595 6.803-7.61 13.36-11.44 20.027-.268.453-.48.955-.895 1.304-.431-.48-.104-1.064-.224-1.593l-.005-.006z" fill="#080909"/>
    <path d="M64.458 16.938c.044.54-.47 1.14-1.015 1.173-.48.032-1.047-.448-1.113-.933-.07-.491.47-1.091 1.037-1.157.513-.07 1.036.377 1.09.917zM56.319 17.09c.01.497-.513 1.02-1.032 1.032a.927.927 0 0 1-.954-.917.975.975 0 0 1 .993-1.004c.507 0 .97.42.987.895l.005-.006zM48.452 16.987c0 .54-.388.96-.884.971-.513.011-1.037-.469-1.08-.976-.033-.513.436-.988.992-1.004.568-.016.977.41.972 1.015v-.006zM40.307 33.31c-.044.627-.497 1.003-1.168.987-.616-.016-1.031-.447-.977-.993.05-.567.573-1.075 1.135-1.08.644-.016 1.064.437 1.015 1.091l-.005-.005zM33.143 32.95c.044.628-.551 1.293-1.173 1.331-.567.028-1.037-.452-1.053-1.096-.016-.644.48-1.255 1.064-1.277.524-.027 1.124.524 1.167 1.048l-.005-.006zM188.589 129.186c-1.337 1.975-2.641 3.961-3.961 5.952-.137.207-.257.431-.409.611-.224.256-.289.813-.704.704-.333-.093-.109-.584-.136-.895-.05-.529-.044-1.064-.077-1.604-.06-1.14.087-2.297-.191-3.432-.071-.491.109-.774.573-.954.344-.131.617-.393.84-.704.775-1.053.409-2.4-.84-2.771-.584-.17-.813-.393-.824-.988-.016-1.724.011-3.448-.229-5.161-.016-.109 0-.311.049-.333.24-.092.36.109.491.268 1.784 2.155 3.557 4.304 5.336 6.464 1.113 1.353 1.091 1.348.087 2.837l-.005.006zM167.89 94.33c-1.516.436-3.06.617-4.621.688-.774.043-1.554.25-2.291.032-2.4-.043-4.692-.453-6.912-1.26-.84-.3-.868-.437-.404-1.157.208-.332.377-.31.693-.18 1.211.513 2.444 1.004 3.759 1.151 3.159.344 6.312.6 9.411-.387.447-.147.627-.147.78.36.164.497.06.617-.409.753h-.006zM94.573 109.306c-1.713 1.708-3.421 3.421-5.02 5.249-.13.147-.3.272-.469.431-.147-.153-.283-.311-.42-.453-1.21-1.233-1.2-1.228 0-2.515 1.473-1.593 2.952-3.197 4.545-4.681.403-.377.66-.551 1.21-.136 1.305.971 1.338.932.154 2.111v-.006zM91.949 107.222c-1.293 1.315-2.597 2.635-3.868 3.972-.371.392-.551.289-.808-.104-1.26-1.871-2.82-3.388-4.888-4.392-1.216-.589-2.307-1.413-2.995-2.657-.224-.409-.393-.812-.37-1.243 0-.437.092-.59.583-.513.704.103.895-.229.551-.835-.136-.251-.333-.464-.453-.72-.256-.573.017-.987.644-.955.24.017.47.12.71.17.206.048.42.087.523-.153.087-.224-.011-.404-.17-.551-.31-.268-.648-.508-.943-.791-.213-.213-.29-.552-.136-.797.212-.327.507-.093.747.044.18.103.344.223.507.343.213.148.431.29.633.017.197-.251.017-.437-.147-.644-.284-.36-.857-.71-.508-1.217.311-.452.824-.087 1.244.028.197.06.431.12.59-.033.223-.213.043-.47-.071-.66-.737-1.233-1.648-2.352-2.619-3.415-.447-.48-.9-.96-1.227-1.533-.18-.333-.36-.737-.093-1.037.349-.387.813-.104 1.107.12a13.17 13.17 0 0 1 1.751 1.555c1.217 1.276 2.352 2.64 3.585 3.9 1.707 1.752 2.798 3.836 3.568 6.116.25.737.529 1.468.753 2.215.343 1.157.883 2.204 1.724 3.077.24.251.36.404.07.693h.006z" fill="#fff"/>
    <path d="M167.83 86.998c.028-.491.317-1.113.017-1.413-.317-.316-.884.136-1.348.18-.453.044-.9.104-1.347.147-3.236.328-5.876-1.62-6.645-4.768-.311-1.255-.377-2.515-.568-3.764-.043-.273-.103-.524-.447-.3-.316.207-.66.496-.955.087-.273-.387.148-.671.328-.96.18-.273.409-.513.611-.77.491-.67.911-1.374 1.2-2.143a2.634 2.634 0 0 0 .109-1.572c-.169-.796-.66-.992-1.348-.567-.387.24-.731.54-1.096.796-.169.132-.393.17-.573.033-.169-.136-.196-.36-.147-.567.152-.688.551-1.271 1.156-1.517.748-.3.928-.78.873-1.484-.016-.283.033-.572.071-.856.131-1.113-.027-1.375-1.135-1.62-.556-.12-1.134-.18-1.707-.23-1.02-.087-2.052-.13-3.072-.223-1.62-.153-1.631-.17-2.084 1.375a58.152 58.152 0 0 0-2.04 10.36c-.18 1.653-.044 3.268.344 4.86.463 1.915 1.844 2.996 3.808 3.088 1.113.05 2.215-.049 3.284-.403.311-.104.633-.18.96-.197.267-.016.616-.027.704.333.071.284-.18.436-.388.573-.332.207-.671.333-.736.856-.196 1.38-.617 2.717-1.091 4.032-.311.873-.284.851.524 1.211 2.247.988 4.631.993 7.223 1.135 1.02.07 2.247-.06 3.48-.164.393-.043.797-.19 1.184-.327.977-.344.993-.376.933-1.397-.071-1.27-.153-2.537-.093-3.819l.011-.005zm-16.192-5.14c-.191.072-.393.077-.507.094-.917-.028-1.953-.895-2.161-1.713-.06-.257-.076-.53.148-.688.251-.163.496.016.633.224.447.709 1.107 1.075 1.893 1.26.191.05.447.104.463.333.028.289-.24.409-.469.49zm-.387-10.212c-.48.01-.955-.464-.955-.955 0-.463.48-1.03.884-1.053.436-.027 1.015.47 1.031.9.016.492-.507 1.092-.96 1.108zM138.168 8.498c-.032-.916-.316-1.375-1.156-1.724-4.392-1.817-8.767-3.699-13.148-5.575-.513-.224-.971-.213-1.511.01-2.564 1.08-5.156 2.117-7.731 3.181-2.051.84-4.102 1.664-6.088 2.651-.568.284-.84.551-.824 1.272.06 3.207.011 6.415.027 9.623.011 1.468-.06 2.864-.087 3.48-.076 1.632 0 3.252-.131 4.873-.071.85-.147 1.484.224 2.171.229.43.709.736 1.664 1.353a356.479 356.479 0 0 1 6.268 4.135 566.724 566.724 0 0 1 6.519 4.441c.513.36.884.311 1.408-.049a310.454 310.454 0 0 1 13.584-8.947c.928-.584 1.233-1.211 1.217-2.275-.136-6.203-.011-12.411-.24-18.62h.005zm-6.786 9.313c-.093 3.12-.17 6.246-.153 9.372 0 .137.087.54-.153.824-.229.267-.644.273-.813.284-.791 0-3.699 0-7.648-.044-2.341 0-4.692.017-7.033 0-.916-.01-.954-.07-.96-.993-.027-3.12-.289-6.246-.191-9.372.011-.284-.016-.573.011-.857.071-1.036.207-1.167 1.244-1.26.775-.071 1.56.093 2.324-.11-.147-.736-.027-1.483.076-2.203.24-1.697 1.053-3.099 2.455-4.12 1.375-1.003 3.077-1.074 4.512-.18 1.964 1.212 2.712 3.105 2.892 5.293.092 1.184.06 1.194 1.303 1.2 2.041.016 2.215.13 2.145 2.171l-.011-.005z" fill="#fff"/>
    <path d="M113.793 34.058c-2.008-1.353-3.978-2.76-6.007-4.108-.791-.524-1.167-1.124-1.124-2.117.087-1.768.011-3.54.027-5.308.011-.513-.147-.764-.692-.731-.491.032-.988.027-1.473.027-9.635-.027-19.258-.23-28.888-.213-2.798 0-5.591.027-8.39 0-5.385-.06-10.78.06-16.17-.076-1.888-.05-3.781.027-5.669.06-1.113.016-1.113.032-1.124 1.21v.617c0 10.704.028 21.402-.027 32.106-.044 9.007-.049 18.004-.153 27.01-.147 12.843-.049 25.691-.06 38.528 0 2.024.797 2.848 2.82 2.848 7.317.027 14.644.011 21.96.043 9.007.044 18.02-.136 27.026.213.153.011.36.087.437-.071.109-.251-.153-.349-.284-.48-1.817-1.844-3.677-3.661-5.456-5.548-.567-.6-1.134-.769-1.92-.78-6.045-.033-12.095-.11-18.14-.18-3.24-.044-6.492-.088-9.743-.137a7.264 7.264 0 0 1-1.097-.109c-.136-.033-.267-.191-.267-.376-.011-.197.147-.3.284-.35.392-.163.812-.087 1.227-.087 6.912-.071 13.819.087 20.731.148 2.133.016 4.283.049 6.416.076.153.011.393.027.464-.06.152-.213-.077-.371-.208-.508-.469-.512-.987-.992-1.44-1.516-.36-.42-.676-.9-.164-1.413.393-.393.208-.72-.032-1.08-.333-.47-.677-.928-1.064-1.353-.693-.808-1.5-1.091-2.592-1.081-6.132.06-12.264.028-18.396.017-1.315 0-2.635.011-3.944-.071-.437-.027-1.255.191-1.255-.371.011-.78.84-.431 1.293-.431 6.22-.027 12.428-.027 18.647-.027.988 0 1.975-.011 2.957-.017.11 0 .267-.011.251-.169 0-.06-.076-.136-.147-.18-.377-.24-.764-.469-1.151-.709-1.135-.72-2.04-1.648-2.679-2.831-.453-.841-.633-1.714-.196-2.592.196-.387.19-.496-.23-.496-.289 0-.583-.011-.867-.011-5.352-.077-10.698-.153-16.05-.24-1.757-.028-2.264-.513-2.379-2.253-.01-.12-.01-.251-.01-.371.032-4.065.06-8.124.092-12.188.016-1.08.513-1.68 1.56-1.888.448-.087.9-.103 1.353-.103 6.869-.017 13.732.092 20.6.207 4.981.076 9.957.109 14.932.169 1.135.016 1.86.617 2.084 1.697.05.24.05.49.05.736 0 3.78-.012 7.573 0 11.359 0 .463-.093.9-.208 1.336-.229.944-.764 1.381-1.757 1.391-1.396.017-2.798-.016-4.195-.027-.824 0-1.647.017-2.46.027-.24.011-.568-.016-.464.35.436 1.587.824 3.197 2.155 4.348.196.169.37.327.61.043.47-.556.961-.3 1.425 0 .687.448 1.375.911 2.035 1.397 4.02 2.924 8.112 5.745 12.062 8.783 1.211.928 2.308.895 3.464-.032.289-.229.568-.48.884-.671.873-.508 1.107-1.228 1.113-2.237.033-8.811-.076-17.61.076-26.416.12-7.032.109-14.059.131-21.091.033-10.12.044-20.235.088-30.344 0-.627-.213-.96-.693-1.288l.011-.01zm-62.685 5.024c.011-1.833.704-2.559 2.532-2.58 3.044-.05 6.088-.088 9.127-.093.256 0 5.603.027 16.295-.011 9.433-.033 12.516-.153 20.115-.01 1.937.032 3.535.076 4.583.103a4.632 4.632 0 0 1 1.844.136c.491.148 1.14.333 1.533.9.229.333.344.764.333 1.331-.093 4.065.109 8.151-.137 12.216-.109 1.81-1.015 2.618-2.88 2.618-3.661.011-7.327-.033-10.988-.027-6.115 0-12.231.104-18.347.01-7.12-.108-14.239-.168-21.364-.146-1.68.01-2.635-.988-2.64-2.712-.011-3.911-.011-7.823 0-11.735h-.006zm56.574 26.034c-.06 3.12-.18 6.247-.136 9.367.027 1.953-1.015 2.897-2.755 3.088-1.397.153-2.799.131-4.184.131-5.063 0-10.115-.027-15.172-.06-9.995-.06-19.984-.13-29.968-.196-.993-.011-1.975-.077-2.919-.41-.85-.3-1.33-.85-1.456-1.794-.207-1.512-.147-3.028-.18-4.556-.044-2.177-.071-4.359-.076-6.536 0-.649-.028-1.32.152-1.964.24-.872.797-1.413 1.724-1.516.327-.033.65-.05.988-.05 8.467-.092 16.94-.168 22.286-.228 11.423-.071 19.727-.12 28.03-.17.371 0 .737-.01 1.108.017 1.38.093 2.16.84 2.411 2.188.153.9.164 1.8.153 2.7l-.006-.01z" fill="#fff"/>
    <path d="M98.621 137.2c0 .164.011.328-.01.491-.105 1.713-.857 2.444-2.592 2.455-3.295.011-6.585.049-9.88-.016-10.328-.213-20.655-.093-30.982-.147-7.944-.044-15.876-.06-23.82-.088-.283 0-.572.011-.867 0-1.696-.032-2.34-.704-2.335-2.455.028-4.522.071-9.051.071-13.579.011-11.975 0-23.95 0-35.919.137-18.047.17-26.82.18-31.435.011-11.337 0-17.01 0-17.147 0-.333.027-.67 0-.993-.049-.567.11-.79.748-.774 4.184.13 8.39.12 12.58.049.033 0 .077.01.12.01 1.02.017 1.031.017 1.02.993-.016 2.254-.049 4.512-.049 6.776-.01 10.857 0 21.724-.016 32.592-.016 13.251-.06 26.503-.071 39.749 0 1.56-.033 3.121.23 4.675.327 1.855 1.02 2.461 2.88 2.505 7.648.147 15.302.147 22.951.147 8.44-.011 16.88-.011 25.32-.011.943 0 1.887-.011 2.83.016.994.033 1.588.644 1.594 1.615.033 3.497.06 6.989.087 10.491h.011z" fill="#fff"/>
    <path d="M26.847 90.081c.137 2.22.044 4.44.039 6.661 0 3.448-.022 6.896-.044 10.344-.033 5.205-.082 10.404-.098 15.608-.017 4.61 0 9.22.01 13.83 0 .491.06.982.12 1.473.203 1.79 1.223 2.788 3.023 3.001 2.133.251 4.277.174 6.41.163 12.717-.054 25.429-.027 38.146.077 5.88.049 11.767.109 17.648.136 1.479.006 2.963-.065 4.436-.158 1.865-.115 3.077-1.413 3.071-3.312 0-3.169-.049-6.333-.076-9.503v-.862c.01-.393.174-.393.43-.164.983.879 1.97 1.746 2.941 2.635 1.73 1.582 3.421 3.203 5.418 4.463.136.087.283.164.42.256 1.986 1.392 3.857 1.168 5.788-.229 7.523-5.444 15.085-10.829 22.635-16.241.169-.12.333-.235.502-.36.426-.306.491-.049.475.305-.087 1.763-.191 3.525-.278 5.292-.186 3.694-.322 7.387-.551 11.081-.224 3.611-.415 7.217-.491 10.834-.011.655-.24 1.304-.153 1.964.093.71-.262.786-.851.786-4.108 0-8.222.033-12.33.049-8.096.038-16.192.076-24.288.104-10.535.032-21.07.049-31.599.092-6.203.022-12.411.099-18.614.115-11.304.027-22.613.022-33.917.027-1.271 0-2.548-.032-3.819-.049-1.053-.84-2.22-1.522-3.153-2.526-2.28-2.46-4.087-5.188-5.232-8.379-.862-2.406-1.522-4.861-1.768-7.371a29.869 29.869 0 0 1 .087-6.508c.328-2.739 1.015-5.374 1.779-8.009.562-1.937 1.391-3.759 2.319-5.538a101.708 101.708 0 0 1 2.76-4.937c.944-1.582 2.09-3.033 3.219-4.484 1.233-1.593 2.706-2.974 4.13-4.392 2.908-2.892 6.372-4.85 10.256-6.11.404-.131.802-.159 1.211-.159l-.01-.005zM9.995 148.482c-.905.235-1.827.093-2.738.082.905-.333 1.822-.18 2.738-.082zM11 148.493c-.312.164-.623.142-.934 0a1.31 1.31 0 0 1 .933 0zM26.907 69.862c.05.071.044.137-.016.197-.022-.05-.049-.099-.065-.148 0-.005.054-.027.081-.043v-.006zM26.886 71.335c.07.07.07.142 0 .213-.028-.05-.06-.104-.082-.153 0-.01.049-.038.076-.06h.006z" fill="#B7D5F8"/>
    <path d="M79.2 85.683c5.962.115 11.92.213 17.882.224 1.168 0 1.424.273 1.452 1.462.098 3.95-.268 7.89-.18 11.839.016.785-.246 1.009-1.01 1.107-.163.022-.327.011-.49.011-2.014-.032-4.027-.065-6.046-.103-.392-.006-.802.081-.96-.491-.682-2.412-2.225-4.278-3.911-6.04-1.451-1.51-2.854-3.077-4.512-4.37-.464-.36-.938-.665-1.538-.709-.928-.065-1.403.393-1.348 1.31.044.73.415 1.325.862 1.87.676.825 1.375 1.637 2.079 2.445.321.365.37.627-.186.77-.393.103-.638.381-.758.746-.153.464-.246.939-.775 1.157-.19.082-.316.371-.245.53.496 1.172-.759 1.663-.966 2.552-.093.382-.42.333-.698.333-.906 0-1.812.044-2.717-.011-2.837-.169-5.674-.109-8.511-.081-1.893.016-3.775-.262-5.668-.088-.862.077-1.097-.207-1.097-1.08-.005-4.114-.01-8.227.011-12.34.006-1.266.245-1.435 1.588-1.408 5.919.126 11.838.246 17.757.365H79.2z" fill="#1F74CA"/>
    <path d="M184.033 127.86c-.027.431-.24.78-.671.955-.087.033-.229.027-.267-.164a6.003 6.003 0 0 1-.06-1.473c.016-.191.147-.273.409-.229.36.147.611.464.584.917l.005-.006z" fill="#fff"/>
    <path d="M107.536 62.415c-.251-1.347-1.032-2.095-2.412-2.188-.371-.027-.736-.016-1.107-.016-8.304.05-16.607.104-28.03.17-5.342.06-13.82.136-22.287.228-.333 0-.66.017-.987.05-.928.103-1.484.643-1.724 1.516-.18.644-.153 1.315-.153 1.964.01 2.177.033 4.36.076 6.536.033 1.528-.027 3.044.18 4.555.131.944.611 1.495 1.457 1.795.944.333 1.92.404 2.919.41 9.983.07 19.978.136 29.967.196 5.063.032 10.115.06 15.172.06 1.391 0 2.788.027 4.184-.131 1.741-.191 2.777-1.135 2.755-3.088-.043-3.12.077-6.247.137-9.367.011-.9 0-1.8-.153-2.7l.006.01zm-1.092 1.337c.05 3.617-.016 7.24-.163 10.85-.049 1.152-.453 1.545-1.724 1.561-2.635.033-5.265.06-7.9.06-11.271-.01-22.542-.027-33.819-.032-2.668 0-5.34-.011-8.02-.017-.327 0-.66.011-.987-.016-1.38-.093-1.637-.437-1.735-1.828-.256-3.491-.103-6.988-.153-10.48 0-.29-.027-.584.011-.867.11-.873.464-1.233 1.353-1.272 1.113-.043 2.22-.016 3.34-.016h22.705c17.376.05 23.59-.016 24.288-.13.524-.088.753-.028 1.233-.028.988.01 1.424.376 1.555 1.347.044.29.016.584.016.868z" fill="#080909"/>
    <path d="M106.428 62.884c-.131-.97-.568-1.336-1.555-1.347-.48 0-.709-.06-1.233.027-.704.11-6.912.18-24.288.13H56.646c-1.113 0-2.22-.026-3.339.017-.895.033-1.244.393-1.353 1.271-.033.284-.01.573-.01.868.048 3.491-.105 6.988.152 10.48.093 1.391.35 1.735 1.735 1.828.327.027.66.016.987.016 2.679.01 5.352.016 8.02.016 11.277.011 22.548.028 33.819.033 2.635 0 5.265-.027 7.9-.06 1.271-.016 1.674-.41 1.724-1.56.147-3.612.212-7.229.163-10.851 0-.284.027-.573-.016-.868zM59.21 70.468c-.867.016-1.631-.775-1.62-1.675.01-1.032.72-1.8 1.647-1.768 1.02.027 1.62.633 1.604 1.62-.016 1.015-.72 1.8-1.631 1.817v.005zm7.872-.388c-.873-.027-1.45-.616-1.45-1.473.01-.96.687-1.631 1.614-1.593.884.033 1.544.753 1.495 1.604a1.585 1.585 0 0 1-1.653 1.468l-.006-.006zm7.927-.229c-.78.027-1.293-.556-1.287-1.44.01-.737.6-1.331 1.315-1.32.812.01 1.352.49 1.363 1.227.011.884-.567 1.517-1.39 1.533zm8.32.01c-.753-.01-1.315-.556-1.337-1.314-.016-.71.584-1.451 1.2-1.467.808-.028 1.375.556 1.375 1.396-.01.824-.512 1.391-1.233 1.38l-.005.006zm7.67-.016c-.632-.027-1.216-.556-1.233-1.15-.027-.693.688-1.414 1.413-1.424.677 0 1.195.49 1.195 1.134.011.78-.649 1.468-1.374 1.44zm8.091.137c-.556-.027-1.047-.627-1.053-1.293 0-.693.447-1.157 1.135-1.167.6-.011 1.167.583 1.157 1.183-.017.671-.633 1.315-1.233 1.277h-.006z" fill="#fff"/>
    <path d="M107.475 38.864c.011-.567-.104-.993-.333-1.331-.393-.567-1.047-.753-1.533-.9a4.632 4.632 0 0 0-1.844-.137c-1.047-.027-2.64-.07-4.582-.103-7.6-.148-10.677-.028-20.115.01-10.698.033-16.04.012-16.296.012-3.039.01-6.083.043-9.127.092-1.828.028-2.52.748-2.531 2.58-.011 3.912-.011 7.824 0 11.736.01 1.724.96 2.716 2.64 2.711 7.125-.027 14.245.033 21.364.147 6.116.093 12.232-.01 18.347-.01 3.66-.011 7.327.032 10.988.027 1.871 0 2.771-.808 2.88-2.619.251-4.064.044-8.15.137-12.215h.005zm-1.2 11.757c-.011 1.347-.257 1.604-1.588 1.615-4.408.032-8.81.032-13.208.043-4.119.011-8.227.033-12.062-.147-8.51.164-16.732.13-24.96.17-.283 0-.572.01-.867 0-1.276-.044-1.5-.274-1.5-1.534.011-3.868.011-7.736.011-11.604 0-1.544.23-1.811 1.784-1.773 8.516.207 17.032.06 25.543.093 7.043.027 14.075-.011 21.108.01 1.396 0 2.798.012 4.184.11 1.375.104 1.56.327 1.56 1.675.017 3.78.011 7.567-.011 11.347l.006-.005zM129.243 15.645c-1.244-.011-1.211-.017-1.304-1.2-.18-2.188-.927-4.082-2.891-5.293-1.435-.894-3.137-.823-4.512.18-1.397 1.02-2.215 2.417-2.455 4.12-.104.72-.224 1.467-.077 2.203-.763.208-1.554.044-2.324.11-1.036.092-1.173.223-1.243 1.26-.028.283 0 .573-.011.856-.104 3.132.163 6.252.191 9.373.01.927.043.987.96.993 2.34.016 4.692 0 7.032 0 3.955.044 6.863.044 7.649.044.169-.011.583-.017.813-.284.24-.284.152-.688.152-.824-.016-3.131.06-6.252.153-9.373.071-2.04-.104-2.155-2.144-2.171l.011.006zm-10.18-.857c.071-1.348.469-2.58 1.32-3.639 1.435-1.795 3.715-1.751 5.145.033.813 1.004 1.156 2.155 1.2 3.415.011.41.071.704-.12.9-.147.153-.349.17-.671.197-.955.049-1.795.027-1.975.016-.273-.01-.687-.01-1.195.016-.933 0-1.877-.01-2.82 0-.933.011-.944.017-.895-.944l.011.006zm11.315 6.465c-.164 1.724-.137 3.437-.197 5.16-.027.53-.18.704-.709.694-2.22-.028-4.435-.011-7.185-.011-1.68-.071-3.895.076-6.116.109-.507.01-.763-.077-.709-.66.251-2.919.109-5.832.137-8.751 0-.977-.23-1.08 1.047-1.075h12.575c1.02 0 1.157.12 1.195 1.195.027 1.113.071 2.231-.027 3.328l-.011.01z" fill="#080909"/>
    <path d="M126.608 15.498c-.147.152-.349.169-.671.196-.955.05-1.795.027-1.975.016-.273-.01-.687-.01-1.195.017-.933 0-1.876-.011-2.82 0-.933.01-.944.016-.895-.944.071-1.348.469-2.58 1.32-3.639 1.435-1.795 3.716-1.751 5.145.033.813 1.004 1.156 2.155 1.2 3.415.011.41.071.704-.12.9l.011.006z" fill="#fff"/>
    <path d="M152.107 81.368c.028.289-.24.409-.469.49-.191.072-.393.077-.507.093-.917-.027-1.953-.894-2.161-1.713-.06-.256-.076-.529.148-.687.251-.164.496.016.633.224.447.709 1.107 1.074 1.893 1.26.191.049.447.103.463.333zM152.211 70.539c.016.49-.507 1.091-.96 1.107-.48.011-.955-.463-.955-.954 0-.464.48-1.031.884-1.053.436-.027 1.015.469 1.031.9z" fill="#080909"/>
    <path d="M79.423 52.126c-8.51.164-16.738.131-24.965.17-.289 0-.578.01-.862 0-1.276-.039-1.505-.273-1.505-1.534 0-3.868.01-7.736.005-11.604 0-1.55.23-1.81 1.784-1.773 8.516.202 17.032.055 25.543.088 7.038.027 14.07 0 21.107.01 1.397 0 2.794.017 4.185.115 1.375.098 1.555.322 1.56 1.67.011 3.786.006 7.566-.016 11.352-.006 1.343-.251 1.599-1.588 1.61-4.402.033-8.805.038-13.202.044-4.114 0-8.227.038-12.057-.148h.01zM122.276 27.102c-1.68-.071-3.895.081-6.115.114-.502.011-.764-.082-.715-.666.246-2.907.115-5.826.136-8.74.006-.981-.223-1.08 1.053-1.08 4.19.006 8.38 0 12.57 0 1.02 0 1.162.12 1.189 1.195.028 1.108.077 2.226-.027 3.323-.158 1.718-.131 3.442-.196 5.166-.022.53-.18.698-.71.693-2.215-.022-4.435-.011-7.185-.011v.006zm.628-8.037a1.355 1.355 0 0 0-1.19.791c-.245.513-.283 1.092.17 1.479.447.382.485.807.463 1.315-.011.24.006.496.071.725.088.322.251.655.633.655.42 0 .469-.366.529-.698.148-.83.268-1.637.709-2.417.562-.988-.125-1.882-1.385-1.855v.005z" fill="#1F74CA"/>
    <path d="M60.841 68.651c-.016 1.015-.72 1.8-1.631 1.817-.868.016-1.631-.775-1.62-1.675.01-1.031.72-1.8 1.647-1.768 1.02.028 1.62.633 1.604 1.62v.006zM68.74 68.613a1.585 1.585 0 0 1-1.653 1.467c-.873-.027-1.45-.616-1.45-1.473.01-.96.687-1.63 1.614-1.593.884.033 1.544.753 1.495 1.604l-.006-.005zM76.4 68.313c.011.883-.567 1.516-1.39 1.533-.78.027-1.294-.557-1.288-1.44.01-.737.6-1.332 1.315-1.32.812.01 1.352.49 1.363 1.227zM84.562 68.476c-.011.824-.513 1.391-1.233 1.38-.753-.01-1.315-.556-1.337-1.314-.016-.71.584-1.451 1.2-1.468.808-.027 1.375.557 1.375 1.397l-.005.005zM92.368 68.4c.011.78-.649 1.468-1.374 1.44-.633-.027-1.217-.556-1.233-1.15-.027-.693.687-1.413 1.413-1.424.676 0 1.194.49 1.194 1.134zM100.318 68.7c-.017.672-.633 1.315-1.233 1.277-.557-.027-1.048-.627-1.053-1.293 0-.693.447-1.156 1.135-1.167.6-.011 1.167.584 1.156 1.184h-.005zM122.903 19.065c1.261-.027 1.948.867 1.386 1.855-.442.78-.567 1.587-.709 2.417-.06.333-.104.693-.529.698-.388 0-.551-.327-.633-.655a2.502 2.502 0 0 1-.071-.725c.027-.508-.016-.933-.464-1.315-.453-.387-.42-.96-.169-1.478.251-.524.715-.77 1.189-.791v-.006z" fill="#080909"/>
</svg>
