<svg width="175" height="175" viewBox="0 0 175 175" fill="none" xmlns="http://www.w3.org/2000/svg">
<path d="M103.933 6.42487e-05C98.2719 -0.00853972 46.6208 0.780157 18.3966 43.409C3.37277 66.1005 -6.70744 103.207 8.01916 123.423C12.3683 129.393 14.6476 128.08 37.8938 142.212C69.803 161.61 69.6539 166.604 82.863 171.043C100.059 176.821 125.467 176.809 144.5 162.621C166.096 146.521 169.289 119.768 172.488 92.9726C175.627 66.676 178.808 40.0324 162.11 20.4087C144.801 0.0650712 116.98 0.0210962 103.933 6.42487e-05Z" fill="#B7D5F8"/>
<path d="M170.723 116.666L70.8345 102.77C68.3268 102.449 66.4471 100.315 66.4471 97.785L65.0767 28.0871C65.0767 28.0871 67.354 26.4447 68.6441 25.8157C69.3006 25.4954 70.0566 25.3549 70.844 25.4553L170.435 38.1605C172.943 38.4807 174.823 40.6155 174.823 43.145V111.602C174.823 112.827 174.264 113.907 173.398 114.619C172.601 115.275 170.723 116.667 170.723 116.667V116.666Z" fill="#84BAF3"/>
<path d="M167.675 117.591L68.0832 104.886C65.5756 104.566 63.6958 102.431 63.6958 99.9014V31.4454C63.6958 29.0927 65.76 27.2744 68.0928 27.5726L167.684 40.2778C170.192 40.5981 172.072 42.7328 172.072 45.2624V113.719C172.072 116.072 170.007 117.89 167.675 117.592V117.591Z" fill="white"/>
<path d="M165.557 114.77L70.4624 102.639C68.639 102.406 67.2715 100.854 67.2715 99.0144V32.9808C67.2715 31.4101 68.6505 30.1951 70.2082 30.3939L165.303 42.5255C167.127 42.7578 168.494 44.3104 168.494 46.1497V112.182C168.494 113.753 167.115 114.968 165.557 114.769V114.77Z" fill="#B7D5F8"/>
<path d="M168.168 117.938C167.99 117.938 167.812 117.927 167.634 117.905L68.043 105.2C65.3844 104.86 63.3804 102.583 63.3804 99.9027V31.4457C63.3804 30.2335 63.9022 29.0796 64.811 28.2785C65.7198 27.4773 66.9306 27.1064 68.1328 27.2594L167.724 39.9646C170.383 40.3039 172.387 42.5811 172.387 45.2617V113.719C172.387 114.931 171.865 116.085 170.956 116.886C170.182 117.569 169.188 117.938 168.168 117.938ZM167.714 117.278C168.736 117.408 169.765 117.092 170.539 116.412C171.312 115.731 171.755 114.749 171.755 113.719V45.2617C171.755 42.8976 169.987 40.89 167.644 40.5907L68.0526 27.8856C67.031 27.7555 66.0008 28.071 65.2276 28.7526C64.4545 29.4333 64.0111 30.4151 64.0111 31.4457V99.9027C64.0111 102.267 65.7791 104.274 68.1233 104.574L167.715 117.279L167.714 117.278Z" fill="#1F74CA"/>
<path d="M109.573 157.907L7.14729 144.693C6.3455 144.591 5.89348 143.919 5.90399 143.247C5.91068 142.785 5.9489 139.523 5.9489 139.523L60.1067 108.551C62.8198 107 66.3308 106.401 69.43 106.798L170.562 119.848C171.171 119.927 171.692 120.322 171.934 120.887L172.097 121.267C172.097 121.267 172.01 123.987 172.045 124.623C172.073 125.12 171.849 125.632 171.328 125.93L118.53 156.129C115.817 157.679 112.672 158.302 109.573 157.906V157.907Z" fill="#84BAF3"/>
<path d="M19.7444 142.67L7.513 141.09C6.15789 140.916 5.80238 139.118 6.98835 138.441L59.5033 108.437C62.2164 106.886 65.3615 106.263 68.4607 106.659L170.52 119.848C171.876 120.022 172.231 121.82 171.045 122.497L118.53 152.501C115.817 154.052 112.672 154.675 109.573 154.279L19.7444 142.67Z" fill="white"/>
<path d="M129.556 137.623L41.0566 126.103C39.8334 125.946 39.5113 124.323 40.5826 123.711L61.391 111.942C63.8422 110.541 66.6815 109.978 69.4815 110.337L157.981 121.856C159.204 122.013 159.526 123.636 158.455 124.248L137.646 136.018C135.195 137.418 132.356 137.981 129.556 137.623Z" fill="#B7D5F8"/>
<path d="M111.376 154.709C110.761 154.709 110.146 154.67 109.533 154.591L59.5533 148.178C59.3804 148.156 59.258 147.998 59.281 147.825C59.303 147.652 59.4626 147.531 59.6336 147.551L109.613 153.964C112.625 154.35 115.736 153.733 118.374 152.226L170.889 122.222C171.399 121.931 171.501 121.423 171.426 121.044C171.351 120.666 171.063 120.236 170.48 120.161L68.4199 106.972C65.4086 106.586 62.2961 107.203 59.6594 108.71L52.3018 112.915C52.1509 113.001 51.9578 112.948 51.8709 112.797C51.7839 112.646 51.8374 112.453 51.9884 112.366L59.346 108.161C62.1021 106.587 65.3541 105.942 68.5002 106.345L170.56 119.534C171.314 119.63 171.897 120.175 172.044 120.921C172.192 121.667 171.861 122.392 171.201 122.77L118.686 152.774C116.466 154.042 113.925 154.707 111.375 154.707L111.376 154.709Z" fill="#84BAF3"/>
<path d="M157.642 111.526L78.9913 101.575C77.6371 101.404 76.54 100.106 76.54 98.6758V2.66893C76.54 1.23876 77.6371 0.218708 78.9913 0.389832L157.642 10.3408C158.997 10.5119 160.094 11.8102 160.094 13.2403V109.248C160.094 110.678 158.997 111.698 157.642 111.527V111.526Z" fill="#84BAF3"/>
<path d="M157.939 111.861C157.828 111.861 157.716 111.853 157.604 111.84L78.9525 101.889C77.4483 101.699 76.2251 100.258 76.2251 98.6768V2.66893C76.2251 1.86302 76.5328 1.14794 77.0909 0.655602C77.6175 0.190988 78.3075 -0.0135956 79.0318 0.0772241L157.683 10.0291C159.187 10.2194 160.41 11.6601 160.41 13.2413V109.249C160.41 110.055 160.103 110.77 159.545 111.262C159.1 111.654 158.539 111.862 157.939 111.862V111.861ZM157.683 111.213C158.226 111.282 158.738 111.131 159.127 110.787C159.547 110.416 159.779 109.87 159.779 109.247V13.2403C159.779 11.966 158.803 10.8064 157.604 10.6544L78.9516 0.703402C78.4088 0.633614 77.8965 0.785617 77.5076 1.12882C77.0871 1.49975 76.8558 2.04658 76.8558 2.66893V98.6768C76.8558 99.9511 77.8315 101.111 79.0309 101.263L157.682 111.214L157.683 111.213Z" fill="black"/>
<path d="M145.384 58.4123L91.4523 51.5884C90.8884 51.5167 90.4307 50.9765 90.4307 50.381V45.2033C90.4307 44.6077 90.8875 44.1823 91.4523 44.254L145.384 51.0779C145.948 51.1496 146.406 51.6897 146.406 52.2853V57.463C146.406 58.0586 145.948 58.484 145.384 58.4123Z" fill="white"/>
<path d="M145.793 73.1337L91.4533 66.2582C91.0013 66.2008 90.6353 65.7677 90.6353 65.2907V59.6828C90.6353 59.2058 91.0013 58.8655 91.4533 58.9228L145.793 65.7983C146.245 65.8557 146.611 66.2888 146.611 66.7658V72.3737C146.611 72.8507 146.245 73.1911 145.793 73.1337Z" fill="white"/>
<path d="M137.316 87.3797L99.5218 82.5978C98.9016 82.5195 98.3989 81.9248 98.3989 81.27V76.3064C98.3989 75.6516 98.9016 75.1841 99.5218 75.2625L137.316 80.0444C137.936 80.1228 138.439 80.7174 138.439 81.3723V86.3358C138.439 86.9906 137.936 87.4581 137.316 87.3797Z" fill="#B7D5F8"/>
<path d="M126.92 38.2333C131.67 34.1953 131.826 26.5743 127.27 21.2115C122.714 15.8486 115.17 14.7745 110.421 18.8126C105.671 22.8506 105.514 30.4715 110.07 35.8344C114.626 41.1973 122.17 42.2713 126.92 38.2333Z" fill="#1F74CA"/>
<path d="M121.348 30.2335C123.005 28.8241 123.06 26.1641 121.47 24.2921C119.879 22.4201 117.246 22.0451 115.589 23.4545C113.931 24.8638 113.876 27.5239 115.467 29.3959C117.057 31.2679 119.69 31.6429 121.348 30.2335Z" fill="white"/>
<path d="M109.946 35.685C111.369 34.2711 113.097 32.8859 114.938 32.058C115.382 31.8582 115.91 31.8649 116.397 32.079C118.27 32.9021 119.727 32.8084 121.346 32.3974C121.739 32.2979 122.175 32.3687 122.55 32.6029C124.574 33.8658 126.325 35.4862 127.657 37.5397C122.398 42.8282 113.974 40.9516 109.947 35.685H109.946Z" fill="white"/>
<path d="M118.671 41.1047C111.82 40.274 106.247 33.9529 106.247 27.0153C106.247 20.0776 111.82 15.1093 118.671 15.941C125.521 16.7718 131.094 23.0928 131.094 30.0305C131.094 36.9682 125.521 41.9365 118.671 41.1047ZM118.671 16.9668C112.379 16.203 107.259 20.7669 107.259 27.1386C107.259 33.5103 112.379 39.3161 118.671 40.0799C124.963 40.8438 130.082 36.2798 130.082 29.9081C130.082 23.5364 124.963 17.7306 118.671 16.9668Z" fill="#B7D5F8"/>
<path d="M18.6744 87.5148C15.7596 88.597 13.2854 90.8741 11.6016 93.8731C7.30498 101.524 -3.90769 123.948 1.39618 141.263C7.8927 162.473 62.815 161.905 77.1287 152.878C80.765 150.585 95.6445 135.114 76.5468 122.255C59.0421 110.467 51.8068 119.12 43.7354 114.476C35.664 109.832 29.8335 91.1944 26.8557 88.5463C24.932 86.836 21.9408 86.3016 18.6744 87.5148Z" fill="#1F74CA"/>
<path d="M35.5695 138.552C35.4892 138.552 35.408 138.521 35.3468 138.459C28.0896 131.204 11.2118 130.345 11.0427 130.337C10.8687 130.329 10.734 130.181 10.7426 130.007C10.7502 129.833 10.9022 129.702 11.0723 129.706C11.7747 129.739 28.3648 130.586 35.794 138.012C35.9173 138.135 35.9173 138.335 35.794 138.458C35.7329 138.519 35.6517 138.551 35.5704 138.551L35.5695 138.552Z" fill="#84BAF3"/>
<path d="M52.5713 138.951C52.5283 138.951 52.4853 138.942 52.4432 138.923C46.7838 136.405 42.7892 138.663 42.7491 138.687C42.599 138.775 42.406 138.724 42.3181 138.573C42.2302 138.423 42.2808 138.23 42.4309 138.142C42.6038 138.04 46.7294 135.689 52.6993 138.346C52.8589 138.417 52.9306 138.603 52.8589 138.763C52.8064 138.881 52.6917 138.951 52.5703 138.951H52.5713Z" fill="#84BAF3"/>
<path d="M78.3448 152.372C78.3954 152.538 84.459 159.392 84.459 159.392L80.4166 160.984L75.5342 155.039L78.3448 152.372Z" fill="white"/>
<path d="M80.4162 161.301C80.3235 161.301 80.2337 161.259 80.1725 161.185L75.2901 155.24C75.1849 155.111 75.1964 154.924 75.3168 154.81L78.1274 152.143C78.2067 152.068 78.3195 152.04 78.4256 152.067C78.5106 152.09 78.5813 152.146 78.6224 152.221C78.8671 152.569 82.3772 156.563 84.6956 159.183C84.7634 159.26 84.7902 159.366 84.7663 159.466C84.7424 159.566 84.6707 159.649 84.5752 159.686L80.5328 161.278C80.4955 161.292 80.4563 161.3 80.4171 161.3L80.4162 161.301ZM75.9638 155.066L80.5137 160.607L83.9234 159.263C80.1218 154.963 78.7887 153.416 78.3137 152.835L75.9638 155.065V155.066Z" fill="black"/>
<path d="M80.3479 158.193C80.5037 157.85 80.7732 157.458 81.2367 157.209C81.9353 156.833 82.8001 156.961 83.4098 157.469C84.9341 158.738 89.0692 162.329 91.4096 165.767C92.2362 166.982 91.7546 168.529 89.7888 168.423C86.5664 168.248 81.4785 166.729 77.329 162.856C76.8531 162.411 76.6295 161.755 76.7499 161.115C76.8483 160.592 77.0079 159.938 77.264 159.322C77.5087 158.735 78.1499 158.417 78.7682 158.564L79.3254 158.697C79.744 158.797 80.1721 158.584 80.3489 158.192L80.3479 158.193Z" fill="white"/>
<path d="M89.9831 168.744C89.9143 168.744 89.8445 168.742 89.7719 168.738C86.3831 168.554 81.278 166.974 77.1133 163.087C76.5514 162.562 76.2991 161.804 76.4386 161.058C76.5686 160.364 76.7483 159.739 76.9709 159.203C77.2748 158.472 78.0604 158.074 78.8392 158.259L79.3964 158.392C79.6649 158.455 79.9449 158.319 80.0596 158.064C80.287 157.562 80.6425 157.17 81.0869 156.931C81.8753 156.507 82.8902 156.626 83.6108 157.228C85.2536 158.596 89.3285 162.151 91.6698 165.591C92.1648 166.318 92.2489 167.167 91.8896 167.805C91.687 168.164 91.1748 168.745 89.9821 168.745L89.9831 168.744ZM78.4589 158.845C78.068 158.845 77.7087 159.074 77.5539 159.445C77.3474 159.942 77.1812 160.523 77.0588 161.174C76.9585 161.707 77.1401 162.25 77.5434 162.626C81.5848 166.398 86.5274 167.93 89.8053 168.108C90.5507 168.15 91.0945 167.93 91.3401 167.494C91.5809 167.067 91.5073 166.473 91.148 165.945C88.8516 162.571 84.8302 159.063 83.2075 157.712C82.6819 157.274 81.9499 157.184 81.386 157.487C81.0602 157.663 80.8069 157.944 80.6349 158.324C80.396 158.853 79.8121 159.141 79.2511 159.006L78.694 158.873C78.6146 158.854 78.5363 158.845 78.4589 158.845Z" fill="black"/>
<path d="M89.1189 167.149C87.2496 167.149 83.7223 166.352 78.1509 162.127C78.0123 162.022 77.9846 161.824 78.0897 161.685C78.1948 161.546 78.3926 161.519 78.5322 161.623C86.9744 168.025 90.4425 166.317 90.4759 166.299C90.6298 166.218 90.8209 166.276 90.9021 166.431C90.9834 166.585 90.9251 166.776 90.7703 166.858C90.7148 166.887 90.1873 167.148 89.1179 167.148L89.1189 167.149Z" fill="black"/>
<path d="M85.6177 163.525C85.5412 163.525 85.4638 163.497 85.4036 163.441C85.2755 163.322 85.2678 163.122 85.3864 162.994L87.023 161.227C87.1416 161.099 87.3414 161.091 87.4695 161.21C87.5976 161.328 87.6052 161.528 87.4867 161.656L85.85 163.424C85.7879 163.491 85.7028 163.525 85.6187 163.525H85.6177Z" fill="black"/>
<path d="M84.1698 162.335C84.0895 162.335 84.0092 162.304 83.9471 162.243C83.8238 162.121 83.8228 161.92 83.9452 161.796L85.7472 159.979C85.8696 159.856 86.0694 159.855 86.1937 159.977C86.317 160.1 86.318 160.301 86.1956 160.424L84.3935 162.241C84.3324 162.303 84.2511 162.335 84.1698 162.335Z" fill="black"/>
<path d="M65.7004 156.038L63.8378 164.216L60.7769 161.885L62.1922 154.023L65.7004 156.038Z" fill="white"/>
<path d="M63.837 164.532C63.7692 164.532 63.7013 164.51 63.6459 164.468L60.5849 162.136C60.4903 162.065 60.4445 161.946 60.4655 161.83L61.8808 153.968C61.899 153.867 61.9649 153.781 62.0586 153.738C62.1522 153.695 62.2602 153.699 62.3491 153.75L65.8573 155.765C65.9777 155.834 66.0388 155.973 66.0083 156.109L64.1467 164.287C64.1228 164.392 64.0473 164.478 63.9469 164.514C63.9116 164.526 63.8752 164.533 63.8389 164.533L63.837 164.532ZM61.1201 161.751L63.6373 163.669L65.3384 156.196L62.4207 154.521L61.1191 161.751H61.1201Z" fill="black"/>
<path d="M64.8922 162.733C64.7049 165.278 64.2557 170.396 62.332 174.025C61.8159 174.998 59.8005 174.925 59.0694 173.598C57.5442 170.831 55.5946 166.128 56.7414 160.451C56.8313 160.007 57.1275 159.632 57.5375 159.442C58.0191 159.219 58.7808 158.939 59.8645 158.741C60.4044 158.643 60.9167 159.021 60.9826 159.567L61.2244 161.568L61.4796 161.236C61.8628 160.736 62.5375 160.563 63.1137 160.817C63.4243 160.953 63.7674 161.103 64.077 161.24C64.6571 161.495 64.94 162.102 64.8931 162.734L64.8922 162.733Z" fill="white"/>
<path d="M60.9958 175C60.0756 175 59.2126 174.512 58.7931 173.751C56.3351 169.293 55.541 164.798 56.4316 160.388C56.5415 159.848 56.9047 159.387 57.4045 159.155C57.8699 158.939 58.6641 158.638 59.807 158.43C60.1501 158.368 60.5066 158.45 60.7866 158.657C61.0675 158.865 61.2529 159.182 61.295 159.528L61.4488 160.806C61.9333 160.377 62.6291 160.258 63.2397 160.526L64.203 160.95C64.872 161.243 65.2657 161.953 65.2064 162.756C64.9675 166.004 64.4391 170.722 62.6099 174.171C62.3385 174.684 61.7422 174.993 61.0159 174.998C61.0092 174.998 61.0016 174.998 60.9949 174.998L60.9958 175ZM60.0364 159.041C59.9981 159.041 59.9599 159.045 59.9207 159.051C58.8428 159.248 58.1021 159.528 57.6702 159.728C57.3519 159.875 57.1207 160.169 57.0509 160.513C56.1908 164.772 56.963 169.123 59.3464 173.446C59.7258 174.134 60.475 174.375 61.0121 174.368C61.4956 174.364 61.8951 174.176 62.0538 173.876C64.032 170.145 64.4285 164.743 64.5776 162.71C64.6178 162.169 64.3769 161.716 63.9498 161.528L62.9865 161.105C62.5421 160.91 62.0251 161.043 61.7288 161.428L61.4737 161.76C61.3953 161.861 61.2644 161.906 61.1401 161.872C61.0169 161.838 60.9261 161.732 60.9098 161.605L60.6681 159.604C60.647 159.427 60.5553 159.271 60.4119 159.165C60.3011 159.083 60.1702 159.041 60.0354 159.041H60.0364Z" fill="black"/>
<path d="M60.6546 173.407C60.5504 173.407 60.4482 173.356 60.3879 173.261C56.8186 167.653 57.6271 161.195 57.6634 160.923C57.6863 160.75 57.8421 160.628 58.0179 160.651C58.1909 160.674 58.3123 160.833 58.2893 161.006C58.2807 161.07 57.478 167.514 60.9212 172.923C61.0149 173.07 60.9718 173.265 60.8247 173.359C60.7721 173.392 60.7138 173.408 60.6555 173.408L60.6546 173.407Z" fill="black"/>
<path d="M64.2655 166.537C64.2368 166.537 64.2072 166.534 64.1776 166.525L61.797 165.839C61.6298 165.79 61.5333 165.616 61.5811 165.448C61.6298 165.28 61.8047 165.184 61.9719 165.231L64.3525 165.918C64.5197 165.967 64.6162 166.141 64.5684 166.309C64.5283 166.447 64.4022 166.537 64.2655 166.537Z" fill="black"/>
<path d="M63.8078 168.609C63.7705 168.609 63.7333 168.602 63.697 168.588L61.4483 167.742C61.2849 167.681 61.2027 167.499 61.2639 167.336C61.325 167.173 61.5076 167.09 61.67 167.152L63.9187 167.998C64.0821 168.059 64.1643 168.241 64.1031 168.404C64.0553 168.53 63.9349 168.609 63.8078 168.609Z" fill="black"/>
<path d="M44.9418 118.672C44.9418 118.672 56.3379 117.316 66.6054 123.127C69.1934 124.591 70.7807 127.347 70.7645 130.321C70.732 136.226 70.107 147.02 66.4908 156.39C66.2853 156.923 65.6746 157.175 65.1519 156.943L60.5304 154.896C60.2198 154.759 60 154.474 59.9474 154.138C59.6072 151.974 58.4595 143.742 59.6101 137.77C60.9451 130.839 38.6211 123.493 38.6211 123.493L44.9418 118.671V118.672Z" fill="black"/>
<path d="M79.59 153.813L75.4712 156.522C75.196 156.702 74.8299 156.657 74.6082 156.414C72.0738 153.635 57.7668 138.025 54.1793 135.981C50.2391 133.737 42.8777 130.357 36.191 130.397C29.5053 130.437 28.0947 125.791 28.0947 125.791L37.6293 119.629C37.6293 119.629 54.1276 121.498 61.0991 127.17C67.394 132.292 77.8316 149.599 79.7984 152.912C79.9809 153.22 79.8892 153.616 79.59 153.813Z" fill="black"/>
<path d="M70.6903 138.574C70.5919 138.574 70.4954 138.528 70.4342 138.442C67.6542 134.572 63.328 129.389 60.9006 127.413C58.2745 125.277 53.9827 123.435 48.1465 121.938C47.9774 121.895 47.8761 121.723 47.9191 121.554C47.9621 121.385 48.1331 121.283 48.3032 121.327C54.2292 122.846 58.6013 124.728 61.2991 126.923C63.7676 128.932 68.1426 134.169 70.9465 138.073C71.0478 138.214 71.0162 138.411 70.8748 138.514C70.8194 138.554 70.7544 138.573 70.6913 138.573L70.6903 138.574Z" fill="#1F74CA"/>
<path d="M37.4793 104.61L38.7007 107.124C40.1542 110.116 42.3895 112.658 45.1695 114.481L46.2962 115.22C47.0187 115.695 47.8778 115.915 48.7388 115.848L48.8707 115.837C50.1866 115.735 51.494 116.119 52.5452 116.917L49.5894 117.868C47.787 118.447 45.825 118.311 44.1364 117.455C42.5185 116.634 40.5412 115.287 38.8918 113.139C35.4371 108.637 34.6382 105.864 34.6382 105.864L37.4803 104.611L37.4793 104.61Z" fill="white"/>
<path d="M47.345 118.538C46.1867 118.538 45.0438 118.268 43.9925 117.736C41.8509 116.649 40.0495 115.167 38.6409 113.33C35.1891 108.832 34.3672 106.067 34.3338 105.951C34.2898 105.799 34.3653 105.638 34.5096 105.575L37.3517 104.322C37.5075 104.253 37.6891 104.32 37.7626 104.473L38.984 106.987C40.4117 109.927 42.6107 112.427 45.3419 114.218L46.4686 114.957C47.129 115.39 47.926 115.594 48.7135 115.534L48.8444 115.523C50.2387 115.412 51.6196 115.821 52.7339 116.667C52.8275 116.737 52.8744 116.855 52.8543 116.972C52.8342 117.087 52.752 117.183 52.6402 117.219L49.6844 118.17C48.9141 118.417 48.1257 118.54 47.345 118.54V118.538ZM35.0285 106.035C35.3152 106.818 36.3626 109.326 39.1407 112.946C40.492 114.707 42.2208 116.129 44.2773 117.172C45.8886 117.99 47.7396 118.129 49.4914 117.566L51.8241 116.817C50.9411 116.305 49.9204 116.072 48.8941 116.151L48.7622 116.162C47.8352 116.235 46.8987 115.993 46.1217 115.484L44.995 114.745C42.1682 112.892 39.8937 110.304 38.4154 107.262L37.3269 105.022L35.0285 106.036V106.035Z" fill="black"/>
<path d="M33.7165 128.718C33.7165 128.718 29.9694 131.58 27.909 130.756C25.8486 129.933 29.395 126.408 30.4395 126.271C31.4841 126.134 33.7165 128.717 33.7165 128.717V128.718Z" fill="black"/>
<path d="M34.3687 86.5025C36.0545 86.2683 37.9763 87.7453 37.7852 90.2624C37.6294 92.3188 35.4849 92.9402 34.492 94.0386C31.282 97.5901 34.363 101.445 31.8535 104.988C29.4634 108.362 25.8348 106.039 20.9781 109.915C17.1555 112.965 31.0517 108.33 26.1864 111.549C22.3055 114.116 15.0235 113.901 10.9094 109.183C6.99694 104.695 6.09671 97.9582 10.1057 94.7078C13.7094 91.7853 16.2534 95.1944 20.0961 92.4526C23.8843 89.75 22.8426 87.1296 25.2088 86.0006C28.4446 84.4567 29.5886 87.1669 34.3678 86.5034L34.3687 86.5025Z" fill="black"/>
<path d="M14.4268 111.641C14.6418 110.377 14.9543 108.89 15.2735 107.91C16.2549 104.894 16.9239 102.931 20.2878 101.138C20.7914 100.869 21.3199 100.651 21.8617 100.471L23.8944 99.7918C23.8944 99.7918 32.2841 97.3913 35.6451 100.636C35.9175 100.899 36.2615 101.195 36.4823 101.543L38.6717 104.845L38.6516 104.854C36.7059 105.649 35.8917 107.976 36.9324 109.803C38.1288 111.903 39.7783 114.356 41.4192 115.376C41.9371 115.699 46.1143 117.416 46.1143 117.416C46.1143 117.416 47.1397 120.542 40.712 123.222C34.2843 125.903 29.6006 126.874 28.2522 130.184C27.4542 132.144 24.204 122.749 22.1112 113.946C21.7088 112.252 20.1244 111.112 18.3918 111.273L14.4277 111.641H14.4268Z" fill="white"/>
<path d="M27.9788 130.761C27.9645 130.761 27.9502 130.761 27.9377 130.759C27.6339 130.735 26.9219 130.681 25.0307 125.254C23.9202 122.067 22.7447 117.972 21.8053 114.019C21.4412 112.487 19.9839 111.441 18.4214 111.587L14.4573 111.955C14.3608 111.965 14.2633 111.927 14.1964 111.855C14.1295 111.784 14.0999 111.684 14.1171 111.588C14.3713 110.093 14.6915 108.681 14.9743 107.812C15.9338 104.862 16.6276 102.731 20.1406 100.858C20.6347 100.594 21.165 100.369 21.7623 100.169L23.795 99.4905C24.1581 99.3863 32.4131 97.0747 35.8639 100.407C35.9098 100.451 35.9576 100.496 36.0063 100.542C36.2586 100.78 36.5444 101.05 36.7489 101.372L38.9354 104.669C38.988 104.749 39.0013 104.846 38.9736 104.937C38.9459 105.028 38.879 105.1 38.7911 105.137L38.771 105.145C37.9234 105.492 37.2659 106.187 36.9677 107.053C36.6715 107.913 36.7584 108.858 37.2066 109.646C38.7873 112.421 40.302 114.309 41.5864 115.109C41.9505 115.335 44.5651 116.437 46.2347 117.124C46.3197 117.159 46.3857 117.23 46.4143 117.317C46.4602 117.456 47.455 120.753 40.8343 123.514C39.3855 124.118 37.9989 124.646 36.7756 125.11C32.5746 126.709 29.5394 127.864 28.5455 130.303C28.3869 130.692 28.1375 130.762 27.9788 130.762V130.761ZM18.7119 110.942C20.4512 110.942 22.0098 112.151 22.4198 113.873C24.4382 122.363 27.0461 129.552 27.9435 130.105C27.9492 130.094 27.955 130.081 27.9626 130.064C29.0597 127.37 32.2028 126.175 36.553 124.519C37.7724 124.056 39.1533 123.53 40.5925 122.93C45.8906 120.72 45.9183 118.236 45.84 117.642C45.0028 117.297 41.7393 115.945 41.2538 115.643C39.8614 114.777 38.3152 112.864 36.659 109.957C36.12 109.011 36.0159 107.877 36.3714 106.846C36.6896 105.922 37.349 105.161 38.2062 104.711L36.2194 101.715C36.0541 101.455 35.7989 101.214 35.5734 101.001C35.5228 100.953 35.4731 100.906 35.4262 100.86C32.2334 97.7783 24.0645 100.069 23.9813 100.093L21.9621 100.768C21.3992 100.956 20.8994 101.167 20.4368 101.414C17.1484 103.167 16.5215 105.093 15.5745 108.006C15.326 108.769 15.046 109.975 14.81 111.288L18.3631 110.958C18.4797 110.947 18.5962 110.941 18.7119 110.941V110.942Z" fill="black"/>
<path d="M39.4763 119.545L36.3637 118.658C35.9012 118.526 35.4033 118.645 35.0497 118.971L33.6974 120.223C33.4394 120.462 33.1002 120.591 32.7485 120.588C31.2147 120.571 24.1428 118.931 23.3697 117.758C22.9874 117.178 22.4064 115.147 21.9687 113.466C21.6018 112.056 20.2686 111.121 18.8189 111.257L15.6968 111.55C15.6968 111.55 17.0347 119.037 19.7277 121.306C21.8187 123.068 26.5453 123.743 33.3018 122.957C33.3018 122.957 34.7104 122.718 35.819 121.233C36.5271 120.285 38.4021 120.649 39.4839 120.319C39.8681 120.201 39.8633 119.657 39.4772 119.547L39.4763 119.545Z" fill="white"/>
<path d="M28.1222 123.597C24.1046 123.597 21.1307 122.9 19.5252 121.548C16.7758 119.232 15.4426 111.916 15.3872 111.605C15.3719 111.518 15.3929 111.429 15.4464 111.359C15.5 111.288 15.5802 111.244 15.6682 111.235L18.7903 110.943C20.4015 110.793 21.8665 111.819 22.2746 113.385C23.0764 116.46 23.4701 117.335 23.6335 117.584C24.2872 118.576 31.0685 120.254 32.7523 120.272C33.018 120.275 33.2846 120.176 33.4834 119.991L34.8357 118.74C35.2667 118.341 35.8859 118.193 36.4498 118.355L39.5623 119.242C39.871 119.33 40.0803 119.605 40.0832 119.926C40.086 120.247 39.8815 120.527 39.5747 120.62C39.1619 120.746 38.6764 120.778 38.1623 120.811C37.3175 120.865 36.444 120.921 36.0704 121.421C34.8997 122.989 33.4156 123.257 33.3535 123.267C31.4603 123.488 29.7086 123.597 28.1213 123.597H28.1222ZM16.0733 111.831C16.3706 113.302 17.675 119.163 19.9313 121.064C22.007 122.812 26.8674 123.388 33.2655 122.642C33.2655 122.642 34.5538 122.398 35.5667 121.043C36.1143 120.309 37.1818 120.24 38.1231 120.18C38.599 120.149 39.0491 120.12 39.3922 120.015C39.4333 120.003 39.4543 119.974 39.4543 119.931C39.4543 119.888 39.4324 119.859 39.3913 119.848L36.2787 118.961C35.9242 118.859 35.5362 118.952 35.2657 119.203L33.9135 120.454C33.601 120.744 33.1939 120.902 32.7657 120.902H32.7476C31.2376 120.886 23.9728 119.242 23.1089 117.931C22.7801 117.432 22.2946 115.956 21.6658 113.544C21.3361 112.278 20.153 111.451 18.8505 111.57L16.0753 111.83L16.0733 111.831Z" fill="black"/>
<path d="M24.243 99.8456C24.243 99.8456 25.9957 94.1928 26.0559 93.5064C26.0559 93.5064 25.4978 93.2119 25.5293 92.3515C25.5886 90.7149 27.2122 91.5256 27.2122 91.5256L27.3718 91.5638C28.3026 91.7885 29.2783 91.7397 30.1833 91.4242L32.0822 90.7617C32.0822 90.7617 32.4798 91.4596 32.0172 92.8066C31.7965 93.449 31.8395 94.1947 31.9561 94.9748C31.9867 95.1803 31.8452 95.3725 31.6398 95.404L31.1323 95.4815C30.8676 96.0962 30.6306 96.4614 30.1919 96.8562C30.0715 96.9642 29.9139 97.0235 29.7533 97.0149C29.5345 97.0034 29.1971 96.9566 28.8187 96.7979L28.5329 99.1965L29.7925 99.1659C29.7925 99.1659 30.2464 100.669 27.8611 101.757C26.5442 102.357 24.6797 102.236 23.273 102.005C22.5515 101.888 22.3718 100.933 23.0045 100.565L24.244 99.8446L24.243 99.8456Z" fill="white"/>
<path d="M25.4023 102.508C24.6292 102.508 23.8656 102.422 23.2205 102.317C22.758 102.242 22.4035 101.895 22.3184 101.435C22.2343 100.976 22.4398 100.528 22.844 100.293L23.9765 99.6346C24.6215 97.5505 25.539 94.4818 25.7119 93.6434C25.4969 93.4503 25.1854 93.0459 25.2112 92.3404C25.2322 91.7725 25.4224 91.3767 25.7788 91.1655C26.3589 90.8213 27.1273 91.1387 27.3155 91.2266L27.4426 91.2572C28.317 91.4675 29.2268 91.4226 30.0754 91.1263L31.9743 90.4638C32.1177 90.414 32.2773 90.4733 32.3528 90.6052C32.3719 90.6387 32.8153 91.4436 32.3117 92.9092C32.0976 93.5335 32.1674 94.2801 32.2648 94.9283C32.3212 95.3049 32.0613 95.6586 31.6848 95.716L31.3474 95.7676C31.0798 96.3536 30.8208 96.7131 30.3994 97.0917C30.2159 97.2561 29.9741 97.3421 29.7333 97.3307C29.5689 97.3221 29.3425 97.2953 29.0825 97.2236L28.8866 98.8717L29.7821 98.8497C29.9264 98.8564 30.0506 98.9387 30.0917 99.0744C30.1137 99.1471 30.5963 100.855 27.9893 102.044C27.2314 102.39 26.3092 102.508 25.4013 102.508H25.4023ZM26.3962 91.6406C26.2872 91.6406 26.185 91.6597 26.1018 91.7085C25.9432 91.8031 25.8562 92.0239 25.8438 92.3633C25.8209 93 26.1917 93.2208 26.207 93.2294C26.313 93.2906 26.3799 93.4111 26.3694 93.5335C26.3083 94.2332 24.7247 99.3564 24.5441 99.9386C24.5202 100.014 24.4696 100.078 24.4017 100.118L23.1623 100.839C22.9014 100.99 22.9262 101.246 22.9405 101.321C22.9692 101.477 23.0848 101.657 23.3238 101.695C24.6378 101.909 26.4698 102.046 27.7293 101.47C29.2889 100.759 29.5059 99.8975 29.5116 99.4893L28.5388 99.5132C28.447 99.5084 28.3591 99.4778 28.2979 99.41C28.2368 99.3421 28.2071 99.2513 28.2177 99.1604L28.5034 96.7619C28.5149 96.6634 28.5722 96.5764 28.6582 96.5267C28.7433 96.477 28.8474 96.4703 28.9392 96.5085C29.2765 96.65 29.5766 96.6921 29.7677 96.7016C29.8461 96.7074 29.9197 96.6768 29.9789 96.6242C30.366 96.2762 30.5838 95.9569 30.8409 95.3584C30.8839 95.259 30.9757 95.1873 31.0827 95.1711L31.5901 95.0936C31.6236 95.0879 31.6475 95.0564 31.6427 95.0229C31.5347 94.2992 31.4583 93.4579 31.7173 92.7056C31.9715 91.9656 31.9409 91.4494 31.8826 91.1674L30.2857 91.7247C29.3224 92.0612 28.2893 92.1119 27.2964 91.8729L27.1368 91.8346C27.1139 91.8289 27.0909 91.8213 27.0699 91.8098C26.9562 91.7534 26.659 91.6425 26.3952 91.6425L26.3962 91.6406Z" fill="black"/>
<path d="M28.8163 97.1145C28.7714 97.1145 28.7255 97.105 28.6825 97.0849L28.3336 96.9214C28.1758 96.8477 28.1079 96.6593 28.1816 96.5015C28.2552 96.3437 28.4435 96.2749 28.6012 96.3495L28.9502 96.513C29.1079 96.5866 29.1758 96.775 29.1022 96.9328C29.0486 97.0476 28.9349 97.1145 28.8163 97.1145Z" fill="black"/>
<path d="M54.4906 116.595L40.1157 120.967L44.915 104.649C45.0928 104.036 45.5782 103.548 46.2013 103.359L57.867 99.8102C58.6076 99.5846 59.2995 100.242 59.0883 100.972L54.4887 116.596L54.4906 116.595Z" fill="black"/>
<path d="M51.0648 110.161C50.8947 110.749 50.3297 111.355 49.8029 111.516C49.2762 111.676 48.9865 111.329 49.1557 110.741C49.3259 110.153 49.8909 109.547 50.4176 109.386C50.9444 109.225 51.234 109.572 51.0648 110.161Z" fill="white"/>
<path d="M53.9884 117.694L31.4388 124.554C30.9734 124.695 30.4803 124.432 30.3389 123.966L30.272 123.845L54.5083 116.473L54.5752 116.593C54.7166 117.06 54.4538 117.553 53.9884 117.694Z" fill="black"/>
<path d="M69.0063 36.5579L86.2176 41.5616L98.4299 27.9692L69.0063 36.5579Z" fill="white"/>
<path d="M77.5836 44.6353L75.1802 38.3525L91.1797 31.8125L78.2058 39.232L81.8038 40.2778L77.5836 44.6353Z" fill="#B7D5F8"/>
<path d="M77.9925 42.8309C77.981 42.8309 77.9686 42.8309 77.9571 42.829C77.7966 42.8099 77.6819 42.6636 77.702 42.503L78.0432 39.6886C78.0623 39.528 78.2113 39.4113 78.369 39.4333C78.5296 39.4524 78.6443 39.5987 78.6242 39.7593L78.283 42.5738C78.2649 42.7229 78.1387 42.8319 77.9925 42.8319V42.8309Z" fill="white"/>
<path d="M5.60479 85.7336C5.52449 85.7336 5.44323 85.703 5.38204 85.6408C5.25872 85.5174 5.25872 85.3175 5.38204 85.1942L6.11625 84.4597C6.23957 84.3363 6.43937 84.3363 6.5627 84.4597C6.68602 84.5831 6.68602 84.783 6.5627 84.9063L5.82849 85.6408C5.76731 85.702 5.68605 85.7336 5.60575 85.7336H5.60479Z" fill="black"/>
<path d="M8.37676 82.9596C8.29646 82.9596 8.2152 82.929 8.15402 82.8669C8.03069 82.7435 8.03069 82.5436 8.15402 82.4203L8.88822 81.6858C9.01154 81.5624 9.21135 81.5624 9.33467 81.6858C9.45799 81.8092 9.45799 82.009 9.33467 82.1324L8.60047 82.8669C8.53928 82.9281 8.45802 82.9596 8.37772 82.9596H8.37676Z" fill="black"/>
<path d="M9.11097 85.7336C9.03066 85.7336 8.9494 85.703 8.88822 85.6408L8.15402 84.9063C8.03069 84.783 8.03069 84.5831 8.15402 84.4597C8.27734 84.3363 8.47714 84.3363 8.60047 84.4597L9.33467 85.1942C9.45799 85.3175 9.45799 85.5174 9.33467 85.6408C9.27349 85.702 9.19223 85.7336 9.11192 85.7336H9.11097Z" fill="black"/>
<path d="M6.33802 82.9596C6.25771 82.9596 6.17645 82.929 6.11527 82.8669L5.38107 82.1324C5.25774 82.009 5.25774 81.8092 5.38107 81.6858C5.50439 81.5624 5.70419 81.5624 5.82752 81.6858L6.56172 82.4203C6.68504 82.5436 6.68504 82.7435 6.56172 82.8669C6.50054 82.9281 6.41928 82.9596 6.33897 82.9596H6.33802Z" fill="black"/>
<path d="M41.1846 8.43058C41.0976 8.43058 41.0106 8.39423 40.9485 8.32442C40.8328 8.1934 40.8452 7.99449 40.9752 7.87877L41.7525 7.1902C41.8834 7.07449 42.0832 7.08692 42.198 7.21698C42.3136 7.348 42.3012 7.54692 42.1712 7.66264L41.394 8.3512C41.3337 8.40475 41.2592 8.43058 41.1846 8.43058Z" fill="black"/>
<path d="M44.1206 5.83145C44.0336 5.83145 43.9467 5.79511 43.8845 5.7253C43.7688 5.59428 43.7813 5.39536 43.9113 5.27965L44.6885 4.59108C44.8195 4.47537 45.0193 4.4878 45.134 4.61786C45.2497 4.74888 45.2372 4.9478 45.1072 5.06351L44.33 5.75208C44.2698 5.80563 44.1952 5.83145 44.1206 5.83145Z" fill="black"/>
<path d="M44.6849 8.64403C44.5979 8.64403 44.5109 8.60769 44.4488 8.53787L43.7605 7.76037C43.6448 7.62935 43.6572 7.43043 43.7873 7.31472C43.9182 7.199 44.1171 7.21143 44.2327 7.34149L44.9211 8.119C45.0367 8.25001 45.0243 8.44893 44.8943 8.56465C44.8341 8.61821 44.7595 8.64403 44.6849 8.64403Z" fill="black"/>
<path d="M42.0863 5.70653C41.9993 5.70653 41.9123 5.67019 41.8502 5.60037L41.1619 4.82287C41.0462 4.69281 41.0586 4.49293 41.1886 4.37722C41.3196 4.2615 41.5194 4.27393 41.6341 4.40399L42.3224 5.1815C42.4381 5.31252 42.4257 5.51143 42.2957 5.62715C42.2354 5.68071 42.1609 5.70653 42.0863 5.70653Z" fill="black"/>
<path d="M33.7173 17.9861C33.6839 17.9861 33.6514 17.9852 33.6179 17.9833C33.186 17.9565 32.7903 17.7643 32.5046 17.4402C32.2179 17.1162 32.0746 16.7003 32.1013 16.2682C32.1281 15.8361 32.3202 15.4413 32.6441 15.1545C32.9681 14.8677 33.3809 14.7252 33.8158 14.751C34.7064 14.8055 35.3868 15.5741 35.3324 16.4661C35.2798 17.3236 34.565 17.9871 33.7173 17.9871V17.9861ZM33.7154 15.3791C33.4746 15.3791 33.2443 15.4661 33.0627 15.6267C32.8649 15.8017 32.7473 16.0435 32.7311 16.3064C32.6976 16.8504 33.1133 17.3198 33.6571 17.3532C34.199 17.3867 34.6701 16.9709 34.7036 16.4269C34.737 15.8829 34.3213 15.4135 33.7785 15.381C33.7575 15.3801 33.7374 15.3791 33.7164 15.3791H33.7154Z" fill="black"/>
<path d="M108.241 166.314C108.154 166.314 108.067 166.278 108.005 166.208C107.889 166.077 107.901 165.878 108.031 165.762L108.809 165.074C108.94 164.958 109.139 164.97 109.254 165.1C109.37 165.231 109.357 165.43 109.227 165.546L108.45 166.235C108.39 166.288 108.315 166.314 108.241 166.314Z" fill="black"/>
<path d="M111.177 163.713C111.09 163.713 111.003 163.677 110.941 163.607C110.825 163.476 110.838 163.277 110.968 163.161L111.745 162.473C111.876 162.357 112.075 162.37 112.191 162.5C112.306 162.631 112.294 162.83 112.164 162.945L111.387 163.634C111.326 163.687 111.252 163.713 111.177 163.713Z" fill="black"/>
<path d="M111.742 166.527C111.655 166.527 111.568 166.491 111.505 166.421L110.817 165.643C110.701 165.512 110.714 165.313 110.844 165.198C110.974 165.082 111.175 165.094 111.289 165.224L111.978 166.002C112.093 166.133 112.081 166.332 111.951 166.447C111.891 166.501 111.816 166.527 111.742 166.527Z" fill="black"/>
<path d="M109.143 163.589C109.056 163.589 108.969 163.553 108.907 163.483L108.218 162.706C108.103 162.575 108.115 162.376 108.245 162.26C108.375 162.144 108.575 162.157 108.691 162.287L109.379 163.064C109.495 163.195 109.482 163.394 109.352 163.51C109.292 163.564 109.218 163.589 109.143 163.589Z" fill="black"/>
<path d="M31.5446 67.9876C30.8088 67.9876 30.0662 67.9637 29.338 67.9178C29.1641 67.9063 29.0322 67.7563 29.0437 67.5823C29.0552 67.4083 29.1937 67.2735 29.3791 67.2878C30.2029 67.3404 31.0448 67.3624 31.8791 67.3547H31.882C32.055 67.3547 32.1954 67.4943 32.1974 67.6674C32.1993 67.8413 32.0588 67.9838 31.8849 67.9857C31.7721 67.9867 31.6584 67.9876 31.5456 67.9876H31.5446ZM34.4011 67.8729C34.2386 67.8729 34.1001 67.7477 34.0867 67.5823C34.0733 67.4083 34.2023 67.2563 34.3762 67.2429C35.1962 67.1779 36.0324 67.0832 36.8628 66.9609C37.0368 66.936 37.1954 67.0546 37.2212 67.2276C37.2461 67.3997 37.1276 67.5603 36.9546 67.5861C36.1107 67.7094 35.2602 67.806 34.4269 67.8729C34.4183 67.8729 34.4097 67.8738 34.4011 67.8738V67.8729ZM26.8486 67.6635C26.8342 67.6635 26.8189 67.6626 26.8046 67.6607C25.9646 67.5431 25.1207 67.3911 24.296 67.2104C24.1259 67.1731 24.0179 67.0048 24.0552 66.8347C24.0925 66.6645 24.2607 66.5555 24.4308 66.5938C25.2392 66.7716 26.0668 66.9198 26.8906 67.0354C27.0636 67.0593 27.184 67.219 27.1592 67.392C27.1372 67.5498 27.0024 67.6635 26.8467 67.6635H26.8486ZM39.3925 67.1444C39.2462 67.1444 39.1153 67.0421 39.0838 66.8939C39.0475 66.7228 39.1574 66.5555 39.3275 66.5202C40.1321 66.3509 40.9511 66.153 41.7634 65.9322C41.9326 65.8863 42.1046 65.9858 42.1505 66.154C42.1963 66.3223 42.097 66.4953 41.9288 66.5412C41.105 66.7649 40.2736 66.9657 39.4574 67.1377C39.4355 67.1425 39.4135 67.1444 39.3915 67.1444H39.3925ZM21.9212 66.5804C21.8906 66.5804 21.8601 66.5756 21.8295 66.567C21.0229 66.3232 20.2125 66.045 19.4203 65.7372C19.2578 65.6741 19.1766 65.4915 19.2397 65.329C19.3027 65.1665 19.4862 65.0852 19.6477 65.1483C20.4256 65.4494 21.2207 65.7229 22.012 65.9618C22.1792 66.0125 22.2729 66.1884 22.2232 66.3548C22.1821 66.4915 22.0569 66.5794 21.9212 66.5794V66.5804ZM44.2644 65.8242C44.1315 65.8242 44.0083 65.7401 43.9643 65.6072C43.9098 65.4418 43.9997 65.263 44.165 65.2085C44.9448 64.9514 45.7399 64.6665 46.5274 64.3615C46.6898 64.2984 46.8723 64.3797 46.9354 64.5422C46.9985 64.7047 46.9173 64.8873 46.7548 64.9504C45.9568 65.2582 45.1522 65.5469 44.3628 65.8079C44.3303 65.8185 44.2969 65.8242 44.2634 65.8242H44.2644ZM17.2232 64.7468C17.1726 64.7468 17.1219 64.7353 17.0742 64.7095C16.3297 64.3099 15.6158 63.8089 14.9536 63.2201C14.8236 63.1044 14.8112 62.9046 14.9278 62.7746C15.0434 62.6445 15.2431 62.6331 15.3731 62.7487C15.9981 63.3051 16.6709 63.7774 17.3723 64.1541C17.5262 64.2363 17.5835 64.4275 17.5013 64.5814C17.444 64.6875 17.336 64.7477 17.2232 64.7477V64.7468ZM48.9757 64.0068C48.8544 64.0068 48.7387 63.9361 48.6871 63.8185C48.6164 63.6589 48.689 63.4724 48.8486 63.4027C49.6026 63.0709 50.3691 62.7134 51.1259 62.3405C51.2827 62.2641 51.4719 62.3281 51.5483 62.4839C51.6258 62.6407 51.5608 62.83 51.405 62.9065C50.6405 63.2832 49.8654 63.6445 49.1038 63.9801C49.0627 63.9982 49.0197 64.0068 48.9767 64.0068H48.9757ZM53.5084 61.7765C53.3966 61.7765 53.2886 61.7172 53.2313 61.6111C53.1481 61.4582 53.2045 61.266 53.3584 61.1828C54.0837 60.788 54.8195 60.3702 55.5458 59.941C55.6959 59.853 55.8889 59.9018 55.9788 60.0519C56.0676 60.202 56.0179 60.3951 55.8679 60.484C55.1359 60.918 54.3933 61.3396 53.6603 61.7373C53.6126 61.7631 53.561 61.7755 53.5103 61.7755L53.5084 61.7765ZM13.4608 61.4409C13.3653 61.4409 13.2707 61.3979 13.2085 61.3148C12.7068 60.6494 12.2472 59.9161 11.8391 59.1351C11.7588 58.9802 11.819 58.79 11.9729 58.7097C12.1277 58.6294 12.3179 58.6886 12.3981 58.8435C12.789 59.594 13.2315 60.2976 13.7112 60.9352C13.8163 61.0748 13.7886 61.2727 13.6491 61.3769C13.5927 61.4199 13.5258 61.44 13.4599 61.44L13.4608 61.4409ZM57.8576 59.202C57.7534 59.202 57.6521 59.1504 57.5919 59.0567C57.4982 58.9095 57.5403 58.7144 57.6875 58.6208C58.3851 58.1734 59.0904 57.704 59.7842 57.2269C59.9275 57.1284 60.1244 57.1638 60.2228 57.3082C60.3212 57.4516 60.2859 57.6485 60.1416 57.747C59.442 58.2288 58.731 58.7011 58.0277 59.1523C57.9751 59.1858 57.9159 59.202 57.8576 59.202ZM11.1185 56.9889C10.9886 56.9889 10.8662 56.9076 10.8213 56.7786C10.5423 55.986 10.3081 55.1562 10.1256 54.3111C10.0893 54.141 10.1973 53.9727 10.3674 53.9354C10.5365 53.9 10.7057 54.0071 10.743 54.1773C10.9198 54.9966 11.1462 55.8015 11.4167 56.5682C11.475 56.7327 11.388 56.9124 11.2237 56.9707C11.1892 56.9831 11.1539 56.9889 11.1185 56.9889ZM62.0213 56.3359C61.9248 56.3359 61.8293 56.292 61.7671 56.2078C61.6639 56.0673 61.6936 55.8694 61.834 55.7662C62.5039 55.2729 63.1786 54.7595 63.839 54.2413C63.9757 54.1343 64.1744 54.1582 64.2824 54.2949C64.3894 54.4316 64.3656 54.6304 64.2289 54.7385C63.5638 55.2604 62.8833 55.7776 62.2087 56.2747C62.1523 56.3159 62.0863 56.3359 62.0213 56.3359ZM65.9997 53.2146C65.9089 53.2146 65.8191 53.1764 65.757 53.1008C65.6452 52.967 65.6633 52.7681 65.7971 52.6563C66.4422 52.1181 67.0844 51.5655 67.7075 51.0129C67.8374 50.8973 68.0372 50.9087 68.1528 51.0397C68.2684 51.1697 68.257 51.3695 68.126 51.4852C67.4982 52.0416 66.8512 52.5989 66.2014 53.141C66.1421 53.1907 66.0704 53.2146 65.9997 53.2146ZM10.0501 52.0655C9.88956 52.0655 9.75195 51.9431 9.73666 51.7796C9.67263 51.0952 9.64014 50.3992 9.64014 49.7118C9.64014 49.5484 9.64205 49.3839 9.64587 49.2195C9.64969 49.0474 9.79017 48.9107 9.96124 48.9107H9.96888C10.1428 48.9145 10.2814 49.0589 10.2776 49.2338C10.2737 49.3935 10.2718 49.5522 10.2718 49.7118C10.2718 50.3801 10.3034 51.055 10.3655 51.7204C10.3817 51.8944 10.2546 52.0483 10.0807 52.0645C10.0702 52.0655 10.0606 52.0664 10.0511 52.0664L10.0501 52.0655ZM69.7812 49.8552C69.6981 49.8552 69.614 49.8218 69.5528 49.7568C69.4324 49.6306 69.4382 49.4308 69.5643 49.3103C70.3948 48.5226 70.9978 47.9126 71.3571 47.5398C71.4785 47.4136 71.6782 47.4107 71.8034 47.5312C71.9286 47.6526 71.9324 47.8524 71.812 47.9776C71.4479 48.3553 70.8382 48.9719 69.9991 49.7682C69.938 49.8265 69.8596 49.8552 69.7822 49.8552H69.7812ZM10.1648 47.0264C10.1505 47.0264 10.1352 47.0255 10.1199 47.0236C9.9469 46.9987 9.82744 46.8391 9.85134 46.667C9.97175 45.8142 10.1447 44.9701 10.3645 44.1565C10.4104 43.9883 10.5843 43.8889 10.7516 43.9338C10.9198 43.9797 11.0191 44.1527 10.9742 44.321C10.7611 45.1097 10.5939 45.929 10.4773 46.7549C10.4553 46.9127 10.3196 47.0264 10.1648 47.0264ZM11.4855 42.1661C11.4454 42.1661 11.4033 42.1585 11.3641 42.1413C11.2036 42.0744 11.1281 41.8889 11.195 41.7283C11.5285 40.931 11.9175 40.1595 12.3504 39.4349C12.4402 39.2857 12.6342 39.237 12.7833 39.3259C12.9333 39.4157 12.9821 39.6089 12.8922 39.759C12.4746 40.4578 12.099 41.2025 11.7779 41.9721C11.7273 42.0935 11.6097 42.1661 11.4865 42.1661H11.4855ZM14.0744 37.8527C14.0036 37.8527 13.932 37.8288 13.8737 37.78C13.7389 37.6691 13.7208 37.4703 13.8316 37.3355C14.3783 36.674 14.9813 36.0526 15.6216 35.4895C15.7525 35.3738 15.9522 35.3872 16.0669 35.5182C16.1825 35.6491 16.1692 35.848 16.0382 35.9636C15.4228 36.5057 14.8437 37.1022 14.3181 37.738C14.2559 37.8135 14.1651 37.8527 14.0744 37.8527ZM17.8482 34.5325C17.7441 34.5325 17.6418 34.4809 17.5816 34.3853C17.488 34.2381 17.5319 34.043 17.68 33.9494C18.3939 33.4981 19.1565 33.0937 19.9488 32.7458C20.1084 32.676 20.2947 32.7486 20.3645 32.9083C20.4342 33.0679 20.3616 33.2544 20.202 33.3241C19.4384 33.6587 18.7035 34.0488 18.0164 34.4828C17.9639 34.5163 17.9056 34.5316 17.8482 34.5316V34.5325Z" fill="#1F74CA"/>
<path d="M52.9333 97.4983C52.9008 97.4983 52.8673 97.4935 52.8348 97.482C52.6695 97.4275 52.5797 97.2487 52.6341 97.0834C52.637 97.0748 52.9266 96.1943 53.3614 94.6695C53.4092 94.5022 53.5841 94.4056 53.7513 94.4525C53.9185 94.5003 54.016 94.6752 53.9682 94.8425C53.5296 96.3807 53.2362 97.2717 53.2333 97.2803C53.1894 97.4132 53.0661 97.4973 52.9333 97.4973V97.4983ZM54.3304 92.6332C54.3037 92.6332 54.2769 92.6303 54.2502 92.6227C54.082 92.5787 53.9807 92.4057 54.0246 92.2374C54.2358 91.4315 54.4422 90.6093 54.6391 89.792C54.6802 89.6228 54.8503 89.5186 55.0195 89.5587C55.1886 89.5998 55.2928 89.77 55.2526 89.9392C55.0548 90.7604 54.8474 91.5873 54.6353 92.3971C54.598 92.5385 54.47 92.6332 54.3304 92.6332ZM55.5135 87.7184C55.4915 87.7184 55.4686 87.7165 55.4457 87.7108C55.2756 87.6735 55.1676 87.5043 55.2058 87.3341C55.3855 86.5186 55.5604 85.6888 55.7247 84.8667C55.7591 84.6956 55.9254 84.5856 56.0965 84.6191C56.2675 84.6535 56.3784 84.8198 56.344 84.991C56.1787 85.816 56.0028 86.6506 55.8222 87.4699C55.7897 87.6171 55.6588 87.7175 55.5145 87.7175L55.5135 87.7184ZM56.5064 82.7625C56.4883 82.7625 56.4692 82.7606 56.4501 82.7577C56.278 82.7272 56.1643 82.5627 56.1949 82.3916C56.344 81.5599 56.4864 80.7243 56.6154 79.906C56.6431 79.7339 56.8037 79.6173 56.9766 79.6441C57.1486 79.6718 57.2662 79.8334 57.2385 80.0054C57.1085 80.8276 56.9661 81.6679 56.8161 82.5035C56.7884 82.6564 56.6555 82.7635 56.5055 82.7635L56.5064 82.7625ZM57.2968 77.7713C57.2824 77.7713 57.2681 77.7713 57.2538 77.7684C57.0808 77.7445 56.9604 77.5858 56.9833 77.4128C57.097 76.5772 57.2022 75.736 57.2949 74.9128C57.314 74.7398 57.4697 74.6136 57.6437 74.6347C57.8166 74.6538 57.9409 74.8106 57.9218 74.9836C57.8281 75.8115 57.723 76.6575 57.6083 77.4979C57.5863 77.6566 57.4516 77.7713 57.2958 77.7713H57.2968ZM57.8616 72.7494C57.852 72.7494 57.8425 72.7494 57.8338 72.7485C57.6599 72.7332 57.5319 72.5802 57.5472 72.4062C57.6217 71.5592 57.6848 70.7141 57.7335 69.8948C57.744 69.7208 57.8893 69.5879 58.068 69.5985C58.2419 69.609 58.3747 69.7581 58.3642 69.9331C58.3145 70.7581 58.2515 71.6089 58.176 72.4617C58.1616 72.6261 58.024 72.7494 57.8625 72.7494H57.8616ZM58.1655 67.7075C58.1655 67.7075 58.1588 67.7075 58.1549 67.7075C57.981 67.7018 57.8444 67.5565 57.8491 67.3825C57.8759 66.5469 57.8883 65.7123 57.8883 64.9026V64.8672C57.8883 64.6932 58.0298 64.5518 58.2037 64.5518C58.3776 64.5518 58.5191 64.6932 58.5191 64.8672V64.9026C58.5191 65.719 58.5057 66.5603 58.4789 67.4025C58.4732 67.5737 58.3337 67.7085 58.1636 67.7085L58.1655 67.7075ZM58.1597 62.656C57.9906 62.656 57.851 62.5222 57.8444 62.352C57.8138 61.505 57.7679 60.6609 57.7067 59.8416C57.6934 59.6676 57.8243 59.5165 57.9982 59.5031C58.1693 59.4907 58.3231 59.6207 58.3365 59.7947C58.3986 60.6217 58.4455 61.4744 58.4761 62.3291C58.4818 62.5031 58.3461 62.6493 58.1721 62.656C58.1683 62.656 58.1645 62.656 58.1607 62.656H58.1597ZM57.7775 57.6189C57.6198 57.6189 57.4841 57.5013 57.465 57.3407C57.3646 56.4984 57.2442 55.6629 57.1076 54.856C57.0779 54.684 57.1945 54.5214 57.3656 54.4928C57.5347 54.4622 57.7001 54.5798 57.7287 54.7509C57.8673 55.5673 57.9887 56.4143 58.09 57.2661C58.111 57.4391 57.9868 57.5959 57.8138 57.617C57.8014 57.6189 57.7889 57.6189 57.7756 57.6189H57.7775ZM56.9289 52.642C56.7845 52.642 56.6546 52.5425 56.6211 52.3963C56.4329 51.5684 56.2207 50.752 55.9914 49.9719C55.9426 49.8046 56.0382 49.6287 56.2054 49.5799C56.3727 49.5321 56.5485 49.6267 56.5972 49.794C56.8304 50.5875 57.0454 51.4164 57.2366 52.2576C57.2748 52.4278 57.1687 52.597 56.9986 52.6353C56.9747 52.641 56.9518 52.6429 56.9289 52.6429V52.642ZM55.4982 47.8017C55.3702 47.8017 55.2498 47.7234 55.2029 47.5962C54.9067 46.8027 54.5818 46.0274 54.2377 45.2913C54.1641 45.1336 54.232 44.9452 54.3897 44.8716C54.5474 44.7971 54.7356 44.8659 54.8092 45.0236C55.1609 45.775 55.4925 46.5666 55.7945 47.3754C55.8557 47.5389 55.7725 47.7205 55.6091 47.7817C55.5728 47.7951 55.5355 47.8017 55.4992 47.8017H55.4982ZM53.3538 43.2378C53.2448 43.2378 53.1397 43.1814 53.0814 43.081C52.658 42.3545 52.2012 41.6528 51.7225 40.9931C51.6202 40.8517 51.6517 40.6547 51.7922 40.5524C51.9327 40.4501 52.1305 40.4817 52.2328 40.6222C52.723 41.2981 53.1913 42.0189 53.6261 42.7627C53.714 42.9137 53.6634 43.1069 53.5124 43.1948C53.4627 43.2244 53.4073 43.2378 53.3538 43.2378ZM50.3912 39.1634C50.3052 39.1634 50.2192 39.128 50.1571 39.0592C49.5999 38.4435 49.0055 37.8546 48.3901 37.3116C48.2592 37.1959 48.2467 36.9971 48.3624 36.8661C48.478 36.7351 48.6768 36.7227 48.8077 36.8384C49.4413 37.3976 50.0529 38.0028 50.6254 38.6366C50.742 38.7657 50.7324 38.9655 50.6034 39.0821C50.5432 39.1366 50.4677 39.1634 50.3922 39.1634H50.3912ZM46.6174 35.8317C46.5552 35.8317 46.4922 35.8136 46.4367 35.7753C45.764 35.305 45.052 34.8662 44.3228 34.4694C44.1699 34.3863 44.1136 34.1941 44.1967 34.0411C44.2798 33.8882 44.4719 33.8318 44.6248 33.9149C45.375 34.3232 46.1061 34.7744 46.7989 35.2581C46.9423 35.3575 46.9767 35.5545 46.8773 35.6979C46.8161 35.7858 46.7177 35.8327 46.6183 35.8327L46.6174 35.8317ZM42.1984 33.4207C42.1583 33.4207 42.1172 33.4131 42.078 33.3968C41.3259 33.0842 40.5375 32.8012 39.7348 32.5546C39.5685 32.5039 39.4748 32.327 39.5255 32.1607C39.5761 31.9934 39.7529 31.9007 39.9192 31.9513C40.742 32.2037 41.5495 32.4943 42.3198 32.8136C42.4813 32.8806 42.5568 33.0651 42.4899 33.2266C42.4392 33.348 42.3227 33.4217 42.1984 33.4217V33.4207Z" fill="#1F74CA"/>
<path d="M143.389 162.96C143.389 162.96 133.259 143.144 138.181 123.878C138.346 123.234 140.85 123.951 141.049 123.308C141.303 122.487 139.265 120.308 139.579 119.494C140.749 116.465 142.347 113.49 144.473 110.649C144.473 110.649 148.486 116.495 150.569 125.621C150.725 126.309 148.166 128.225 148.298 128.95C148.423 129.634 151.242 129.125 151.341 129.84C152.619 139.084 151.518 150.793 143.388 162.96H143.389Z" fill="#84BAF3"/>
<path d="M134.572 139.568C134.151 138.991 131.75 141.073 131.322 140.525C130.899 139.985 132.039 136.08 131.612 135.569C123.243 125.536 114.333 120.936 114.333 120.936C113.544 126.149 113.633 131.14 114.363 135.865C114.479 136.62 117.891 137.88 118.039 138.621C118.202 139.433 115.417 140.448 115.616 141.245C118.548 153.002 124.949 162.198 131.292 169.386C136.242 167.643 140.732 165.452 144.782 162.885C142.835 153.076 139.137 145.81 134.574 139.569L134.572 139.568Z" fill="#1F74CA"/>
<path d="M137.074 162.785C136.973 162.785 136.873 162.736 136.812 162.646C134.569 159.313 132.384 155.874 130.316 152.426C130.226 152.277 130.274 152.083 130.424 151.993C130.573 151.903 130.767 151.952 130.856 152.101C132.92 155.54 135.1 158.969 137.336 162.293C137.433 162.437 137.395 162.634 137.251 162.731C137.196 162.767 137.135 162.784 137.075 162.784L137.074 162.785Z" fill="#B7D5F8"/>
<path d="M127.698 147.626C127.588 147.626 127.481 147.568 127.424 147.466C124.081 141.568 120.96 135.45 118.145 129.282L116.859 126.462C116.786 126.303 116.856 126.116 117.015 126.044C117.173 125.971 117.361 126.041 117.432 126.2L118.719 129.02C121.525 135.172 124.639 141.274 127.972 147.155C128.058 147.307 128.005 147.499 127.854 147.585C127.804 147.613 127.751 147.626 127.698 147.626V147.626Z" fill="#B7D5F8"/>
<path d="M142.815 164.067C142.815 164.067 138.806 142.89 159.531 135.54C159.531 135.54 161.267 154.026 142.815 164.067Z" fill="#1F74CA"/>
<path d="M146.536 158.554C146.502 158.554 146.466 158.548 146.432 158.537C146.268 158.479 146.181 158.299 146.239 158.134C148.617 151.342 156.011 140.823 156.086 140.718C156.186 140.575 156.384 140.542 156.525 140.642C156.668 140.743 156.701 140.94 156.601 141.082C156.527 141.187 149.182 151.633 146.834 158.344C146.788 158.474 146.667 158.555 146.536 158.555V158.554Z" fill="#B7D5F8"/>
</svg>
