<svg width="123" height="150" viewBox="0 0 123 150" fill="none" xmlns="http://www.w3.org/2000/svg">
    <path d="M61.5 149.473c33.487 0 60.634-27.156 60.634-60.655 0-33.498-27.147-60.654-60.634-60.654C28.012 28.164.865 55.32.865 88.818c0 33.499 27.147 60.655 60.635 60.655z" fill="#fff"/>
    <path d="M61.327 149.862C1.335 151.241.02 122.73.02 88.818c0-33.911 27.58-61.5 61.48-61.5s61.48 27.589 61.48 61.5c0 33.912-27.753 61.044-61.653 61.044zM61.5 29.01c-32.968 0-59.233 26.835-59.789 59.808-.516 30.67 32.055 68.941 59.79 59.809 14.872-16.386 56.923-34.034 59.788-59.809C124.932 56.042 94.468 29.01 61.5 29.01z" fill="#3F3D56"/>
    <path d="M53.229 120.386a6.748 6.748 0 0 1-5.396-2.699L31.291 95.623a6.748 6.748 0 0 1 6.35-10.729 6.745 6.745 0 0 1 4.442 2.633l10.822 14.434 27.796-41.707a6.745 6.745 0 0 1 11.224 7.485l-33.084 49.643a6.75 6.75 0 0 1-5.612 3.004z" fill="#F2F2F2"/>
    <path d="M100.22 145.627h-3.55l-1.689-13.7 5.24.001-.001 13.699z" fill="#FFB6B6"/>
    <path d="m100.345 149.332-10.918-.001v-.138a4.254 4.254 0 0 1 4.25-4.251l1.994-1.513 3.721 1.513h.953v4.39z" fill="#2F2E41"/>
    <path d="m84.784 128.648-3.28 1.361-6.806-12.007 4.84-2.008 5.246 12.654z" fill="#FFB6B6"/>
    <path d="m86.319 132.023-10.086 4.184-.053-.128a4.251 4.251 0 0 1 2.298-5.555l1.263-2.162 4.017-.028.88-.365 1.68 4.054z" fill="#2F2E41"/>
    <path d="m104.279 67.698-25.196 2.634-3.37 11.355-11.673 18.764s8.145 13.713 7.38 13.564c-.765-.15.764 3.588 1.834 3.371 1.071-.217 2.184 2.221 1.444 2.654-.74.433 2.23 4.097 2.23 4.097l4.538-4.075c.966-7.284-.2-13.767-4.356-19.127l13.003-14.042 2.466-1.024 1.957 52.11 7.24.119c1.997-10.28 3.001-19.531 1.439-26.131 0 0 .225-19.827 1.081-19.61.856.216.13-2.367.13-2.367s-.75-2.2.172-3.112c.921-.913.346-6.28.346-6.28 1.522-5.08 1.064-9.274-.665-12.9z" fill="#2F2E41"/>
    <path d="m84.906 25.793 6.966-1.806 3.252-4.486 7.721.95 1.644 6.119 5.497 3.192s-3.038 32.148-2.315 33.913c.722 1.765 3.314 1.62 1.101 3.895s-2.507 1.359-1.993 3.836c.513 2.477 4.257 5.1 0 5.073-4.257-.026-29.946-.393-29.212-3.33.734-2.937.722-2.19 1.829-4.032 1.107-1.841 1.851-.813 1.479-3.53-.372-2.717-.005-4.552-.005-6.02 0-1.47 1.23-14.813 1.23-14.813l2.806-18.961z" fill="#E6E6E6"/>
    <path d="M98.965 18.672a8.185 8.185 0 0 0 8.183-8.186 8.184 8.184 0 1 0-16.366 0 8.184 8.184 0 0 0 8.183 8.186z" fill="#FFB6B6"/>
    <path d="M90.39 5.532c.72.581.555 3.406 1.355 2.946.8-.46.968-1.285 1.89-1.294.751.041 1.46.362 1.987.9.098.089.192.182.282.273a2.6 2.6 0 0 1 2.158.192 2.55 2.55 0 0 0-1.452.586c.176.197.354.396.542.579 1.567 1.536 4.781-.1 6.941-.469-1.799 1.965-1.445 3.063-.997 5.69l.002.143c.092-.606 2.032-.575 1.712.229a10.345 10.345 0 0 1-1.495 2.198c2.643-1.832 4.776-4.356 5.248-7.406.097-.641.286-1.295.103-1.92a1.478 1.478 0 0 0-1.406-1.122 5.425 5.425 0 0 0-1.291-5.418A5.421 5.421 0 0 0 100.587.21a20.74 20.74 0 0 0-2.51 1.084 4.51 4.51 0 0 1-2.658.45c-.568-.117-1.143-.411-1.7-.245-.644.194-.921.875-1.18 1.532.485.177.907.495 1.21.913a2.54 2.54 0 0 0-1.59-.056c-.585 1.047-.619 1.303-1.768 1.643z" fill="#2F2E41"/>
    <path d="M93.088 21.794c-4.19-.338-8.018 2.869-9.762 6.696-1.745 3.827-1.86 8.168-1.944 12.374l-.264 13.072c-.038 1.934-.078 3.869-.174 5.801a28.374 28.374 0 0 1-.706 5.584c-.854 3.365-2.734 6.363-4.586 9.299a125.629 125.629 0 0 0 14.443 3.45c2.436-7.882 4.9-15.99 4.302-24.22-.317-4.354-1.488-8.605-1.933-12.948-.63-6.151.205-12.347 1.039-18.474" fill="#0F2033"/>
    <path d="M103.263 22.53c4.151.668 7.107 4.691 7.894 8.823.786 4.132-.133 8.377-1.049 12.482l-2.848 12.76c-.421 1.889-.843 3.777-1.208 5.677-.355 1.846 1.131 4.213 1.148 6.093.032 3.471-.642 6.33.46 9.621-4.947.267-9.905.24-14.85-.079-.495-8.235-.963-16.697 1.572-24.548 1.341-4.155 3.488-8.006 4.951-12.12 2.073-5.825 2.732-12.042 3.377-18.192" fill="#0F2033"/>
    <path d="M106.03 81.873a2.38 2.38 0 0 1 .823-3.215c.109-.064.222-.119.34-.164l-.529-18.03 5.734-1.46-2.187 21.006a2.37 2.37 0 0 1-1.038 2.703 2.273 2.273 0 0 1-2.518-.129 2.278 2.278 0 0 1-.594-.657l-.031-.055z" fill="#FFB6B6"/>
    <path d="M105.611 29.733s4.003-3.387 7.371 3.384c3.369 6.77 1.486 22.238 1.012 23.064-.474.825-.763-.325-.504 1.876.212 1.79-1.044 1.566-.594 1.948 1.188 1.007-2.138 1.121-.43 2.009 1.708.887-5.937 1.053-5.937 1.053s-.925-.66-.282-3.152c.36-1.399 1.263-1.91.3-2.558-.963-.648.995-2.65.997-3.089.001-.439-3.054-10.045-3.054-10.045l1.121-14.49z" fill="#0F2033"/>
    <path d="M72.487 113.142a6.748 6.748 0 0 1-5.395-2.699L50.55 88.379a6.746 6.746 0 1 1 10.792-8.096l10.822 14.434L99.96 53.01a6.745 6.745 0 1 1 11.224 7.485L78.1 110.137a6.754 6.754 0 0 1-5.425 3.003l-.188.002z" fill="#1F74CA"/>
    <path d="M85.097 78.74a2.38 2.38 0 0 0-.644-3.254 2.282 2.282 0 0 0-.33-.183l1.524-17.973-5.645-1.775 1.023 21.095a2.374 2.374 0 0 0 .887 2.757 2.27 2.27 0 0 0 3.185-.666z" fill="#FFB6B6"/>
    <path d="M88.4 26.74s-3.81-3.602-7.547 2.973c-3.737 6.574-2.712 22.122-2.284 22.972.428.85.78-.282.4 1.901-.31 1.776.956 1.622.485 1.978-1.242.94 2.073 1.238.318 2.03-1.754.791 5.87 1.38 5.87 1.38s.96-.609.456-3.132c-.282-1.417-1.156-1.978-.158-2.571.997-.593-.847-2.7-.825-3.139.023-.438 3.604-9.86 3.604-9.86L88.4 26.74z" fill="#0F2033"/>
</svg>
