<svg width="18" height="19" viewBox="0 0 18 19" fill="none" xmlns="http://www.w3.org/2000/svg">
<path d="M9.00016 11.1276C7.40266 11.1276 6.09766 9.83008 6.09766 8.22508C6.09766 6.62008 7.40266 5.33008 9.00016 5.33008C10.5977 5.33008 11.9027 6.62758 11.9027 8.23258C11.9027 9.83758 10.5977 11.1276 9.00016 11.1276ZM9.00016 6.45508C8.02516 6.45508 7.22266 7.25008 7.22266 8.23258C7.22266 9.21508 8.01766 10.0101 9.00016 10.0101C9.98266 10.0101 10.7777 9.21508 10.7777 8.23258C10.7777 7.25008 9.97516 6.45508 9.00016 6.45508Z" fill="#475467"/>
<path d="M8.99977 17.57C7.88977 17.57 6.77227 17.15 5.90227 16.3175C3.68977 14.1875 1.24477 10.79 2.16727 6.7475C2.99977 3.08 6.20227 1.4375 8.99977 1.4375C8.99977 1.4375 8.99977 1.4375 9.00727 1.4375C11.8048 1.4375 15.0073 3.08 15.8398 6.755C16.7548 10.7975 14.3098 14.1875 12.0973 16.3175C11.2273 17.15 10.1098 17.57 8.99977 17.57ZM8.99977 2.5625C6.81727 2.5625 4.01227 3.725 3.26977 6.995C2.45977 10.5275 4.67977 13.5725 6.68977 15.5C7.98727 16.7525 10.0198 16.7525 11.3173 15.5C13.3198 13.5725 15.5398 10.5275 14.7448 6.995C13.9948 3.725 11.1823 2.5625 8.99977 2.5625Z" fill="#475467"/>
</svg>
